<svg width="335" height="256" viewBox="0 0 335 256" fill="none" xmlns="http://www.w3.org/2000/svg">
<path d="M15.7107 239.506C16.1402 238.587 17.0627 238 18.0769 238H206.948C207.904 238 208.536 238.993 208.131 239.859L201.993 252.988C201.134 254.826 199.289 256 197.261 256H11.0782C9.64444 256 8.6964 254.51 9.3036 253.211L15.7107 239.506Z" fill="#C0DAEE"/>
<path d="M8.928 200.77C8.436 201.454 7.812 202.162 7.056 202.894C6.312 203.626 5.484 204.328 4.572 205C3.672 205.672 2.73 206.272 1.746 206.8C1.65 206.62 1.524 206.422 1.368 206.206C1.224 205.99 1.062 205.78 0.882 205.576C0.714 205.372 0.552 205.192 0.396 205.036C1.428 204.544 2.418 203.938 3.366 203.218C4.314 202.486 5.16 201.724 5.904 200.932C6.66 200.14 7.26 199.378 7.704 198.646H9.954C10.446 199.33 10.986 199.984 11.574 200.608C12.162 201.232 12.792 201.808 13.464 202.336C14.136 202.864 14.826 203.338 15.534 203.758C16.242 204.178 16.956 204.532 17.676 204.82C17.4 205.096 17.142 205.408 16.902 205.756C16.662 206.104 16.44 206.44 16.236 206.764C15.552 206.404 14.856 205.99 14.148 205.522C13.452 205.054 12.78 204.556 12.132 204.028C11.484 203.488 10.884 202.942 10.332 202.39C9.78 201.838 9.312 201.298 8.928 200.77ZM4.428 204.1H13.482V205.99H4.428V204.1ZM2.268 207.772H15.606V209.644H2.268V207.772ZM1.368 213.244H16.668V215.098H1.368V213.244ZM7.758 204.856H10.044V214.18H7.758V204.856ZM3.402 210.328L5.13 209.608C5.358 209.908 5.58 210.238 5.796 210.598C6.024 210.958 6.228 211.312 6.408 211.66C6.588 212.008 6.72 212.32 6.804 212.596L4.95 213.424C4.878 213.148 4.758 212.83 4.59 212.47C4.422 212.098 4.236 211.726 4.032 211.354C3.828 210.982 3.618 210.64 3.402 210.328ZM12.546 209.626L14.616 210.382C14.256 210.934 13.884 211.486 13.5 212.038C13.116 212.578 12.762 213.04 12.438 213.424L10.818 212.74C11.022 212.452 11.232 212.134 11.448 211.786C11.664 211.426 11.868 211.06 12.06 210.688C12.252 210.304 12.414 209.95 12.546 209.626ZM30.902 198.97H32.774V203.596H30.902V198.97ZM22.91 211.3H24.44V215.134H22.91V211.3ZM28.058 213.37C28.898 213.274 29.906 213.136 31.082 212.956C32.258 212.776 33.446 212.59 34.646 212.398L34.772 214.234C33.692 214.45 32.6 214.654 31.496 214.846C30.404 215.05 29.414 215.236 28.526 215.404L28.058 213.37ZM33.206 210.58L34.826 210.202C35.042 210.73 35.24 211.294 35.42 211.894C35.6 212.494 35.75 213.082 35.87 213.658C36.002 214.222 36.086 214.72 36.122 215.152L34.376 215.602C34.352 215.182 34.286 214.678 34.178 214.09C34.07 213.514 33.932 212.92 33.764 212.308C33.596 211.696 33.41 211.12 33.206 210.58ZM30.11 203.956V207.718H33.674V203.956H30.11ZM28.418 202.12H35.456V209.554H28.418V202.12ZM22.154 203.254V204.37H25.286V203.254H22.154ZM20.318 201.832H27.248V205.756H20.318V201.832ZM19.472 199.402H28.04V201.184H19.472V199.402ZM21.668 210.886H25.718V212.29H21.668V210.886ZM19.58 206.44H26.96V207.97H21.218V215.566H19.58V206.44ZM26.204 206.44H27.896V213.82C27.896 214.192 27.854 214.492 27.77 214.72C27.686 214.96 27.524 215.152 27.284 215.296C27.044 215.428 26.756 215.506 26.42 215.53C26.096 215.566 25.712 215.584 25.268 215.584C25.256 215.356 25.202 215.092 25.106 214.792C25.022 214.492 24.926 214.228 24.818 214C25.07 214.012 25.304 214.018 25.52 214.018C25.748 214.018 25.904 214.018 25.988 214.018C26.132 214.018 26.204 213.94 26.204 213.784V206.44ZM24.044 207.25H25.268V208.888C25.268 209.032 25.28 209.122 25.304 209.158C25.328 209.182 25.388 209.194 25.484 209.194C25.508 209.194 25.55 209.194 25.61 209.194C25.67 209.194 25.73 209.194 25.79 209.194C25.862 209.194 25.91 209.194 25.934 209.194C26.042 209.194 26.108 209.188 26.132 209.176C26.168 209.152 26.198 209.104 26.222 209.032C26.33 209.128 26.492 209.218 26.708 209.302C26.924 209.374 27.122 209.428 27.302 209.464C27.23 209.788 27.098 210.016 26.906 210.148C26.726 210.28 26.474 210.346 26.15 210.346C26.078 210.346 25.988 210.346 25.88 210.346C25.772 210.346 25.664 210.346 25.556 210.346C25.448 210.346 25.364 210.346 25.304 210.346C24.788 210.346 24.446 210.25 24.278 210.058C24.122 209.854 24.044 209.47 24.044 208.906V207.25ZM31.082 202.822H32.648V208.582H32.792V213.676H30.92V208.582H31.082V202.822ZM22.154 207.142H23.342V207.88C23.342 208.228 23.312 208.588 23.252 208.96C23.192 209.32 23.066 209.674 22.874 210.022C22.682 210.37 22.376 210.688 21.956 210.976C21.848 210.832 21.686 210.676 21.47 210.508C21.254 210.34 21.074 210.208 20.93 210.112C21.29 209.908 21.554 209.674 21.722 209.41C21.902 209.146 22.016 208.876 22.064 208.6C22.124 208.324 22.154 208.072 22.154 207.844V207.142ZM39.124 206.134H44.236V207.808H39.124V206.134ZM38.242 200.338H44.056V202.156H38.242V200.338ZM37.63 203.38H46.432V205.234H37.63V203.38ZM40.294 198.7H42.292V204.298H40.294V198.7ZM45.19 199.15L47.188 199.708C46.3 201.94 45.124 203.908 43.66 205.612C42.208 207.316 40.546 208.696 38.674 209.752C38.59 209.608 38.458 209.434 38.278 209.23C38.098 209.014 37.912 208.804 37.72 208.6C37.528 208.396 37.366 208.228 37.234 208.096C39.058 207.196 40.648 205.978 42.004 204.442C43.372 202.906 44.434 201.142 45.19 199.15ZM41.104 208.708H43.138V213.586C43.138 214.042 43.084 214.408 42.976 214.684C42.868 214.96 42.652 215.17 42.328 215.314C42.004 215.446 41.626 215.53 41.194 215.566C40.774 215.602 40.276 215.62 39.7 215.62C39.664 215.344 39.586 215.032 39.466 214.684C39.346 214.336 39.22 214.036 39.088 213.784C39.448 213.796 39.796 213.802 40.132 213.802C40.468 213.802 40.69 213.802 40.798 213.802C40.93 213.79 41.014 213.766 41.05 213.73C41.086 213.694 41.104 213.628 41.104 213.532V208.708ZM43.786 206.134H44.236L44.632 206.026L45.784 206.962C45.352 207.502 44.848 208.048 44.272 208.6C43.708 209.152 43.144 209.62 42.58 210.004C42.472 209.836 42.31 209.644 42.094 209.428C41.89 209.212 41.716 209.038 41.572 208.906C41.836 208.69 42.112 208.444 42.4 208.168C42.688 207.88 42.952 207.586 43.192 207.286C43.444 206.986 43.642 206.716 43.786 206.476V206.134ZM37.486 210.382C38.242 210.322 39.106 210.256 40.078 210.184C41.062 210.112 42.094 210.034 43.174 209.95C44.266 209.866 45.34 209.776 46.396 209.68V211.534C45.388 211.63 44.362 211.726 43.318 211.822C42.274 211.906 41.272 211.99 40.312 212.074C39.352 212.158 38.482 212.23 37.702 212.29L37.486 210.382ZM47.836 201.994H54.46V203.992H47.836V201.994ZM48.088 198.7L50.284 199.042C50.08 200.23 49.816 201.394 49.492 202.534C49.168 203.662 48.79 204.712 48.358 205.684C47.926 206.656 47.428 207.502 46.864 208.222C46.756 208.078 46.594 207.91 46.378 207.718C46.174 207.526 45.958 207.334 45.73 207.142C45.502 206.95 45.304 206.8 45.136 206.692C45.652 206.08 46.102 205.354 46.486 204.514C46.87 203.662 47.194 202.744 47.458 201.76C47.722 200.764 47.932 199.744 48.088 198.7ZM51.256 203.2L53.47 203.398C53.206 205.45 52.798 207.262 52.246 208.834C51.706 210.394 50.956 211.738 49.996 212.866C49.036 213.994 47.8 214.936 46.288 215.692C46.216 215.524 46.108 215.314 45.964 215.062C45.82 214.81 45.664 214.558 45.496 214.306C45.328 214.066 45.172 213.874 45.028 213.73C46.396 213.118 47.5 212.338 48.34 211.39C49.192 210.43 49.846 209.272 50.302 207.916C50.758 206.548 51.076 204.976 51.256 203.2ZM49.024 203.542C49.276 205.066 49.624 206.5 50.068 207.844C50.524 209.176 51.124 210.352 51.868 211.372C52.612 212.38 53.536 213.172 54.64 213.748C54.484 213.892 54.31 214.072 54.118 214.288C53.926 214.516 53.74 214.744 53.56 214.972C53.392 215.212 53.254 215.434 53.146 215.638C51.934 214.906 50.932 213.97 50.14 212.83C49.36 211.678 48.73 210.346 48.25 208.834C47.77 207.322 47.38 205.666 47.08 203.866L49.024 203.542ZM58.92 206.332H68.622V208.078H61.08V215.62H58.92V206.332ZM67.938 206.332H70.134V213.604C70.134 214.108 70.062 214.486 69.918 214.738C69.774 215.002 69.516 215.206 69.144 215.35C68.772 215.482 68.316 215.56 67.776 215.584C67.236 215.608 66.6 215.62 65.868 215.62C65.82 215.368 65.73 215.074 65.598 214.738C65.466 214.414 65.334 214.132 65.202 213.892C65.502 213.904 65.814 213.916 66.138 213.928C66.462 213.94 66.75 213.946 67.002 213.946C67.266 213.934 67.44 213.928 67.524 213.928C67.692 213.928 67.8 213.904 67.848 213.856C67.908 213.796 67.938 213.706 67.938 213.586V206.332ZM60.234 208.924H68.748V210.4H60.234V208.924ZM56.472 200.248H72.492V202.12H56.472V200.248ZM60.954 201.382L63.402 202.012C62.97 202.564 62.52 203.11 62.052 203.65C61.584 204.178 61.17 204.628 60.81 205L59.082 204.406C59.31 204.118 59.538 203.8 59.766 203.452C59.994 203.092 60.21 202.732 60.414 202.372C60.63 202.012 60.81 201.682 60.954 201.382ZM66.408 202.66L68.154 201.58C68.646 201.916 69.168 202.3 69.72 202.732C70.284 203.152 70.812 203.584 71.304 204.028C71.796 204.46 72.204 204.862 72.528 205.234L70.638 206.458C70.35 206.098 69.972 205.696 69.504 205.252C69.036 204.796 68.526 204.34 67.974 203.884C67.434 203.428 66.912 203.02 66.408 202.66ZM57.102 203.686C57.93 203.686 58.866 203.68 59.91 203.668C60.954 203.656 62.058 203.644 63.222 203.632C64.398 203.608 65.598 203.584 66.822 203.56C68.058 203.536 69.276 203.512 70.476 203.488L70.368 205.234C68.796 205.294 67.206 205.354 65.598 205.414C63.99 205.462 62.46 205.51 61.008 205.558C59.568 205.594 58.284 205.624 57.156 205.648L57.102 203.686ZM60.234 211.264H68.73V212.758H60.234V211.264ZM63.366 198.682H65.598V201.202H63.366V198.682ZM75.242 201.652C75.602 201.64 75.944 201.628 76.268 201.616C76.592 201.592 76.838 201.574 77.006 201.562C77.378 201.538 77.834 201.502 78.374 201.454C78.926 201.394 79.538 201.334 80.21 201.274C80.894 201.214 81.62 201.154 82.388 201.094C83.156 201.034 83.954 200.968 84.782 200.896C85.406 200.836 86.024 200.788 86.636 200.752C87.26 200.704 87.848 200.668 88.4 200.644C88.964 200.608 89.456 200.584 89.876 200.572L89.894 202.876C89.57 202.876 89.198 202.882 88.778 202.894C88.358 202.906 87.938 202.93 87.518 202.966C87.11 202.99 86.744 203.044 86.42 203.128C85.88 203.272 85.376 203.518 84.908 203.866C84.44 204.202 84.032 204.604 83.684 205.072C83.348 205.528 83.084 206.026 82.892 206.566C82.7 207.094 82.604 207.628 82.604 208.168C82.604 208.756 82.706 209.278 82.91 209.734C83.126 210.178 83.414 210.562 83.774 210.886C84.146 211.198 84.578 211.462 85.07 211.678C85.562 211.882 86.09 212.038 86.654 212.146C87.23 212.254 87.824 212.326 88.436 212.362L87.59 214.828C86.834 214.78 86.096 214.66 85.376 214.468C84.668 214.276 84.002 214.012 83.378 213.676C82.754 213.34 82.208 212.932 81.74 212.452C81.284 211.96 80.918 211.402 80.642 210.778C80.378 210.142 80.246 209.434 80.246 208.654C80.246 207.79 80.384 206.998 80.66 206.278C80.936 205.546 81.278 204.91 81.686 204.37C82.106 203.818 82.52 203.392 82.928 203.092C82.592 203.14 82.184 203.188 81.704 203.236C81.236 203.284 80.726 203.344 80.174 203.416C79.634 203.476 79.082 203.542 78.518 203.614C77.954 203.686 77.408 203.77 76.88 203.866C76.364 203.95 75.896 204.034 75.476 204.118L75.242 201.652ZM87.32 204.64C87.476 204.856 87.638 205.114 87.806 205.414C87.986 205.702 88.16 205.996 88.328 206.296C88.496 206.584 88.64 206.848 88.76 207.088L87.392 207.7C87.164 207.196 86.942 206.752 86.726 206.368C86.522 205.984 86.276 205.594 85.988 205.198L87.32 204.64ZM89.336 203.812C89.492 204.028 89.66 204.28 89.84 204.568C90.032 204.844 90.218 205.132 90.398 205.432C90.578 205.72 90.728 205.978 90.848 206.206L89.498 206.854C89.258 206.374 89.024 205.948 88.796 205.576C88.58 205.204 88.322 204.82 88.022 204.424L89.336 203.812ZM3.84 233.112C3.088 233.112 2.504 232.832 2.088 232.272C1.688 231.696 1.488 230.888 1.488 229.848C1.488 228.616 1.792 227.544 2.4 226.632C3.008 225.704 3.912 224.928 5.112 224.304L5.928 225.864C5.144 226.28 4.552 226.76 4.152 227.304C3.768 227.848 3.576 228.52 3.576 229.32L3.744 231.528L2.472 229.824C2.68 229.648 2.896 229.512 3.12 229.416C3.344 229.304 3.584 229.248 3.84 229.248C4.368 229.248 4.816 229.416 5.184 229.752C5.552 230.072 5.736 230.52 5.736 231.096C5.736 231.704 5.56 232.192 5.208 232.56C4.856 232.928 4.4 233.112 3.84 233.112ZM9.84 233.112C9.088 233.112 8.504 232.832 8.088 232.272C7.688 231.696 7.488 230.888 7.488 229.848C7.488 228.616 7.792 227.544 8.4 226.632C9.008 225.704 9.912 224.928 11.112 224.304L11.928 225.864C11.144 226.28 10.56 226.76 10.176 227.304C9.792 227.848 9.6 228.52 9.6 229.32L9.744 231.528L8.472 229.824C8.68 229.648 8.896 229.512 9.12 229.416C9.344 229.304 9.584 229.248 9.84 229.248C10.368 229.248 10.816 229.416 11.184 229.752C11.552 230.072 11.736 230.52 11.736 231.096C11.736 231.704 11.56 232.192 11.208 232.56C10.856 232.928 10.4 233.112 9.84 233.112ZM15.3413 235.344H24.3413V244.152H21.6293V237.912H17.9333V244.8H15.3413V235.344ZM22.8053 222.744L24.8453 224.976C23.9173 225.296 22.9093 225.576 21.8213 225.816C20.7333 226.056 19.6213 226.272 18.4853 226.464C17.3493 226.64 16.2613 226.792 15.2213 226.92C15.1573 226.6 15.0453 226.224 14.8853 225.792C14.7253 225.344 14.5653 224.976 14.4053 224.688C15.3973 224.528 16.4053 224.352 17.4293 224.16C18.4693 223.968 19.4533 223.752 20.3813 223.512C21.3093 223.272 22.1173 223.016 22.8053 222.744ZM18.3893 225.456H21.1733V236.472H18.3893V225.456ZM29.2613 222.576H32.1893V226.272H29.2613V222.576ZM29.4053 234H32.2853V245.136H29.4053V234ZM14.5013 229.536H24.9173V232.224H14.5013V229.536ZM25.1333 225.168H36.7733V227.784H25.1333V225.168ZM25.0613 237.096H36.6533V239.736H25.0613V237.096ZM24.5813 232.104H37.1093V234.768H24.5813V232.104ZM16.5413 240.888H23.0693V243.456H16.5413V240.888ZM26.1172 228.456L28.4933 227.784C28.7973 228.392 29.0613 229.064 29.2853 229.8C29.5093 230.536 29.6613 231.176 29.7413 231.72L27.2213 232.488C27.1733 231.944 27.0453 231.288 26.8373 230.52C26.6293 229.752 26.3893 229.064 26.1172 228.456ZM32.9813 227.688L35.7413 228.312C35.4533 229.048 35.1573 229.776 34.8533 230.496C34.5653 231.216 34.2933 231.832 34.0373 232.344L31.6853 231.744C31.8453 231.36 32.0053 230.936 32.1653 230.472C32.3413 230.008 32.5013 229.536 32.6453 229.056C32.7893 228.56 32.9013 228.104 32.9813 227.688ZM54.5573 224.184C54.5093 224.392 54.4453 224.648 54.3653 224.952C54.3013 225.256 54.2373 225.56 54.1733 225.864C54.1093 226.168 54.0533 226.416 54.0053 226.608C53.7493 227.68 53.4613 228.776 53.1413 229.896C52.8213 231 52.4613 232.096 52.0613 233.184C51.6613 234.272 51.2133 235.288 50.7173 236.232C50.2373 237.176 49.7013 238.016 49.1093 238.752C48.3893 239.68 47.7093 240.44 47.0693 241.032C46.4453 241.624 45.8213 242.064 45.1973 242.352C44.5733 242.624 43.8933 242.76 43.1573 242.76C42.5013 242.76 41.8773 242.584 41.2853 242.232C40.7093 241.864 40.2373 241.328 39.8693 240.624C39.5173 239.904 39.3413 239.024 39.3413 237.984C39.3413 236.912 39.5333 235.848 39.9173 234.792C40.3173 233.72 40.8613 232.728 41.5493 231.816C42.2533 230.904 43.0773 230.144 44.0213 229.536C45.3013 228.704 46.5573 228.12 47.7893 227.784C49.0213 227.448 50.2773 227.28 51.5573 227.28C53.2213 227.28 54.6933 227.632 55.9733 228.336C57.2533 229.024 58.2533 229.992 58.9733 231.24C59.6933 232.488 60.0533 233.952 60.0533 235.632C60.0533 237.312 59.6773 238.768 58.9253 240C58.1893 241.216 57.1733 242.192 55.8773 242.928C54.5813 243.648 53.1013 244.136 51.4373 244.392L49.5893 241.608C50.9173 241.496 52.0453 241.256 52.9733 240.888C53.9173 240.52 54.6773 240.056 55.2533 239.496C55.8453 238.936 56.2773 238.312 56.5493 237.624C56.8213 236.936 56.9573 236.216 56.9573 235.464C56.9573 234.376 56.7173 233.424 56.2373 232.608C55.7733 231.776 55.1173 231.128 54.2693 230.664C53.4213 230.184 52.4213 229.944 51.2693 229.944C50.0053 229.944 48.8773 230.152 47.8853 230.568C46.8933 230.968 45.9813 231.472 45.1493 232.08C44.5253 232.528 43.9893 233.072 43.5413 233.712C43.0933 234.336 42.7493 235 42.5093 235.704C42.2693 236.408 42.1493 237.088 42.1493 237.744C42.1493 238.32 42.2693 238.784 42.5093 239.136C42.7653 239.488 43.1013 239.664 43.5173 239.664C43.8213 239.664 44.1333 239.576 44.4533 239.4C44.7733 239.208 45.0933 238.96 45.4133 238.656C45.7333 238.336 46.0533 237.968 46.3733 237.552C46.6933 237.136 47.0133 236.696 47.3333 236.232C47.7813 235.544 48.2053 234.776 48.6053 233.928C49.0053 233.08 49.3653 232.192 49.6853 231.264C50.0213 230.336 50.3013 229.44 50.5253 228.576C50.7493 227.696 50.9253 226.888 51.0533 226.152C51.1333 225.8 51.1813 225.4 51.1973 224.952C51.2293 224.504 51.2453 224.144 51.2453 223.872L54.5573 224.184ZM44.4293 224.976C44.5093 225.376 44.5893 225.768 44.6693 226.152C44.7653 226.536 44.8613 226.912 44.9573 227.28C45.1333 227.936 45.3413 228.648 45.5813 229.416C45.8213 230.168 46.0773 230.92 46.3493 231.672C46.6373 232.424 46.9253 233.12 47.2133 233.76C47.5013 234.384 47.7893 234.92 48.0773 235.368C48.4933 236.008 48.9653 236.68 49.4933 237.384C50.0213 238.072 50.5653 238.688 51.1253 239.232L48.7013 241.152C48.2213 240.624 47.7893 240.12 47.4053 239.64C47.0373 239.144 46.6533 238.592 46.2533 237.984C45.9013 237.44 45.5413 236.808 45.1733 236.088C44.8213 235.368 44.4693 234.584 44.1172 233.736C43.7813 232.888 43.4533 232.016 43.1333 231.12C42.8293 230.224 42.5333 229.336 42.2453 228.456C42.1173 228.024 41.9733 227.608 41.8133 227.208C41.6693 226.808 41.4933 226.392 41.2853 225.96L44.4293 224.976ZM73.1573 223.848C73.0613 224.168 72.9653 224.56 72.8693 225.024C72.7733 225.488 72.7013 225.848 72.6533 226.104C72.5413 226.648 72.3973 227.312 72.2213 228.096C72.0613 228.88 71.8773 229.712 71.6693 230.592C71.4773 231.472 71.2773 232.312 71.0693 233.112C70.8613 233.96 70.6053 234.88 70.3013 235.872C69.9973 236.848 69.6693 237.848 69.3173 238.872C68.9813 239.88 68.6373 240.848 68.2853 241.776C67.9333 242.688 67.5893 243.504 67.2533 244.224L63.9173 243.096C64.2693 242.488 64.6453 241.752 65.0453 240.888C65.4453 240.008 65.8293 239.064 66.1973 238.056C66.5813 237.048 66.9333 236.048 67.2533 235.056C67.5733 234.064 67.8453 233.144 68.0693 232.296C68.2293 231.736 68.3813 231.16 68.5253 230.568C68.6693 229.976 68.7973 229.4 68.9093 228.84C69.0213 228.28 69.1173 227.76 69.1973 227.28C69.2933 226.784 69.3653 226.352 69.4133 225.984C69.4613 225.536 69.4933 225.088 69.5093 224.64C69.5253 224.192 69.5173 223.832 69.4853 223.56L73.1573 223.848ZM67.0373 227.424C68.0133 227.424 69.0293 227.376 70.0853 227.28C71.1413 227.184 72.2053 227.048 73.2773 226.872C74.3493 226.696 75.4133 226.488 76.4693 226.248V229.248C75.4773 229.472 74.4213 229.664 73.3013 229.824C72.1813 229.984 71.0773 230.112 69.9893 230.208C68.9013 230.288 67.9013 230.328 66.9893 230.328C66.4133 230.328 65.8933 230.32 65.4293 230.304C64.9653 230.272 64.5173 230.248 64.0853 230.232L64.0133 227.232C64.6373 227.296 65.1733 227.344 65.6213 227.376C66.0693 227.408 66.5413 227.424 67.0373 227.424ZM74.5733 231.096C75.2453 231.032 75.9893 230.976 76.8053 230.928C77.6213 230.88 78.4133 230.856 79.1813 230.856C79.8693 230.856 80.5653 230.872 81.2693 230.904C81.9893 230.936 82.7013 230.992 83.4053 231.072L83.3333 233.952C82.7413 233.872 82.0853 233.808 81.3653 233.76C80.6613 233.696 79.9413 233.664 79.2053 233.664C78.3893 233.664 77.5973 233.688 76.8293 233.736C76.0773 233.768 75.3253 233.832 74.5733 233.928V231.096ZM75.8693 237.144C75.7733 237.48 75.6933 237.832 75.6293 238.2C75.5653 238.552 75.5333 238.864 75.5333 239.136C75.5333 239.392 75.5893 239.632 75.7013 239.856C75.8133 240.08 75.9893 240.28 76.2293 240.456C76.4693 240.616 76.7973 240.744 77.2133 240.84C77.6453 240.936 78.1813 240.984 78.8213 240.984C79.6373 240.984 80.4533 240.944 81.2693 240.864C82.1013 240.768 82.9493 240.64 83.8133 240.48L83.6933 243.552C83.0213 243.632 82.2773 243.704 81.4613 243.768C80.6453 243.848 79.7573 243.888 78.7973 243.888C76.7813 243.888 75.2373 243.56 74.1653 242.904C73.1093 242.232 72.5813 241.288 72.5813 240.072C72.5813 239.528 72.6293 238.976 72.7253 238.416C72.8213 237.856 72.9173 237.336 73.0133 236.856L75.8693 237.144ZM103.397 225.696C103.013 225.968 102.637 226.256 102.269 226.56C101.901 226.848 101.581 227.112 101.309 227.352C100.909 227.656 100.429 228.032 99.8693 228.48C99.3253 228.912 98.7493 229.368 98.1413 229.848C97.5493 230.312 96.9733 230.768 96.4133 231.216C95.8533 231.664 95.3733 232.064 94.9733 232.416C94.5573 232.784 94.2773 233.088 94.1333 233.328C93.9893 233.552 93.9893 233.776 94.1333 234C94.2933 234.224 94.5893 234.528 95.0213 234.912C95.3733 235.216 95.8213 235.592 96.3653 236.04C96.9253 236.488 97.5253 236.984 98.1653 237.528C98.8213 238.056 99.4853 238.608 100.157 239.184C100.845 239.744 101.501 240.304 102.125 240.864C102.765 241.408 103.333 241.92 103.829 242.4L101.021 244.968C100.349 244.216 99.6533 243.472 98.9333 242.736C98.5653 242.368 98.0853 241.92 97.4933 241.392C96.9173 240.848 96.2853 240.28 95.5973 239.688C94.9253 239.096 94.2533 238.512 93.5813 237.936C92.9093 237.344 92.3013 236.816 91.7573 236.352C90.9573 235.68 90.4373 235.064 90.1973 234.504C89.9733 233.944 90.0053 233.392 90.2933 232.848C90.5973 232.288 91.1493 231.68 91.9492 231.024C92.4293 230.656 92.9733 230.224 93.5813 229.728C94.1893 229.216 94.8133 228.696 95.4533 228.168C96.0933 227.624 96.7013 227.104 97.2773 226.608C97.8533 226.096 98.3413 225.648 98.7413 225.264C99.0933 224.912 99.4453 224.552 99.7973 224.184C100.149 223.816 100.413 223.496 100.589 223.224L103.397 225.696ZM111.773 227.28C112.285 227.344 112.829 227.392 113.405 227.424C113.997 227.44 114.517 227.448 114.965 227.448C115.957 227.448 116.957 227.392 117.965 227.28C118.989 227.168 119.973 227.024 120.917 226.848C121.861 226.656 122.717 226.44 123.485 226.2L123.581 228.984C122.893 229.16 122.069 229.344 121.109 229.536C120.165 229.712 119.165 229.864 118.109 229.992C117.053 230.104 116.013 230.16 114.989 230.16C114.509 230.16 114.021 230.152 113.525 230.136C113.029 230.12 112.517 230.096 111.989 230.064L111.773 227.28ZM121.109 223.68C121.013 224.08 120.885 224.6 120.725 225.24C120.565 225.88 120.381 226.552 120.173 227.256C119.981 227.96 119.773 228.656 119.549 229.344C119.197 230.496 118.733 231.72 118.157 233.016C117.581 234.312 116.957 235.576 116.285 236.808C115.613 238.04 114.933 239.136 114.245 240.096L111.341 238.608C111.885 237.936 112.421 237.192 112.949 236.376C113.477 235.56 113.973 234.72 114.437 233.856C114.901 232.992 115.317 232.16 115.685 231.36C116.069 230.544 116.373 229.808 116.597 229.152C116.901 228.304 117.165 227.36 117.389 226.32C117.629 225.264 117.765 224.272 117.797 223.344L121.109 223.68ZM126.725 231.144C126.693 231.656 126.677 232.168 126.677 232.68C126.693 233.176 126.709 233.688 126.725 234.216C126.741 234.584 126.757 235.056 126.773 235.632C126.805 236.192 126.837 236.792 126.869 237.432C126.901 238.056 126.925 238.656 126.941 239.232C126.973 239.792 126.989 240.24 126.989 240.576C126.989 241.312 126.837 241.984 126.533 242.592C126.229 243.184 125.741 243.656 125.069 244.008C124.413 244.36 123.509 244.536 122.357 244.536C121.365 244.536 120.469 244.384 119.669 244.08C118.869 243.792 118.229 243.36 117.749 242.784C117.269 242.192 117.029 241.456 117.029 240.576C117.029 239.792 117.237 239.088 117.653 238.464C118.069 237.824 118.669 237.328 119.453 236.976C120.253 236.608 121.213 236.424 122.333 236.424C123.741 236.424 125.037 236.624 126.221 237.024C127.405 237.408 128.469 237.904 129.413 238.512C130.357 239.12 131.165 239.728 131.837 240.336L130.229 242.904C129.797 242.52 129.301 242.088 128.741 241.608C128.197 241.128 127.581 240.68 126.893 240.264C126.221 239.848 125.485 239.504 124.685 239.232C123.901 238.96 123.053 238.824 122.141 238.824C121.453 238.824 120.901 238.96 120.485 239.232C120.069 239.504 119.861 239.856 119.861 240.288C119.861 240.736 120.037 241.096 120.389 241.368C120.757 241.64 121.269 241.776 121.925 241.776C122.469 241.776 122.901 241.688 123.221 241.512C123.541 241.32 123.765 241.056 123.893 240.72C124.021 240.368 124.085 239.976 124.085 239.544C124.085 239.176 124.069 238.656 124.037 237.984C124.005 237.312 123.965 236.568 123.917 235.752C123.885 234.936 123.853 234.12 123.821 233.304C123.789 232.488 123.757 231.768 123.725 231.144H126.725ZM130.853 232.416C130.389 232.032 129.813 231.624 129.125 231.192C128.437 230.76 127.725 230.352 126.989 229.968C126.269 229.568 125.637 229.248 125.093 229.008L126.629 226.632C127.061 226.824 127.549 227.064 128.093 227.352C128.653 227.624 129.213 227.912 129.773 228.216C130.349 228.52 130.877 228.824 131.357 229.128C131.853 229.416 132.253 229.672 132.557 229.896L130.853 232.416ZM140.021 225.84C139.957 226.128 139.901 226.456 139.853 226.824C139.821 227.192 139.789 227.552 139.757 227.904C139.741 228.256 139.733 228.544 139.733 228.768C139.717 229.296 139.709 229.84 139.709 230.4C139.725 230.96 139.741 231.536 139.757 232.128C139.789 232.704 139.829 233.28 139.877 233.856C139.989 235.008 140.149 236.024 140.357 236.904C140.565 237.784 140.837 238.472 141.173 238.968C141.509 239.448 141.933 239.688 142.445 239.688C142.717 239.688 142.981 239.536 143.237 239.232C143.509 238.928 143.749 238.536 143.957 238.056C144.181 237.56 144.373 237.04 144.533 236.496C144.709 235.952 144.861 235.44 144.989 234.96L147.389 237.888C146.861 239.28 146.333 240.392 145.805 241.224C145.293 242.04 144.757 242.632 144.197 243C143.637 243.352 143.029 243.528 142.373 243.528C141.509 243.528 140.685 243.24 139.901 242.664C139.133 242.088 138.477 241.16 137.933 239.88C137.389 238.584 137.005 236.864 136.781 234.72C136.701 233.984 136.637 233.208 136.589 232.392C136.557 231.576 136.533 230.8 136.517 230.064C136.517 229.328 136.517 228.72 136.517 228.24C136.517 227.904 136.501 227.504 136.469 227.04C136.437 226.576 136.389 226.16 136.325 225.792L140.021 225.84ZM152.021 226.392C152.469 226.936 152.901 227.6 153.317 228.384C153.733 229.168 154.117 230.008 154.469 230.904C154.821 231.8 155.133 232.72 155.405 233.664C155.677 234.592 155.893 235.504 156.053 236.4C156.229 237.28 156.341 238.088 156.389 238.824L153.221 240.048C153.141 239.072 152.997 238.008 152.789 236.856C152.581 235.704 152.301 234.544 151.949 233.376C151.597 232.208 151.173 231.104 150.677 230.064C150.197 229.024 149.629 228.128 148.973 227.376L152.021 226.392ZM160.013 241.608C161.437 241.56 163.085 241.512 164.957 241.464C166.845 241.4 168.821 241.328 170.885 241.248C172.965 241.168 175.013 241.088 177.029 241.008L176.933 243.648C174.981 243.76 172.997 243.856 170.981 243.936C168.981 244.032 167.077 244.12 165.269 244.2C163.461 244.296 161.829 244.376 160.373 244.44L160.013 241.608ZM159.893 234.48H179.837V237.168H159.893V234.48ZM164.165 229.848H175.421V232.488H164.165V229.848ZM165.749 236.232L169.037 237.12C168.669 237.872 168.277 238.64 167.861 239.424C167.461 240.192 167.061 240.928 166.661 241.632C166.277 242.336 165.909 242.96 165.557 243.504L163.037 242.664C163.357 242.072 163.693 241.408 164.045 240.672C164.397 239.92 164.717 239.16 165.005 238.392C165.309 237.608 165.557 236.888 165.749 236.232ZM171.725 238.704L174.245 237.36C174.965 237.984 175.677 238.656 176.381 239.376C177.085 240.096 177.733 240.824 178.325 241.56C178.917 242.28 179.397 242.944 179.765 243.552L177.077 245.184C176.757 244.576 176.301 243.888 175.709 243.12C175.133 242.368 174.493 241.6 173.789 240.816C173.101 240.032 172.413 239.328 171.725 238.704ZM169.757 225.408C169.117 226.32 168.293 227.256 167.285 228.216C166.277 229.16 165.157 230.056 163.925 230.904C162.693 231.752 161.413 232.496 160.085 233.136C159.989 232.896 159.837 232.632 159.629 232.344C159.437 232.04 159.229 231.752 159.005 231.48C158.797 231.192 158.589 230.944 158.381 230.736C159.757 230.128 161.077 229.376 162.341 228.48C163.605 227.568 164.733 226.608 165.725 225.6C166.733 224.576 167.533 223.592 168.125 222.648H171.149C171.789 223.528 172.501 224.36 173.285 225.144C174.069 225.928 174.901 226.648 175.781 227.304C176.661 227.944 177.565 228.52 178.493 229.032C179.437 229.528 180.389 229.952 181.349 230.304C180.997 230.656 180.661 231.072 180.341 231.552C180.021 232.032 179.733 232.488 179.477 232.92C178.277 232.36 177.061 231.672 175.829 230.856C174.597 230.04 173.445 229.16 172.373 228.216C171.317 227.272 170.445 226.336 169.757 225.408ZM191.621 241.632H205.277V244.464H191.621V241.632ZM192.605 230.04H204.701V232.824H192.605V230.04ZM197.165 222.84H200.141V243H197.165V222.84ZM183.005 227.064H190.853V229.656H183.005V227.064ZM186.437 235.248L189.293 231.84V245.16H186.437V235.248ZM186.437 222.624H189.293V228.264H186.437V222.624ZM188.981 232.656C189.205 232.8 189.509 233.04 189.893 233.376C190.293 233.696 190.717 234.056 191.165 234.456C191.613 234.84 192.021 235.2 192.389 235.536C192.757 235.856 193.021 236.088 193.181 236.232L191.453 238.584C191.213 238.28 190.917 237.928 190.565 237.528C190.229 237.112 189.869 236.688 189.485 236.256C189.101 235.824 188.725 235.416 188.357 235.032C187.989 234.648 187.677 234.328 187.421 234.072L188.981 232.656ZM189.821 227.064H190.373L190.877 226.944L192.485 228C191.893 229.568 191.117 231.064 190.157 232.488C189.197 233.896 188.141 235.168 186.989 236.304C185.837 237.44 184.661 238.384 183.461 239.136C183.381 238.88 183.253 238.576 183.077 238.224C182.917 237.856 182.749 237.512 182.573 237.192C182.413 236.856 182.253 236.592 182.093 236.4C183.197 235.824 184.253 235.072 185.261 234.144C186.269 233.2 187.173 232.168 187.973 231.048C188.773 229.912 189.389 228.752 189.821 227.568V227.064ZM208.469 232.824L207.653 231.288C208.437 230.856 209.021 230.368 209.405 229.824C209.805 229.28 210.005 228.608 210.005 227.808L209.813 225.624L211.109 227.328C210.917 227.488 210.701 227.624 210.461 227.736C210.237 227.832 209.997 227.88 209.741 227.88C209.229 227.88 208.781 227.712 208.397 227.376C208.013 227.04 207.821 226.592 207.821 226.032C207.821 225.408 207.997 224.92 208.349 224.568C208.717 224.216 209.181 224.04 209.741 224.04C210.509 224.04 211.085 224.32 211.469 224.88C211.869 225.44 212.069 226.232 212.069 227.256C212.069 228.488 211.765 229.576 211.157 230.52C210.565 231.448 209.669 232.216 208.469 232.824ZM214.469 232.824L213.629 231.288C214.429 230.856 215.021 230.368 215.405 229.824C215.805 229.28 216.005 228.608 216.005 227.808L215.813 225.624L217.109 227.328C216.917 227.488 216.701 227.624 216.461 227.736C216.237 227.832 215.997 227.88 215.741 227.88C215.229 227.88 214.781 227.712 214.397 227.376C214.013 227.04 213.821 226.592 213.821 226.032C213.821 225.408 213.997 224.92 214.349 224.568C214.717 224.216 215.181 224.04 215.741 224.04C216.509 224.04 217.085 224.32 217.469 224.88C217.869 225.44 218.069 226.232 218.069 227.256C218.069 228.488 217.765 229.576 217.157 230.52C216.565 231.448 215.669 232.216 214.469 232.824ZM220.229 237.636C220.505 237.42 220.757 237.204 220.985 236.988C221.225 236.76 221.483 236.508 221.759 236.232C221.963 236.016 222.197 235.752 222.461 235.44C222.725 235.116 223.007 234.768 223.307 234.396C223.607 234.024 223.907 233.652 224.207 233.28C224.519 232.896 224.813 232.542 225.089 232.218C225.725 231.498 226.343 231.114 226.943 231.066C227.543 231.006 228.173 231.3 228.833 231.948C229.241 232.344 229.661 232.794 230.093 233.298C230.537 233.802 230.969 234.306 231.389 234.81C231.809 235.314 232.199 235.758 232.559 236.142C232.847 236.466 233.153 236.802 233.477 237.15C233.813 237.498 234.167 237.864 234.539 238.248C234.911 238.632 235.301 239.016 235.709 239.4C236.117 239.784 236.531 240.168 236.951 240.552L235.097 242.712C234.677 242.292 234.233 241.836 233.765 241.344C233.297 240.852 232.835 240.348 232.379 239.832C231.935 239.316 231.515 238.842 231.119 238.41C230.759 237.966 230.375 237.498 229.967 237.006C229.571 236.502 229.187 236.022 228.814 235.566C228.443 235.11 228.113 234.726 227.825 234.414C227.621 234.174 227.435 234.024 227.267 233.964C227.111 233.904 226.955 233.916 226.799 234C226.655 234.084 226.499 234.24 226.331 234.468C226.151 234.696 225.941 234.966 225.701 235.278C225.473 235.59 225.227 235.926 224.963 236.286C224.711 236.634 224.465 236.976 224.225 237.312C223.985 237.636 223.763 237.924 223.559 238.176C223.355 238.476 223.151 238.776 222.947 239.076C222.755 239.376 222.581 239.646 222.425 239.886L220.229 237.636Z" fill="#2D5379"/>
<path d="M15.6333 8.778C16.3613 10.15 17.4813 11.242 18.9933 12.054C20.5053 12.866 22.386 13.398 24.6353 13.65C24.514 13.7807 24.3833 13.9393 24.2433 14.126C24.1127 14.322 23.9867 14.5227 23.8653 14.728C23.744 14.9333 23.6413 15.12 23.5573 15.288C21.9893 15.0547 20.6033 14.686 19.3993 14.182C18.2047 13.6873 17.1687 13.0387 16.2913 12.236C15.414 11.424 14.6673 10.4533 14.0513 9.324L15.6333 8.778ZM12.6793 7.252H21.6533V8.89H12.6793V7.252ZM11.9933 3.948H24.0053V5.614H11.9933V3.948ZM17.1033 2.1H18.8533V7.994H17.1033V2.1ZM21.1213 7.252H21.4713L21.7653 7.182L22.9553 7.854C22.5353 8.99267 21.9707 9.982 21.2613 10.822C20.5613 11.662 19.7493 12.376 18.8253 12.964C17.9013 13.5427 16.8933 14.0187 15.8013 14.392C14.7093 14.7653 13.5567 15.0547 12.3433 15.26C12.2967 15.1013 12.2173 14.9193 12.1053 14.714C12.0027 14.5087 11.8907 14.308 11.7693 14.112C11.648 13.916 11.5313 13.7573 11.4193 13.636C12.5953 13.4773 13.7013 13.2533 14.7373 12.964C15.7733 12.6653 16.7113 12.278 17.5513 11.802C18.4007 11.3167 19.1287 10.7287 19.7353 10.038C20.342 9.338 20.804 8.50733 21.1213 7.546V7.252ZM30.7633 5.936H38.5053V7.252H30.7633V5.936ZM30.4833 7.91H38.9253V9.268H30.4833V7.91ZM32.3033 9.828H37.0213V11.032H32.3033V9.828ZM31.1133 4.424L32.3873 4.074C32.4993 4.326 32.616 4.61067 32.7373 4.928C32.8587 5.236 32.952 5.49267 33.0173 5.698L31.6733 6.132C31.6173 5.908 31.5333 5.63733 31.4213 5.32C31.3187 4.99333 31.216 4.69467 31.1133 4.424ZM33.5493 4.186L34.8513 3.948C34.9353 4.228 35.01 4.53133 35.0753 4.858C35.15 5.17533 35.2013 5.44133 35.2293 5.656L33.8433 5.964C33.8247 5.74 33.7873 5.46 33.7313 5.124C33.6753 4.77867 33.6147 4.466 33.5493 4.186ZM37.5813 2.17L38.5193 3.402C37.9967 3.514 37.418 3.612 36.7833 3.696C36.158 3.77067 35.5093 3.836 34.8373 3.892C34.1653 3.948 33.4887 3.99467 32.8073 4.032C32.1353 4.06 31.4867 4.07867 30.8613 4.088C30.8427 3.91067 30.796 3.70067 30.7213 3.458C30.6467 3.21533 30.572 3.01 30.4973 2.842C31.1133 2.814 31.7433 2.786 32.3873 2.758C33.0407 2.72067 33.68 2.674 34.3053 2.618C34.9307 2.562 35.5233 2.49667 36.0833 2.422C36.6527 2.34733 37.152 2.26333 37.5813 2.17ZM33.6893 10.752C34.0067 11.3027 34.4313 11.788 34.9633 12.208C35.5047 12.628 36.1347 12.9827 36.8533 13.272C37.5813 13.552 38.384 13.762 39.2613 13.902C39.084 14.0607 38.902 14.2753 38.7153 14.546C38.5287 14.826 38.3793 15.0687 38.2673 15.274C36.8767 14.9847 35.6867 14.4947 34.6973 13.804C33.708 13.1133 32.9193 12.2313 32.3313 11.158L33.6893 10.752ZM36.7833 3.696L38.3233 4.144C38.0713 4.564 37.8053 4.98867 37.5253 5.418C37.2453 5.84733 36.9933 6.20667 36.7693 6.496L35.5933 6.09C35.7427 5.866 35.8873 5.614 36.0273 5.334C36.1767 5.054 36.3167 4.76933 36.4473 4.48C36.578 4.19067 36.69 3.92933 36.7833 3.696ZM36.6853 9.828H36.9933L37.2733 9.786L38.1833 10.15C37.9127 11.1487 37.5067 11.9887 36.9653 12.67C36.4333 13.3513 35.8033 13.8973 35.0753 14.308C34.3473 14.728 33.5353 15.0547 32.6393 15.288C32.5833 15.1667 32.504 15.0267 32.4013 14.868C32.2987 14.7093 32.1867 14.5507 32.0653 14.392C31.944 14.2427 31.8367 14.126 31.7433 14.042C32.5833 13.8647 33.3347 13.6127 33.9973 13.286C34.66 12.9593 35.22 12.5347 35.6773 12.012C36.144 11.48 36.48 10.822 36.6853 10.038V9.828ZM32.4433 6.776H34.0533C34.016 7.364 33.9553 7.97067 33.8713 8.596C33.7967 9.22133 33.6847 9.842 33.5353 10.458C33.386 11.074 33.176 11.6713 32.9053 12.25C32.644 12.8287 32.3033 13.37 31.8833 13.874C31.4727 14.378 30.964 14.826 30.3573 15.218C30.2453 15.022 30.0867 14.8073 29.8813 14.574C29.676 14.35 29.4707 14.1633 29.2653 14.014C29.816 13.678 30.2733 13.2907 30.6373 12.852C31.0107 12.4133 31.3093 11.9467 31.5333 11.452C31.7573 10.948 31.9253 10.43 32.0373 9.898C32.1587 9.366 32.2473 8.834 32.3033 8.302C32.3687 7.77 32.4153 7.26133 32.4433 6.776ZM25.8633 9.604C26.4233 9.47333 27.0907 9.30533 27.8653 9.1C28.6493 8.89467 29.438 8.68 30.2313 8.456L30.4413 9.982C29.704 10.1967 28.9573 10.416 28.2013 10.64C27.4453 10.8547 26.75 11.0553 26.1153 11.242L25.8633 9.604ZM26.0453 4.76H30.3293V6.3H26.0453V4.76ZM27.5153 2.114H29.0553V13.482C29.0553 13.8647 29.0133 14.168 28.9293 14.392C28.8547 14.6253 28.71 14.8073 28.4953 14.938C28.29 15.0687 28.0287 15.1573 27.7113 15.204C27.4033 15.2507 27.016 15.2693 26.5493 15.26C26.5307 15.0547 26.4793 14.798 26.3953 14.49C26.3113 14.1913 26.218 13.93 26.1153 13.706C26.3767 13.7153 26.6147 13.7247 26.8293 13.734C27.0533 13.734 27.2073 13.7293 27.2913 13.72C27.3753 13.72 27.4313 13.706 27.4593 13.678C27.4967 13.6407 27.5153 13.5753 27.5153 13.482V2.114ZM46.1453 2.128H47.8813V4.354H46.1453V2.128ZM41.0213 3.332H53.0193V6.342H51.2833V4.802H42.6873V6.342H41.0213V3.332ZM42.2813 5.922H51.8993V7.28H42.2813V5.922ZM40.9093 10.346H53.2153V11.802H40.9093V10.346ZM42.5053 8.12H51.6053V9.464H42.5053V8.12ZM47.8533 10.64C48.2733 11.564 48.9407 12.2873 49.8553 12.81C50.77 13.3327 51.9553 13.6687 53.4113 13.818C53.2433 13.9953 53.0613 14.2287 52.8653 14.518C52.6787 14.8073 52.5293 15.064 52.4173 15.288C51.3533 15.12 50.434 14.854 49.6593 14.49C48.8847 14.1353 48.2267 13.6687 47.6853 13.09C47.1533 12.502 46.71 11.7927 46.3553 10.962L47.8533 10.64ZM46.1033 5.124H47.7973V9.016C47.7973 9.50133 47.746 9.98667 47.6433 10.472C47.55 10.9573 47.3727 11.4287 47.1113 11.886C46.8593 12.334 46.5 12.7633 46.0333 13.174C45.576 13.5847 44.9927 13.9627 44.2833 14.308C43.574 14.6627 42.7107 14.98 41.6933 15.26C41.628 15.1293 41.5347 14.98 41.4133 14.812C41.3013 14.6533 41.1753 14.49 41.0353 14.322C40.9047 14.154 40.774 14.014 40.6433 13.902C41.614 13.678 42.426 13.426 43.0793 13.146C43.742 12.866 44.2693 12.5627 44.6613 12.236C45.0627 11.9093 45.366 11.5687 45.5713 11.214C45.7767 10.85 45.9167 10.486 45.9913 10.122C46.066 9.74867 46.1033 9.37067 46.1033 8.988V5.124ZM63.1373 2.1H64.8173V6.58H63.1373V2.1ZM60.3093 2.758H67.7433V3.766H60.3093V2.758ZM60.6453 4.242H67.4073V5.222H60.6453V4.242ZM59.9593 5.698H68.0233V6.748H59.9593V5.698ZM62.3393 9.786V10.388H65.7553V9.786H62.3393ZM62.3393 11.354V11.956H65.7553V11.354H62.3393ZM62.3393 8.246V8.834H65.7553V8.246H62.3393ZM60.8413 7.21H67.3373V12.992H60.8413V7.21ZM64.4393 13.622L65.5593 12.824C65.8673 12.992 66.1847 13.1787 66.5113 13.384C66.8473 13.5893 67.1647 13.79 67.4633 13.986C67.762 14.1727 68.0187 14.336 68.2333 14.476L66.7633 15.274C66.5953 15.134 66.3807 14.966 66.1193 14.77C65.858 14.5833 65.5827 14.3873 65.2933 14.182C65.004 13.9767 64.7193 13.79 64.4393 13.622ZM62.3953 12.754L63.6973 13.608C63.4173 13.832 63.086 14.0513 62.7033 14.266C62.3207 14.49 61.9193 14.6907 61.4993 14.868C61.0887 15.0453 60.692 15.1947 60.3093 15.316C60.188 15.1667 60.0247 14.9893 59.8193 14.784C59.6233 14.588 59.4413 14.4153 59.2733 14.266C59.656 14.1633 60.0433 14.028 60.4353 13.86C60.8273 13.6827 61.196 13.5007 61.5413 13.314C61.8867 13.118 62.1713 12.9313 62.3953 12.754ZM57.0333 2.114L58.4893 2.632C58.3027 2.996 58.1067 3.36933 57.9013 3.752C57.696 4.12533 57.4953 4.48933 57.2993 4.844C57.1033 5.18933 56.9167 5.49267 56.7393 5.754L55.6193 5.292C55.7873 5.00267 55.96 4.676 56.1373 4.312C56.3147 3.948 56.4827 3.57 56.6413 3.178C56.8093 2.786 56.94 2.43133 57.0333 2.114ZM58.6153 3.78L59.9873 4.396C59.642 4.91867 59.2687 5.46933 58.8673 6.048C58.466 6.62667 58.0647 7.182 57.6633 7.714C57.262 8.246 56.8793 8.71267 56.5153 9.114L55.5493 8.582C55.8107 8.26467 56.0813 7.91 56.3613 7.518C56.6507 7.11667 56.9307 6.70133 57.2013 6.272C57.4813 5.83333 57.7427 5.39933 57.9853 4.97C58.228 4.54067 58.438 4.144 58.6153 3.78ZM54.8773 5.39L55.7033 4.256C55.9367 4.48 56.1793 4.72267 56.4313 4.984C56.6833 5.24533 56.9167 5.50667 57.1313 5.768C57.346 6.02933 57.5047 6.272 57.6073 6.496L56.7113 7.77C56.6087 7.546 56.4547 7.294 56.2493 7.014C56.0533 6.734 55.834 6.454 55.5913 6.174C55.3487 5.88467 55.1107 5.62333 54.8773 5.39ZM58.2233 7.084L59.4133 6.608C59.5907 6.92533 59.7587 7.26133 59.9173 7.616C60.0853 7.97067 60.23 8.32067 60.3513 8.666C60.482 9.002 60.5753 9.30533 60.6313 9.576L59.3573 10.136C59.3107 9.86533 59.2267 9.55733 59.1053 9.212C58.9933 8.85733 58.858 8.498 58.6993 8.134C58.55 7.76067 58.3913 7.41067 58.2233 7.084ZM54.8353 8.246C55.4607 8.218 56.198 8.18067 57.0473 8.134C57.8967 8.078 58.76 8.022 59.6373 7.966L59.6653 9.338C58.8347 9.41267 58.004 9.478 57.1733 9.534C56.352 9.59 55.61 9.646 54.9473 9.702L54.8353 8.246ZM58.5593 10.598L59.7353 10.234C59.9033 10.6167 60.0527 11.0413 60.1833 11.508C60.314 11.9747 60.4027 12.3713 60.4493 12.698L59.2033 13.118C59.166 12.7727 59.0867 12.3667 58.9653 11.9C58.8533 11.424 58.718 10.99 58.5593 10.598ZM55.4373 10.332L56.7813 10.57C56.7067 11.242 56.5947 11.9047 56.4453 12.558C56.3053 13.202 56.1373 13.748 55.9413 14.196C55.848 14.1307 55.7267 14.0607 55.5773 13.986C55.428 13.9113 55.274 13.8413 55.1153 13.776C54.9567 13.7013 54.8213 13.6453 54.7093 13.608C54.9147 13.188 55.0733 12.684 55.1853 12.096C55.2973 11.508 55.3813 10.92 55.4373 10.332ZM56.9633 9.002H58.4193V15.26H56.9633V9.002ZM76.5772 14.196C76.0266 14.196 75.5366 14.1307 75.1072 14C74.6779 13.8693 74.2952 13.6967 73.9592 13.482C73.6232 13.2673 73.3246 13.034 73.0632 12.782L74.0152 11.466C74.2112 11.662 74.4212 11.8393 74.6452 11.998C74.8786 12.1567 75.1306 12.2827 75.4012 12.376C75.6812 12.4693 75.9799 12.516 76.2972 12.516C76.6519 12.516 76.9646 12.4413 77.2352 12.292C77.5152 12.1427 77.7346 11.928 77.8932 11.648C78.0519 11.3587 78.1312 11.0133 78.1312 10.612C78.1312 10.0147 77.9679 9.55267 77.6412 9.226C77.3239 8.89933 76.9039 8.736 76.3812 8.736C76.0826 8.736 75.8259 8.778 75.6112 8.862C75.3966 8.93667 75.1352 9.072 74.8272 9.268L73.8892 8.666L74.1692 3.626H79.7132V5.362H75.9472L75.7512 7.56C75.9566 7.46667 76.1572 7.39667 76.3532 7.35C76.5492 7.30333 76.7639 7.28 76.9972 7.28C77.5759 7.28 78.1079 7.39667 78.5932 7.63C79.0786 7.854 79.4659 8.20867 79.7552 8.694C80.0446 9.17933 80.1892 9.8 80.1892 10.556C80.1892 11.3213 80.0166 11.9793 79.6712 12.53C79.3352 13.0713 78.8919 13.4867 78.3412 13.776C77.7999 14.056 77.2119 14.196 76.5772 14.196ZM85.587 14.196C84.887 14.196 84.271 13.9953 83.739 13.594C83.2164 13.1833 82.8057 12.5767 82.507 11.774C82.2177 10.962 82.073 9.95867 82.073 8.764C82.073 7.57867 82.2177 6.594 82.507 5.81C82.8057 5.01667 83.2164 4.424 83.739 4.032C84.271 3.64 84.887 3.444 85.587 3.444C86.2964 3.444 86.9124 3.64467 87.435 4.046C87.9577 4.438 88.3637 5.026 88.653 5.81C88.9517 6.594 89.101 7.57867 89.101 8.764C89.101 9.95867 88.9517 10.962 88.653 11.774C88.3637 12.5767 87.9577 13.1833 87.435 13.594C86.9124 13.9953 86.2964 14.196 85.587 14.196ZM85.587 12.586C85.895 12.586 86.1657 12.4693 86.399 12.236C86.6324 12.0027 86.8144 11.6107 86.945 11.06C87.0757 10.5 87.141 9.73467 87.141 8.764C87.141 7.80267 87.0757 7.05133 86.945 6.51C86.8144 5.95933 86.6324 5.57667 86.399 5.362C86.1657 5.138 85.895 5.026 85.587 5.026C85.2977 5.026 85.0317 5.138 84.789 5.362C84.5557 5.57667 84.369 5.95933 84.229 6.51C84.089 7.05133 84.019 7.80267 84.019 8.764C84.019 9.73467 84.089 10.5 84.229 11.06C84.369 11.6107 84.5557 12.0027 84.789 12.236C85.0317 12.4693 85.2977 12.586 85.587 12.586ZM94.3448 14.196C93.6448 14.196 93.0288 13.9953 92.4968 13.594C91.9742 13.1833 91.5635 12.5767 91.2648 11.774C90.9755 10.962 90.8308 9.95867 90.8308 8.764C90.8308 7.57867 90.9755 6.594 91.2648 5.81C91.5635 5.01667 91.9742 4.424 92.4968 4.032C93.0288 3.64 93.6448 3.444 94.3448 3.444C95.0542 3.444 95.6702 3.64467 96.1928 4.046C96.7155 4.438 97.1215 5.026 97.4108 5.81C97.7095 6.594 97.8588 7.57867 97.8588 8.764C97.8588 9.95867 97.7095 10.962 97.4108 11.774C97.1215 12.5767 96.7155 13.1833 96.1928 13.594C95.6702 13.9953 95.0542 14.196 94.3448 14.196ZM94.3448 12.586C94.6528 12.586 94.9235 12.4693 95.1568 12.236C95.3902 12.0027 95.5722 11.6107 95.7028 11.06C95.8335 10.5 95.8988 9.73467 95.8988 8.764C95.8988 7.80267 95.8335 7.05133 95.7028 6.51C95.5722 5.95933 95.3902 5.57667 95.1568 5.362C94.9235 5.138 94.6528 5.026 94.3448 5.026C94.0555 5.026 93.7895 5.138 93.5468 5.362C93.3135 5.57667 93.1268 5.95933 92.9868 6.51C92.8468 7.05133 92.7768 7.80267 92.7768 8.764C92.7768 9.73467 92.8468 10.5 92.9868 11.06C93.1268 11.6107 93.3135 12.0027 93.5468 12.236C93.7895 12.4693 94.0555 12.586 94.3448 12.586ZM104.713 13.202H112.679V14.854H104.713V13.202ZM105.287 6.44H112.343V8.064H105.287V6.44ZM107.947 2.24H109.683V14H107.947V2.24ZM99.6867 4.704H104.265V6.216H99.6867V4.704ZM101.689 9.478L103.355 7.49V15.26H101.689V9.478ZM101.689 2.114H103.355V5.404H101.689V2.114ZM103.173 7.966C103.303 8.05 103.481 8.19 103.705 8.386C103.938 8.57267 104.185 8.78267 104.447 9.016C104.708 9.24 104.946 9.45 105.161 9.646C105.375 9.83267 105.529 9.968 105.623 10.052L104.615 11.424C104.475 11.2467 104.302 11.0413 104.097 10.808C103.901 10.5653 103.691 10.318 103.467 10.066C103.243 9.814 103.023 9.576 102.809 9.352C102.594 9.128 102.412 8.94133 102.263 8.792L103.173 7.966ZM103.663 4.704H103.985L104.279 4.634L105.217 5.25C104.871 6.16467 104.419 7.03733 103.859 7.868C103.299 8.68933 102.683 9.43133 102.011 10.094C101.339 10.7567 100.653 11.3073 99.9527 11.746C99.906 11.5967 99.8313 11.4193 99.7287 11.214C99.6353 10.9993 99.5373 10.7987 99.4347 10.612C99.3413 10.416 99.248 10.262 99.1547 10.15C99.7987 9.814 100.415 9.37533 101.003 8.834C101.591 8.28333 102.118 7.68133 102.585 7.028C103.051 6.36533 103.411 5.68867 103.663 4.998V4.704ZM118.373 4.522L119.927 3.78C120.225 4.116 120.519 4.48467 120.809 4.886C121.098 5.28733 121.355 5.684 121.579 6.076C121.812 6.45867 121.999 6.81333 122.139 7.14L120.487 8.022C120.375 7.70467 120.207 7.34067 119.983 6.93C119.759 6.51 119.507 6.09 119.227 5.67C118.947 5.25 118.662 4.86733 118.373 4.522ZM113.837 11.872C114.313 11.7133 114.863 11.5127 115.489 11.27C116.123 11.0273 116.786 10.766 117.477 10.486C118.177 10.206 118.867 9.926 119.549 9.646L119.941 11.284C119.315 11.564 118.681 11.844 118.037 12.124C117.393 12.404 116.758 12.6747 116.133 12.936C115.517 13.1973 114.943 13.44 114.411 13.664L113.837 11.872ZM122.041 10.626L123.329 9.436C123.646 9.772 123.987 10.1313 124.351 10.514C124.724 10.8967 125.088 11.2887 125.443 11.69C125.807 12.082 126.143 12.4647 126.451 12.838C126.759 13.202 127.011 13.538 127.207 13.846L125.765 15.246C125.587 14.9287 125.349 14.574 125.051 14.182C124.761 13.7993 124.444 13.4027 124.099 12.992C123.763 12.5813 123.413 12.1753 123.049 11.774C122.694 11.3633 122.358 10.9807 122.041 10.626ZM123.945 2.912L125.807 3.08C125.639 4.66667 125.396 6.09933 125.079 7.378C124.761 8.64733 124.337 9.78133 123.805 10.78C123.273 11.7693 122.601 12.6373 121.789 13.384C120.986 14.1307 120.011 14.7607 118.863 15.274C118.779 15.1527 118.657 14.9987 118.499 14.812C118.34 14.6253 118.172 14.434 117.995 14.238C117.817 14.0513 117.659 13.902 117.519 13.79C118.639 13.3607 119.577 12.824 120.333 12.18C121.098 11.536 121.723 10.7707 122.209 9.884C122.694 8.988 123.072 7.966 123.343 6.818C123.613 5.66067 123.814 4.35867 123.945 2.912ZM115.419 2.968L117.183 2.898L117.505 11.998L115.741 12.068L115.419 2.968ZM134.567 6.314H140.391V8.008H134.567V6.314ZM128.575 12.866H141.385V14.56H128.575V12.866ZM133.615 2.282H135.421V13.804H133.615V2.282Z" fill="#2D5379"/>
<path d="M9 15L1 3" stroke="#194299" stroke-linecap="round" stroke-linejoin="round"/>
<path d="M144 15L152 3" stroke="#194299" stroke-linecap="round" stroke-linejoin="round"/>
<path d="M7.2459 33.1179H20.2455V35.8213H7.2459V33.1179ZM13.7575 38.7597H21.6795V41.416H13.7575V38.7597ZM12.2765 34.6929H15.2149V46.047L12.2765 45.6944V34.6929ZM6.65821 37.1142L9.59664 37.4198C9.28321 39.8175 8.75038 41.9332 7.99814 43.7668C7.2459 45.6004 6.1959 47.097 4.84814 48.2567C4.69142 48.0843 4.47202 47.8728 4.18993 47.622C3.90784 47.3713 3.61008 47.1284 3.29665 46.8933C2.99888 46.6582 2.7403 46.4701 2.5209 46.3291C3.7903 45.3888 4.74627 44.1272 5.38881 42.5444C6.03135 40.9459 6.45448 39.1358 6.65821 37.1142ZM8.93844 40.0761C9.29888 41.1418 9.76903 42.0116 10.3489 42.6854C10.9444 43.3437 11.6261 43.8451 12.394 44.1899C13.1776 44.519 14.0317 44.7463 14.9563 44.8716C15.881 44.997 16.8605 45.0597 17.8948 45.0597C18.1455 45.0597 18.4825 45.0597 18.9056 45.0597C19.3444 45.0597 19.8224 45.0597 20.3396 45.0597C20.8724 45.0597 21.4131 45.0597 21.9616 45.0597C22.5101 45.044 23.0194 45.0362 23.4896 45.0362C23.9597 45.0205 24.3515 45.0049 24.6649 44.9892C24.5239 45.2243 24.3828 45.5142 24.2418 45.859C24.1164 46.1881 23.9989 46.5328 23.8892 46.8933C23.7795 47.2537 23.7011 47.5828 23.6541 47.8806H22.4552H17.7537C16.3903 47.8806 15.1366 47.7866 13.9925 47.5985C12.8485 47.4104 11.8142 47.0657 10.8896 46.5642C9.9806 46.0784 9.16568 45.3731 8.44478 44.4485C7.73956 43.5239 7.1362 42.3172 6.6347 40.8284L8.93844 40.0761ZM12.2295 26.0657H15.2384V30.344H12.2295V26.0657ZM3.67276 28.4399H23.8657V34.3403H20.9743V31.0963H6.44665V34.3403H3.67276V28.4399ZM28.144 28.3224H46.997V30.5086H28.144V28.3224ZM29.3194 31.5194H45.7746V33.5646H29.3194V31.5194ZM33.4802 40.5463H44.1291V42.0978H33.4802V40.5463ZM33.4802 42.944H44.1291V44.519H33.4802V42.944ZM33.4567 45.3888H44.4112V47.3869H33.4567V45.3888ZM27.0862 34.5519H47.9138V36.7616H27.0862V34.5519ZM36.019 29.9209H38.9104V36.3149H36.019V29.9209ZM31.059 26.7709L33.5743 25.9716C33.8877 26.3164 34.1855 26.7082 34.4675 27.147C34.7496 27.5701 34.9534 27.9541 35.0787 28.2989L32.4694 29.2627C32.3597 28.9179 32.1716 28.5104 31.9052 28.0403C31.6388 27.5701 31.3567 27.147 31.059 26.7709ZM41.2142 25.9481L44.2937 26.7239C43.9332 27.1784 43.5806 27.6093 43.2358 28.0168C42.9067 28.4086 42.6168 28.7455 42.366 29.0276L39.9683 28.2989C40.1877 27.9384 40.4149 27.5466 40.65 27.1235C40.9007 26.6847 41.0888 26.2929 41.2142 25.9481ZM32.0463 35.6097L34.8437 36.2914C34.1698 38.2034 33.2608 39.9507 32.1168 41.5336C30.9728 43.1007 29.7034 44.3937 28.3086 45.4123C28.1675 45.2243 27.9638 44.997 27.6974 44.7306C27.4466 44.4642 27.1802 44.1978 26.8981 43.9313C26.6317 43.6649 26.3966 43.4534 26.1929 43.2966C27.525 42.4504 28.7004 41.3612 29.719 40.0291C30.7377 38.6813 31.5134 37.2082 32.0463 35.6097ZM31.9287 37.7019H45.9157V48.0687H42.9537V39.7H34.7261V48.0687H31.9287V37.7019ZM59.7146 26.0422H62.6295V29.3332H59.7146V26.0422ZM59.7146 39.794H62.6295V48.1157H59.7146V39.794ZM50.6407 41.2985H71.8914V43.9078H50.6407V41.2985ZM51.4164 28.3224H71.1627V30.8847H51.4164V28.3224ZM68.7884 31.1668L71.3037 32.3657C70.7082 32.9142 70.0892 33.447 69.4466 33.9642C68.8041 34.4657 68.2164 34.9045 67.6836 35.2806L65.6149 34.1757C65.9754 33.9093 66.3437 33.6037 66.7198 33.259C67.1116 32.9142 67.4877 32.5616 67.8481 32.2011C68.2243 31.825 68.5377 31.4802 68.7884 31.1668ZM59.503 30.156L61.8772 31.0493C61.4071 31.6604 60.9213 32.2716 60.4198 32.8828C59.934 33.494 59.4873 34.0112 59.0799 34.4343L57.3168 33.6586C57.5675 33.3295 57.8261 32.9612 58.0925 32.5537C58.359 32.1463 58.6175 31.731 58.8683 31.3078C59.119 30.8847 59.3306 30.5007 59.503 30.156ZM63.0291 31.872L65.2153 32.8828C64.5728 33.6351 63.8675 34.4187 63.0996 35.2336C62.3317 36.0328 61.5638 36.8007 60.7959 37.5373C60.028 38.2582 59.2993 38.8929 58.6097 39.4414L56.9642 38.5246C57.6537 37.9448 58.3668 37.2787 59.1034 36.5265C59.8556 35.7586 60.5765 34.9672 61.266 34.1522C61.9556 33.3373 62.5433 32.5772 63.0291 31.872ZM56.1414 33.9172L57.4578 32.3187C57.9123 32.5851 58.3981 32.8907 58.9153 33.2354C59.4325 33.5802 59.9261 33.925 60.3963 34.2698C60.8664 34.5989 61.2504 34.9045 61.5481 35.1866L60.1612 37.0201C59.8791 36.7224 59.5108 36.3933 59.0563 36.0328C58.6019 35.6567 58.116 35.2884 57.5989 34.928C57.0817 34.5519 56.5959 34.2149 56.1414 33.9172ZM55.9299 37.6784C56.7134 37.647 57.6067 37.6157 58.6097 37.5843C59.6127 37.5373 60.6784 37.4903 61.8067 37.4433C62.9351 37.3806 64.0713 37.3257 65.2153 37.2787L65.1918 39.2769C63.6246 39.4022 62.0653 39.5276 60.5138 39.653C58.9623 39.7784 57.5675 39.8802 56.3295 39.9586L55.9299 37.6784ZM62.3944 36.1034L64.3925 35.2571C64.7373 35.6959 65.0743 36.1739 65.4034 36.691C65.7481 37.1925 66.0616 37.694 66.3437 38.1955C66.6257 38.697 66.8295 39.1515 66.9549 39.559L64.8392 40.5228C64.7138 40.1153 64.5179 39.6608 64.2515 39.1593C64.0007 38.6422 63.7108 38.1172 63.3817 37.5843C63.0683 37.0358 62.7392 36.5422 62.3944 36.1034ZM50.3821 38.1015C51.1343 37.8664 52.0354 37.5451 53.0854 37.1377C54.1511 36.7302 55.2325 36.3228 56.3295 35.9153L56.8231 37.984C55.9769 38.4071 55.0993 38.8302 54.1903 39.2534C53.297 39.6765 52.4743 40.0526 51.722 40.3817L50.3821 38.1015ZM51.0873 32.9063L52.9679 31.4019C53.3754 31.6213 53.8063 31.8799 54.2608 32.1776C54.731 32.4597 55.1698 32.7496 55.5772 33.0474C56.0004 33.3451 56.3452 33.6194 56.6116 33.8701L54.6369 35.5392C54.4019 35.2884 54.0806 35.0063 53.6731 34.6929C53.2813 34.3795 52.8582 34.066 52.4037 33.7526C51.9493 33.4392 51.5104 33.1571 51.0873 32.9063ZM65.0978 37.2787L67.0254 35.7272C67.5582 35.9937 68.1381 36.3071 68.7649 36.6675C69.3918 37.028 69.9873 37.3963 70.5515 37.7724C71.1157 38.1328 71.5858 38.4619 71.9619 38.7597L69.9168 40.4757C69.5877 40.1623 69.1489 39.8175 68.6004 39.4414C68.0519 39.0653 67.472 38.6813 66.8608 38.2896C66.2496 37.8978 65.6619 37.5608 65.0978 37.2787Z" fill="#194299"/>
<path d="M88.9524 49.4388C87.5106 49.4388 86.236 49.2403 85.1285 48.8433C84.021 48.4254 83.0703 47.7776 82.2763 46.9C81.5031 46.0224 80.918 44.894 80.521 43.5149C80.124 42.1358 79.9255 40.4851 79.9255 38.5627V25.7746H84.533V38.9701C84.533 40.5791 84.7106 41.8537 85.0658 42.794C85.421 43.7343 85.9225 44.4134 86.5703 44.8313C87.2389 45.2284 88.033 45.4269 88.9524 45.4269C89.8718 45.4269 90.6658 45.2284 91.3345 44.8313C92.0031 44.4134 92.5151 43.7343 92.8703 42.794C93.2464 41.8537 93.4345 40.5791 93.4345 38.9701V25.7746H97.8852V38.5627C97.8852 40.4851 97.6867 42.1358 97.2897 43.5149C96.8927 44.894 96.3076 46.0224 95.5345 46.9C94.7613 47.7776 93.821 48.4254 92.7136 48.8433C91.6061 49.2403 90.3524 49.4388 88.9524 49.4388ZM103.779 49V25.7746H111.396C113.109 25.7746 114.645 26.0045 116.003 26.4642C117.382 26.9239 118.469 27.6866 119.263 28.7522C120.078 29.797 120.485 31.2388 120.485 33.0776C120.485 34.8328 120.078 36.2851 119.263 37.4343C118.469 38.5627 117.393 39.3985 116.034 39.9418C114.697 40.4851 113.193 40.7567 111.521 40.7567H108.418V49H103.779ZM108.418 37.0896H111.208C112.796 37.0896 113.976 36.7552 114.749 36.0866C115.543 35.4179 115.94 34.4149 115.94 33.0776C115.94 31.7403 115.522 30.8104 114.687 30.2881C113.872 29.7448 112.66 29.4731 111.051 29.4731H108.418V37.0896Z" fill="#194299"/>
<path d="M160.686 27.147C160.607 27.5701 160.482 28.1187 160.31 28.7925C160.137 29.4664 159.887 30.2265 159.557 31.0728C159.307 31.6526 159.017 32.256 158.688 32.8828C158.374 33.494 158.053 34.0425 157.724 34.5284C157.928 34.4343 158.186 34.356 158.5 34.2933C158.813 34.2149 159.134 34.1601 159.463 34.1287C159.808 34.0817 160.114 34.0582 160.38 34.0582C161.368 34.0582 162.182 34.3403 162.825 34.9045C163.483 35.4687 163.812 36.3071 163.812 37.4198C163.812 37.7332 163.812 38.1172 163.812 38.5716C163.828 39.0261 163.844 39.5041 163.859 40.0056C163.875 40.4914 163.891 40.9694 163.906 41.4396C163.922 41.9097 163.93 42.3328 163.93 42.709H161.109C161.14 42.4425 161.156 42.1291 161.156 41.7687C161.172 41.3925 161.179 41.0007 161.179 40.5933C161.195 40.1858 161.203 39.794 161.203 39.4179C161.219 39.0261 161.226 38.6735 161.226 38.3601C161.226 37.6078 161.023 37.0907 160.615 36.8086C160.224 36.5108 159.785 36.3619 159.299 36.3619C158.641 36.3619 157.975 36.5265 157.301 36.8556C156.643 37.169 156.086 37.5451 155.632 37.984C155.287 38.3287 154.934 38.7127 154.574 39.1358C154.229 39.559 153.853 40.0369 153.446 40.5698L150.93 38.6892C151.949 37.7489 152.826 36.8399 153.563 35.9623C154.315 35.0847 154.95 34.2149 155.467 33.353C155.984 32.491 156.407 31.6291 156.737 30.7672C156.972 30.1403 157.16 29.4899 157.301 28.816C157.457 28.1265 157.551 27.484 157.583 26.8884L160.686 27.147ZM151.847 29.3097C152.443 29.4037 153.132 29.4743 153.916 29.5213C154.699 29.5683 155.389 29.5918 155.984 29.5918C157.019 29.5918 158.147 29.5683 159.369 29.5213C160.607 29.4743 161.861 29.3959 163.131 29.2862C164.4 29.1608 165.607 29.0041 166.751 28.816L166.727 31.5429C165.897 31.6526 164.996 31.7545 164.024 31.8485C163.068 31.9269 162.088 31.9974 161.085 32.0601C160.098 32.1071 159.15 32.1463 158.241 32.1776C157.332 32.1933 156.525 32.2011 155.82 32.2011C155.506 32.2011 155.115 32.2011 154.644 32.2011C154.19 32.1854 153.72 32.1698 153.234 32.1541C152.748 32.1228 152.286 32.0914 151.847 32.0601V29.3097ZM170.465 35.9858C170.214 36.0642 169.916 36.166 169.572 36.2914C169.243 36.4011 168.906 36.5187 168.561 36.644C168.232 36.7537 167.934 36.8634 167.668 36.9731C166.915 37.2709 166.022 37.6313 164.988 38.0545C163.969 38.4776 162.903 38.9713 161.791 39.5354C161.085 39.9116 160.49 40.2799 160.004 40.6403C159.518 41.0007 159.15 41.369 158.899 41.7451C158.649 42.1056 158.523 42.5052 158.523 42.944C158.523 43.2731 158.594 43.5474 158.735 43.7668C158.876 43.9705 159.087 44.1351 159.369 44.2604C159.651 44.3858 160.004 44.472 160.427 44.519C160.85 44.566 161.352 44.5896 161.932 44.5896C162.935 44.5896 164.04 44.5347 165.246 44.425C166.453 44.2996 167.574 44.1351 168.608 43.9313L168.514 46.9638C168.012 47.0265 167.378 47.0892 166.61 47.1519C165.842 47.2302 165.043 47.2851 164.212 47.3164C163.397 47.3478 162.613 47.3634 161.861 47.3634C160.639 47.3634 159.542 47.2459 158.57 47.0108C157.599 46.7757 156.831 46.3761 156.266 45.8119C155.718 45.2321 155.444 44.4407 155.444 43.4377C155.444 42.6228 155.624 41.8862 155.984 41.228C156.36 40.5698 156.854 39.9743 157.465 39.4414C158.076 38.9086 158.743 38.4306 159.463 38.0075C160.2 37.5687 160.921 37.169 161.626 36.8086C162.347 36.4325 162.997 36.1112 163.577 35.8448C164.157 35.5784 164.698 35.3433 165.199 35.1396C165.716 34.9201 166.21 34.7007 166.68 34.4813C167.135 34.2776 167.574 34.0817 167.997 33.8937C168.42 33.6899 168.851 33.4784 169.29 33.259L170.465 35.9858ZM183.276 26.0657H186.191V29.8034H183.276V26.0657ZM174.673 28.0873H194.819V33.1414H191.904V30.5556H177.47V33.1414H174.673V28.0873ZM176.788 32.4362H192.938V34.7164H176.788V32.4362ZM174.485 39.8646H195.148V42.3093H174.485V39.8646ZM177.165 36.1269H192.444V38.3836H177.165V36.1269ZM186.144 40.3582C186.85 41.9097 187.97 43.1243 189.506 44.0019C191.042 44.8795 193.032 45.4437 195.477 45.6944C195.195 45.9922 194.889 46.384 194.56 46.8698C194.247 47.3556 193.996 47.7866 193.808 48.1627C192.021 47.8806 190.478 47.434 189.177 46.8228C187.876 46.2272 186.771 45.4437 185.862 44.472C184.969 43.4847 184.225 42.2937 183.629 40.8989L186.144 40.3582ZM183.206 31.0963H186.05V37.6313C186.05 38.4463 185.964 39.2612 185.792 40.0761C185.635 40.891 185.337 41.6825 184.899 42.4504C184.475 43.2026 183.872 43.9235 183.088 44.6131C182.321 45.3026 181.341 45.9373 180.15 46.5172C178.959 47.1127 177.509 47.6455 175.801 48.1157C175.691 47.8963 175.535 47.6455 175.331 47.3634C175.143 47.097 174.931 46.8228 174.696 46.5407C174.477 46.2586 174.257 46.0235 174.038 45.8354C175.668 45.4593 177.031 45.0362 178.128 44.566C179.241 44.0959 180.126 43.5866 180.785 43.0381C181.459 42.4896 181.968 41.9175 182.313 41.322C182.657 40.7108 182.893 40.0996 183.018 39.4884C183.143 38.8616 183.206 38.2269 183.206 37.5843V31.0963ZM197.71 27.2646H205.985V29.8739H197.71V27.2646ZM197.922 33.9877H205.75V36.5735H197.922V33.9877ZM197.146 42.1448C197.914 41.9567 198.784 41.7451 199.755 41.5101C200.743 41.2593 201.777 40.9851 202.858 40.6873C203.94 40.3896 205.021 40.0918 206.102 39.794L206.455 42.2858C204.982 42.7246 203.485 43.1713 201.965 43.6257C200.445 44.0646 199.081 44.4563 197.875 44.8011L197.146 42.1448ZM209.534 32.8123V34.2698H215.693V32.8123H209.534ZM209.534 36.409V37.8664H215.693V36.409H209.534ZM209.534 29.2157V30.6731H215.693V29.2157H209.534ZM206.901 26.9354H218.467V40.1937H206.901V26.9354ZM212.849 39.1358H215.529V44.8011C215.529 45.1459 215.552 45.3653 215.599 45.4593C215.662 45.5377 215.795 45.5769 215.999 45.5769C216.046 45.5769 216.132 45.5769 216.257 45.5769C216.399 45.5769 216.54 45.5769 216.681 45.5769C216.822 45.5769 216.916 45.5769 216.963 45.5769C217.104 45.5769 217.206 45.5142 217.268 45.3888C217.347 45.2634 217.401 45.0049 217.433 44.6131C217.48 44.2056 217.511 43.6179 217.527 42.85C217.715 42.991 217.942 43.1321 218.209 43.2731C218.491 43.3985 218.781 43.516 219.078 43.6257C219.392 43.7198 219.666 43.806 219.901 43.8843C219.823 44.95 219.682 45.7806 219.478 46.3761C219.29 46.9716 219.016 47.3869 218.655 47.622C218.31 47.8728 217.856 47.9981 217.292 47.9981C217.182 47.9981 217.041 47.9981 216.869 47.9981C216.712 47.9981 216.547 47.9981 216.375 47.9981C216.203 47.9981 216.038 47.9981 215.881 47.9981C215.725 47.9981 215.591 47.9981 215.482 47.9981C214.761 47.9981 214.212 47.8963 213.836 47.6925C213.46 47.4888 213.201 47.1519 213.06 46.6817C212.919 46.2272 212.849 45.6082 212.849 44.8246V39.1358ZM208.665 39.8175H211.438C211.344 40.8362 211.188 41.7765 210.968 42.6384C210.765 43.4847 210.428 44.2604 209.957 44.9657C209.487 45.6709 208.837 46.2978 208.006 46.8463C207.191 47.3948 206.141 47.8649 204.856 48.2567C204.762 48.0216 204.629 47.7552 204.457 47.4575C204.284 47.1754 204.096 46.8933 203.893 46.6112C203.689 46.3448 203.493 46.1175 203.305 45.9295C204.402 45.6631 205.295 45.334 205.985 44.9422C206.674 44.5347 207.199 44.0802 207.56 43.5787C207.92 43.0616 208.179 42.4974 208.335 41.8862C208.492 41.2593 208.602 40.5698 208.665 39.8175ZM200.578 28.2989H203.281V42.0978L200.578 42.5209V28.2989ZM235.839 27.053C235.824 27.1784 235.8 27.3821 235.769 27.6642C235.753 27.9306 235.737 28.2049 235.722 28.4869C235.706 28.7534 235.69 28.9493 235.675 29.0746C235.659 29.3881 235.651 29.8112 235.651 30.344C235.651 30.8612 235.651 31.441 235.651 32.0836C235.651 32.7261 235.651 33.3765 235.651 34.0347C235.667 34.6772 235.675 35.2884 235.675 35.8683C235.69 36.4325 235.698 36.9026 235.698 37.2787L232.76 36.2914C232.76 35.9937 232.76 35.6019 232.76 35.116C232.76 34.6146 232.76 34.0739 232.76 33.494C232.76 32.8985 232.752 32.3108 232.736 31.731C232.736 31.1511 232.728 30.6261 232.713 30.156C232.697 29.6858 232.681 29.3332 232.666 29.0981C232.634 28.6123 232.595 28.1892 232.548 27.8287C232.501 27.4526 232.462 27.194 232.431 27.053H235.839ZM222.557 29.9679C223.247 29.9679 224.031 29.9601 224.908 29.9444C225.786 29.9287 226.703 29.9131 227.659 29.8974C228.615 29.8817 229.555 29.866 230.479 29.8504C231.404 29.8347 232.274 29.8269 233.089 29.8269C233.904 29.8112 234.609 29.8034 235.204 29.8034C235.8 29.8034 236.45 29.8034 237.156 29.8034C237.861 29.7877 238.558 29.7799 239.248 29.7799C239.937 29.7799 240.564 29.7799 241.128 29.7799C241.708 29.7799 242.155 29.7799 242.468 29.7799L242.445 32.5537C241.708 32.5224 240.737 32.4989 239.53 32.4832C238.323 32.4519 236.85 32.4362 235.11 32.4362C234.045 32.4362 232.963 32.4519 231.866 32.4832C230.769 32.4989 229.68 32.5224 228.599 32.5537C227.518 32.5851 226.475 32.6243 225.472 32.6713C224.469 32.7026 223.521 32.7496 222.628 32.8123L222.557 29.9679ZM235.275 36.9261C235.275 38.2112 235.118 39.2769 234.805 40.1231C234.507 40.9694 234.053 41.6119 233.441 42.0507C232.83 42.4739 232.07 42.6854 231.161 42.6854C230.722 42.6854 230.26 42.5914 229.774 42.4034C229.304 42.2153 228.865 41.941 228.458 41.5806C228.05 41.2201 227.721 40.7735 227.471 40.2407C227.235 39.7078 227.118 39.081 227.118 38.3601C227.118 37.4668 227.329 36.6989 227.753 36.0563C228.176 35.3981 228.74 34.8888 229.445 34.5284C230.166 34.1522 230.957 33.9642 231.819 33.9642C232.854 33.9642 233.716 34.1993 234.405 34.6694C235.11 35.1239 235.635 35.7429 235.98 36.5265C236.341 37.3101 236.521 38.1955 236.521 39.1828C236.521 39.9507 236.396 40.75 236.145 41.5806C235.894 42.4112 235.479 43.2261 234.899 44.0254C234.335 44.809 233.567 45.522 232.595 46.1646C231.639 46.8071 230.44 47.3321 228.999 47.7396L226.483 45.2478C227.486 45.044 228.419 44.7776 229.281 44.4485C230.143 44.1194 230.895 43.7041 231.537 43.2026C232.196 42.7011 232.705 42.0821 233.065 41.3455C233.441 40.609 233.629 39.7235 233.629 38.6892C233.629 37.9369 233.441 37.3728 233.065 36.9966C232.705 36.6205 232.266 36.4325 231.749 36.4325C231.451 36.4325 231.161 36.503 230.879 36.644C230.597 36.7851 230.37 36.9966 230.197 37.2787C230.025 37.5608 229.939 37.9056 229.939 38.3131C229.939 38.8459 230.119 39.2769 230.479 39.606C230.856 39.9194 231.279 40.0761 231.749 40.0761C232.125 40.0761 232.454 39.9586 232.736 39.7235C233.034 39.4884 233.23 39.0966 233.324 38.5481C233.418 37.9996 233.34 37.2631 233.089 36.3384L235.275 36.9261ZM249.403 28.0873C249.732 28.1343 250.085 28.1657 250.461 28.1813C250.837 28.197 251.197 28.2049 251.542 28.2049C251.793 28.2049 252.169 28.2049 252.671 28.2049C253.172 28.1892 253.736 28.1735 254.363 28.1578C255.006 28.1422 255.64 28.1265 256.267 28.1108C256.894 28.0951 257.458 28.0795 257.96 28.0638C258.477 28.0325 258.876 28.009 259.159 27.9933C259.644 27.9463 260.028 27.9071 260.31 27.8757C260.593 27.8287 260.804 27.7817 260.945 27.7347L262.473 29.8269C262.207 29.9993 261.932 30.1716 261.65 30.344C261.368 30.5164 261.094 30.7045 260.828 30.9082C260.514 31.1276 260.138 31.4175 259.699 31.778C259.26 32.1228 258.79 32.491 258.289 32.8828C257.803 33.2746 257.325 33.6586 256.855 34.0347C256.4 34.4108 255.985 34.7478 255.609 35.0455C256.001 34.9515 256.377 34.8888 256.737 34.8575C257.098 34.8104 257.466 34.7869 257.842 34.7869C259.174 34.7869 260.365 35.0455 261.415 35.5627C262.481 36.0799 263.319 36.7851 263.931 37.6784C264.557 38.556 264.871 39.5668 264.871 40.7108C264.871 41.9489 264.557 43.0694 263.931 44.0724C263.304 45.0754 262.356 45.8746 261.086 46.4701C259.832 47.0657 258.257 47.3634 256.361 47.3634C255.28 47.3634 254.3 47.2067 253.423 46.8933C252.561 46.5799 251.879 46.1332 251.378 45.5534C250.876 44.9735 250.625 44.2918 250.625 43.5082C250.625 42.8657 250.798 42.2701 251.143 41.7216C251.503 41.1575 251.997 40.703 252.624 40.3582C253.266 40.0134 254.003 39.841 254.833 39.841C255.915 39.841 256.824 40.0604 257.56 40.4993C258.312 40.9224 258.884 41.4944 259.276 42.2153C259.684 42.9362 259.895 43.7276 259.911 44.5896L257.16 44.9657C257.145 44.1037 256.925 43.4142 256.502 42.897C256.095 42.3642 255.546 42.0978 254.857 42.0978C254.418 42.0978 254.065 42.2153 253.799 42.4504C253.532 42.6698 253.399 42.9284 253.399 43.2261C253.399 43.6649 253.619 44.0175 254.057 44.284C254.496 44.5504 255.068 44.6836 255.774 44.6836C257.106 44.6836 258.218 44.5269 259.112 44.2134C260.005 43.8843 260.671 43.422 261.11 42.8265C261.564 42.2153 261.791 41.4944 261.791 40.6638C261.791 39.9586 261.572 39.3396 261.133 38.8067C260.71 38.2739 260.13 37.8586 259.394 37.5608C258.657 37.2631 257.826 37.1142 256.902 37.1142C255.993 37.1142 255.162 37.2317 254.41 37.4668C253.658 37.6862 252.945 38.0075 252.271 38.4306C251.613 38.8381 250.962 39.3396 250.32 39.9351C249.693 40.5149 249.066 41.1653 248.439 41.8862L246.3 39.6765C246.723 39.3317 247.201 38.9478 247.734 38.5246C248.267 38.0858 248.807 37.6313 249.356 37.1612C249.92 36.691 250.445 36.2522 250.931 35.8448C251.432 35.4216 251.856 35.069 252.2 34.7869C252.529 34.5205 252.913 34.2071 253.352 33.8466C253.791 33.4862 254.246 33.1179 254.716 32.7418C255.186 32.35 255.632 31.9817 256.056 31.6369C256.479 31.2765 256.831 30.9709 257.113 30.7201C256.878 30.7201 256.573 30.728 256.197 30.7437C255.821 30.7593 255.405 30.775 254.951 30.7907C254.512 30.8063 254.065 30.822 253.611 30.8377C253.172 30.8534 252.757 30.8769 252.365 30.9082C251.989 30.9239 251.675 30.9396 251.425 30.9552C251.111 30.9709 250.782 30.9944 250.437 31.0257C250.093 31.0571 249.779 31.0963 249.497 31.1433L249.403 28.0873Z" fill="#194299"/>
<path d="M114.281 50.0448C118.228 48.7662 126.59 45.6757 132.353 33.1296L139.522 35.9425C134.199 47.5321 120.477 50.173 114.281 50.0448Z" fill="#40ACE0"/>
<path d="M140.227 21.2363L145.518 38.448L126.072 31.1106L140.227 21.2363Z" fill="#40ACE0"/>
<rect y="64" width="335" height="108" rx="4" fill="url(#paint0_radial_133_380)"/>
<path d="M27.84 80.6C26.7467 82.12 25.36 83.6933 23.68 85.32C22.0267 86.9467 20.1867 88.5067 18.16 90C16.16 91.4933 14.0667 92.8267 11.88 94C11.6667 93.6 11.3867 93.16 11.04 92.68C10.72 92.2 10.36 91.7333 9.96 91.28C9.58667 90.8267 9.22667 90.4267 8.88 90.08C11.1733 88.9867 13.3733 87.64 15.48 86.04C17.5867 84.4133 19.4667 82.72 21.12 80.96C22.8 79.2 24.1333 77.5067 25.12 75.88H30.12C31.2133 77.4 32.4133 78.8533 33.72 80.24C35.0267 81.6267 36.4267 82.9067 37.92 84.08C39.4133 85.2533 40.9467 86.3067 42.52 87.24C44.0933 88.1733 45.68 88.96 47.28 89.6C46.6667 90.2133 46.0933 90.9067 45.56 91.68C45.0267 92.4533 44.5333 93.2 44.08 93.92C42.56 93.12 41.0133 92.2 39.44 91.16C37.8933 90.12 36.4 89.0133 34.96 87.84C33.52 86.64 32.1867 85.4267 30.96 84.2C29.7333 82.9733 28.6933 81.7733 27.84 80.6ZM17.84 88H37.96V92.2H17.84V88ZM13.04 96.16H42.68V100.32H13.04V96.16ZM11.04 108.32H45.04V112.44H11.04V108.32ZM25.24 89.68H30.32V110.4H25.24V89.68ZM15.56 101.84L19.4 100.24C19.9067 100.907 20.4 101.64 20.88 102.44C21.3867 103.24 21.84 104.027 22.24 104.8C22.64 105.573 22.9333 106.267 23.12 106.88L19 108.72C18.84 108.107 18.5733 107.4 18.2 106.6C17.8267 105.773 17.4133 104.947 16.96 104.12C16.5067 103.293 16.04 102.533 15.56 101.84ZM35.88 100.28L40.48 101.96C39.68 103.187 38.8533 104.413 38 105.64C37.1467 106.84 36.36 107.867 35.64 108.72L32.04 107.2C32.4933 106.56 32.96 105.853 33.44 105.08C33.92 104.28 34.3733 103.467 34.8 102.64C35.2267 101.787 35.5867 101 35.88 100.28ZM75.56 76.6H79.72V86.88H75.56V76.6ZM57.8 104H61.2V112.52H57.8V104ZM69.24 108.6C71.1067 108.387 73.3467 108.08 75.96 107.68C78.5733 107.28 81.2133 106.867 83.88 106.44L84.16 110.52C81.76 111 79.3333 111.453 76.88 111.88C74.4533 112.333 72.2533 112.747 70.28 113.12L69.24 108.6ZM80.68 102.4L84.28 101.56C84.76 102.733 85.2 103.987 85.6 105.32C86 106.653 86.3333 107.96 86.6 109.24C86.8933 110.493 87.08 111.6 87.16 112.56L83.28 113.56C83.2267 112.627 83.08 111.507 82.84 110.2C82.6 108.92 82.2933 107.6 81.92 106.24C81.5467 104.88 81.1333 103.6 80.68 102.4ZM73.8 87.68V96.04H81.72V87.68H73.8ZM70.04 83.6H85.68V100.12H70.04V83.6ZM56.12 86.12V88.6H63.08V86.12H56.12ZM52.04 82.96H67.44V91.68H52.04V82.96ZM50.16 77.56H69.2V81.52H50.16V77.56ZM55.04 103.08H64.04V106.2H55.04V103.08ZM50.4 93.2H66.8V96.6H54.04V113.48H50.4V93.2ZM65.12 93.2H68.88V109.6C68.88 110.427 68.7867 111.093 68.6 111.6C68.4133 112.133 68.0533 112.56 67.52 112.88C66.9867 113.173 66.3467 113.347 65.6 113.4C64.88 113.48 64.0267 113.52 63.04 113.52C63.0133 113.013 62.8933 112.427 62.68 111.76C62.4933 111.093 62.28 110.507 62.04 110C62.6 110.027 63.12 110.04 63.6 110.04C64.1067 110.04 64.4533 110.04 64.64 110.04C64.96 110.04 65.12 109.867 65.12 109.52V93.2ZM60.32 95H63.04V98.64C63.04 98.96 63.0667 99.16 63.12 99.24C63.1733 99.2933 63.3067 99.32 63.52 99.32C63.5733 99.32 63.6667 99.32 63.8 99.32C63.9333 99.32 64.0667 99.32 64.2 99.32C64.36 99.32 64.4667 99.32 64.52 99.32C64.76 99.32 64.9067 99.3067 64.96 99.28C65.04 99.2267 65.1067 99.12 65.16 98.96C65.4 99.1733 65.76 99.3733 66.24 99.56C66.72 99.72 67.16 99.84 67.56 99.92C67.4 100.64 67.1067 101.147 66.68 101.44C66.28 101.733 65.72 101.88 65 101.88C64.84 101.88 64.64 101.88 64.4 101.88C64.16 101.88 63.92 101.88 63.68 101.88C63.44 101.88 63.2533 101.88 63.12 101.88C61.9733 101.88 61.2133 101.667 60.84 101.24C60.4933 100.787 60.32 99.9333 60.32 98.68V95ZM75.96 85.16H79.44V97.96H79.76V109.28H75.6V97.96H75.96V85.16ZM56.12 94.76H58.76V96.4C58.76 97.1733 58.6933 97.9733 58.56 98.8C58.4267 99.6 58.1467 100.387 57.72 101.16C57.2933 101.933 56.6133 102.64 55.68 103.28C55.44 102.96 55.08 102.613 54.6 102.24C54.12 101.867 53.72 101.573 53.4 101.36C54.2 100.907 54.7867 100.387 55.16 99.8C55.56 99.2133 55.8133 98.6133 55.92 98C56.0533 97.3867 56.12 96.8267 56.12 96.32V94.76ZM92.72 92.52H104.08V96.24H92.72V92.52ZM90.76 79.64H103.68V83.68H90.76V79.64ZM89.4 86.4H108.96V90.52H89.4V86.4ZM95.32 76H99.76V88.44H95.32V76ZM106.2 77L110.64 78.24C108.667 83.2 106.053 87.5733 102.8 91.36C99.5733 95.1467 95.88 98.2133 91.72 100.56C91.5333 100.24 91.24 99.8533 90.84 99.4C90.44 98.92 90.0267 98.4533 89.6 98C89.1733 97.5467 88.8133 97.1733 88.52 96.88C92.5733 94.88 96.1067 92.1733 99.12 88.76C102.16 85.3467 104.52 81.4267 106.2 77ZM97.12 98.24H101.64V109.08C101.64 110.093 101.52 110.907 101.28 111.52C101.04 112.133 100.56 112.6 99.84 112.92C99.12 113.213 98.28 113.4 97.32 113.48C96.3867 113.56 95.28 113.6 94 113.6C93.92 112.987 93.7467 112.293 93.48 111.52C93.2133 110.747 92.9333 110.08 92.64 109.52C93.44 109.547 94.2133 109.56 94.96 109.56C95.7067 109.56 96.2 109.56 96.44 109.56C96.7333 109.533 96.92 109.48 97 109.4C97.08 109.32 97.12 109.173 97.12 108.96V98.24ZM103.08 92.52H104.08L104.96 92.28L107.52 94.36C106.56 95.56 105.44 96.7733 104.16 98C102.907 99.2267 101.653 100.267 100.4 101.12C100.16 100.747 99.8 100.32 99.32 99.84C98.8667 99.36 98.48 98.9733 98.16 98.68C98.7467 98.2 99.36 97.6533 100 97.04C100.64 96.4 101.227 95.7467 101.76 95.08C102.32 94.4133 102.76 93.8133 103.08 93.28V92.52ZM89.08 101.96C90.76 101.827 92.68 101.68 94.84 101.52C97.0267 101.36 99.32 101.187 101.72 101C104.147 100.813 106.533 100.613 108.88 100.4V104.52C106.64 104.733 104.36 104.947 102.04 105.16C99.72 105.347 97.4933 105.533 95.36 105.72C93.2267 105.907 91.2933 106.067 89.56 106.2L89.08 101.96ZM112.08 83.32H126.8V87.76H112.08V83.32ZM112.64 76L117.52 76.76C117.067 79.4 116.48 81.9867 115.76 84.52C115.04 87.0267 114.2 89.36 113.24 91.52C112.28 93.68 111.173 95.56 109.92 97.16C109.68 96.84 109.32 96.4667 108.84 96.04C108.387 95.6133 107.907 95.1867 107.4 94.76C106.893 94.3333 106.453 94 106.08 93.76C107.227 92.4 108.227 90.7867 109.08 88.92C109.933 87.0267 110.653 84.9867 111.24 82.8C111.827 80.5867 112.293 78.32 112.64 76ZM119.68 86L124.6 86.44C124.013 91 123.107 95.0267 121.88 98.52C120.68 101.987 119.013 104.973 116.88 107.48C114.747 109.987 112 112.08 108.64 113.76C108.48 113.387 108.24 112.92 107.92 112.36C107.6 111.8 107.253 111.24 106.88 110.68C106.507 110.147 106.16 109.72 105.84 109.4C108.88 108.04 111.333 106.307 113.2 104.2C115.093 102.067 116.547 99.4933 117.56 96.48C118.573 93.44 119.28 89.9467 119.68 86ZM114.72 86.76C115.28 90.1467 116.053 93.3333 117.04 96.32C118.053 99.28 119.387 101.893 121.04 104.16C122.693 106.4 124.747 108.16 127.2 109.44C126.853 109.76 126.467 110.16 126.04 110.64C125.613 111.147 125.2 111.653 124.8 112.16C124.427 112.693 124.12 113.187 123.88 113.64C121.187 112.013 118.96 109.933 117.2 107.4C115.467 104.84 114.067 101.88 113 98.52C111.933 95.16 111.067 91.48 110.4 87.48L114.72 86.76ZM135.6 92.96H157.16V96.84H140.4V113.6H135.6V92.96ZM155.64 92.96H160.52V109.12C160.52 110.24 160.36 111.08 160.04 111.64C159.72 112.227 159.147 112.68 158.32 113C157.493 113.293 156.48 113.467 155.28 113.52C154.08 113.573 152.667 113.6 151.04 113.6C150.933 113.04 150.733 112.387 150.44 111.64C150.147 110.92 149.853 110.293 149.56 109.76C150.227 109.787 150.92 109.813 151.64 109.84C152.36 109.867 153 109.88 153.56 109.88C154.147 109.853 154.533 109.84 154.72 109.84C155.093 109.84 155.333 109.787 155.44 109.68C155.573 109.547 155.64 109.347 155.64 109.08V92.96ZM138.52 98.72H157.44V102H138.52V98.72ZM130.16 79.44H165.76V83.6H130.16V79.44ZM140.12 81.96L145.56 83.36C144.6 84.5867 143.6 85.8 142.56 87C141.52 88.1733 140.6 89.1733 139.8 90L135.96 88.68C136.467 88.04 136.973 87.3333 137.48 86.56C137.987 85.76 138.467 84.96 138.92 84.16C139.4 83.36 139.8 82.6267 140.12 81.96ZM152.24 84.8L156.12 82.4C157.213 83.1467 158.373 84 159.6 84.96C160.853 85.8933 162.027 86.8533 163.12 87.84C164.213 88.8 165.12 89.6933 165.84 90.52L161.64 93.24C161 92.44 160.16 91.5467 159.12 90.56C158.08 89.5467 156.947 88.5333 155.72 87.52C154.52 86.5067 153.36 85.6 152.24 84.8ZM131.56 87.08C133.4 87.08 135.48 87.0667 137.8 87.04C140.12 87.0133 142.573 86.9867 145.16 86.96C147.773 86.9067 150.44 86.8533 153.16 86.8C155.907 86.7467 158.613 86.6933 161.28 86.64L161.04 90.52C157.547 90.6533 154.013 90.7867 150.44 90.92C146.867 91.0267 143.467 91.1333 140.24 91.24C137.04 91.32 134.187 91.3867 131.68 91.44L131.56 87.08ZM138.52 103.92H157.4V107.24H138.52V103.92ZM145.48 75.96H150.44V81.56H145.48V75.96ZM192.8 97.6H197.08V110.88H192.8V97.6ZM190.64 87.04V89.88H199.6V87.04H190.64ZM186.4 83.4H204.04V93.52H186.4V83.4ZM184.4 95.28H205.8V113.48H201.16V99.12H188.8V113.52H184.4V95.28ZM186.92 101.76H203.56V105.36H186.92V101.76ZM186.96 108.08H203.6V111.92H186.96V108.08ZM184.2 77.68H205.92V81.72H184.2V77.68ZM169.96 83.44H181.96V87.76H169.96V83.44ZM174.8 76.04H179.48V85.44H174.8V76.04ZM179.88 92.76C180.173 92.9467 180.573 93.2533 181.08 93.68C181.587 94.1067 182.133 94.5733 182.72 95.08C183.307 95.56 183.84 96.0133 184.32 96.44C184.8 96.8667 185.133 97.1733 185.32 97.36L182.52 101.24C182.227 100.813 181.84 100.32 181.36 99.76C180.907 99.2 180.427 98.6267 179.92 98.04C179.413 97.4533 178.92 96.9067 178.44 96.4C177.987 95.8667 177.573 95.4267 177.2 95.08L179.88 92.76ZM180.2 83.44H181.12L181.92 83.24L184.6 84.96C183.693 87.5467 182.493 90.0267 181 92.4C179.533 94.7467 177.92 96.88 176.16 98.8C174.4 100.72 172.587 102.307 170.72 103.56C170.613 103.133 170.413 102.627 170.12 102.04C169.853 101.427 169.573 100.84 169.28 100.28C168.987 99.72 168.72 99.2933 168.48 99C170.16 98.0133 171.76 96.7467 173.28 95.2C174.827 93.6267 176.2 91.9067 177.4 90.04C178.627 88.1467 179.56 86.2267 180.2 84.28V83.44ZM174.8 97.12L179.48 91.48V113.6H174.8V97.12ZM209.76 87.92H228.92V92.36H209.76V87.92ZM230.88 80.88H235.52V103.36H230.88V80.88ZM217.4 79.96H222.08V113.52H217.4V79.96ZM240.36 76.76H245.12V107.72C245.12 109.133 244.947 110.2 244.6 110.92C244.28 111.667 243.707 112.24 242.88 112.64C242.053 113.013 240.973 113.253 239.64 113.36C238.307 113.493 236.72 113.56 234.88 113.56C234.827 113.107 234.707 112.573 234.52 111.96C234.333 111.373 234.12 110.773 233.88 110.16C233.667 109.573 233.44 109.053 233.2 108.6C234.507 108.653 235.747 108.693 236.92 108.72C238.093 108.72 238.88 108.72 239.28 108.72C239.653 108.693 239.92 108.613 240.08 108.48C240.267 108.32 240.36 108.053 240.36 107.68V76.76ZM225.44 76.16L228.84 79.84C227.16 80.5067 225.293 81.1067 223.24 81.64C221.187 82.1733 219.08 82.64 216.92 83.04C214.787 83.44 212.707 83.7867 210.68 84.08C210.6 83.52 210.413 82.88 210.12 82.16C209.827 81.4133 209.547 80.8 209.28 80.32C210.72 80.08 212.187 79.8133 213.68 79.52C215.173 79.2267 216.627 78.9067 218.04 78.56C219.48 78.2133 220.827 77.84 222.08 77.44C223.333 77.04 224.453 76.6133 225.44 76.16ZM217.36 90L220.6 91.44C220.093 92.9333 219.493 94.48 218.8 96.08C218.133 97.6533 217.4 99.2133 216.6 100.76C215.8 102.28 214.947 103.72 214.04 105.08C213.16 106.413 212.24 107.573 211.28 108.56C211.12 108.08 210.893 107.56 210.6 107C210.307 106.44 210 105.88 209.68 105.32C209.387 104.76 209.107 104.267 208.84 103.84C209.693 103.013 210.533 102.053 211.36 100.96C212.213 99.8667 213.013 98.7067 213.76 97.48C214.533 96.2267 215.227 94.96 215.84 93.68C216.453 92.4 216.96 91.1733 217.36 90ZM221.4 94.04C221.773 94.3067 222.32 94.7333 223.04 95.32C223.76 95.88 224.533 96.4933 225.36 97.16C226.187 97.8267 226.933 98.4533 227.6 99.04C228.293 99.6 228.787 100 229.08 100.24L226.32 104.4C225.893 103.84 225.36 103.213 224.72 102.52C224.08 101.8 223.4 101.067 222.68 100.32C221.987 99.5733 221.307 98.88 220.64 98.24C219.973 97.5733 219.387 97.0133 218.88 96.56L221.4 94.04ZM256.88 103.04H286.4V106.72H256.88V103.04ZM259.68 96.6H279.04V99.84H259.68V96.6ZM264.52 90.6V92.24H277.88V90.6H264.52ZM264.52 86.28V87.88H277.88V86.28H264.52ZM259.96 83.36H282.64V95.16H259.96V83.36ZM269 101.08H273.72V109.28C273.72 110.347 273.56 111.16 273.24 111.72C272.947 112.307 272.36 112.747 271.48 113.04C270.627 113.333 269.6 113.507 268.4 113.56C267.227 113.613 265.84 113.627 264.24 113.6C264.107 113.013 263.88 112.347 263.56 111.6C263.267 110.88 262.96 110.253 262.64 109.72C263.387 109.747 264.133 109.773 264.88 109.8C265.627 109.827 266.293 109.84 266.88 109.84C267.493 109.813 267.907 109.8 268.12 109.8C268.467 109.773 268.693 109.72 268.8 109.64C268.933 109.533 269 109.347 269 109.08V101.08ZM278.32 96.6H279.52L280.52 96.36L283.24 98.88C282.28 99.52 281.227 100.173 280.08 100.84C278.96 101.48 277.787 102.093 276.56 102.68C275.36 103.24 274.173 103.747 273 104.2C272.76 103.827 272.413 103.4 271.96 102.92C271.507 102.413 271.133 102.013 270.84 101.72C271.747 101.373 272.68 100.947 273.64 100.44C274.6 99.9333 275.493 99.4133 276.32 98.88C277.147 98.3467 277.813 97.8667 278.32 97.44V96.6ZM255.28 77.6H286.04V81.96H255.28V77.6ZM252.48 77.6H257.2V89.88C257.2 91.6133 257.147 93.5067 257.04 95.56C256.96 97.6133 256.773 99.72 256.48 101.88C256.187 104.013 255.76 106.093 255.2 108.12C254.64 110.12 253.92 111.947 253.04 113.6C252.72 113.333 252.307 113.04 251.8 112.72C251.293 112.4 250.773 112.093 250.24 111.8C249.707 111.533 249.24 111.333 248.84 111.2C249.693 109.707 250.36 108.053 250.84 106.24C251.32 104.4 251.68 102.533 251.92 100.64C252.16 98.7467 252.307 96.88 252.36 95.04C252.44 93.1733 252.48 91.4533 252.48 89.88V77.6ZM296.32 83.28H324.16V87.96H296.32V83.28ZM294.64 95.04H322.6V99.68H294.64V95.04ZM290.04 107.76H326.2V112.44H290.04V107.76ZM305.56 76H310.6V110.04H305.56V76ZM296.32 76.52L301.28 77.64C300.72 79.6933 300.027 81.72 299.2 83.72C298.373 85.72 297.48 87.5867 296.52 89.32C295.56 91.0267 294.56 92.52 293.52 93.8C293.2 93.5067 292.773 93.1867 292.24 92.84C291.733 92.4667 291.2 92.1067 290.64 91.76C290.08 91.4133 289.6 91.1333 289.2 90.92C290.267 89.8 291.24 88.4667 292.12 86.92C293.027 85.3733 293.827 83.7067 294.52 81.92C295.24 80.1333 295.84 78.3333 296.32 76.52ZM40.16 128.68C40.16 129.32 40.3867 129.867 40.84 130.32C41.2933 130.747 41.8267 130.96 42.44 130.96C43.08 130.96 43.6267 130.747 44.08 130.32C44.5333 129.867 44.76 129.32 44.76 128.68C44.76 128.04 44.5333 127.493 44.08 127.04C43.6267 126.587 43.08 126.36 42.44 126.36C41.8267 126.36 41.2933 126.587 40.84 127.04C40.3867 127.493 40.16 128.04 40.16 128.68ZM37.68 128.68C37.68 127.8 37.8933 127 38.32 126.28C38.7733 125.533 39.36 124.947 40.08 124.52C40.8 124.093 41.5867 123.88 42.44 123.88C43.32 123.88 44.12 124.093 44.84 124.52C45.5867 124.947 46.1733 125.533 46.6 126.28C47.0267 127 47.24 127.8 47.24 128.68C47.24 129.533 47.0267 130.32 46.6 131.04C46.1733 131.76 45.5867 132.347 44.84 132.8C44.12 133.227 43.32 133.44 42.44 133.44C41.5867 133.44 40.8 133.227 40.08 132.8C39.36 132.347 38.7733 131.76 38.32 131.04C37.8933 130.32 37.68 129.533 37.68 128.68ZM42.52 131.84C42.3333 132.213 42.1733 132.667 42.04 133.2C41.9067 133.707 41.7733 134.173 41.64 134.6C41.4267 135.587 41.1467 136.693 40.8 137.92C40.4533 139.12 40.04 140.373 39.56 141.68C39.08 142.987 38.5067 144.28 37.84 145.56C37.2 146.84 36.4667 148.04 35.64 149.16C34.44 150.76 33.04 152.253 31.44 153.64C29.84 155.027 28.0533 156.28 26.08 157.4C24.1067 158.52 21.9333 159.467 19.56 160.24L15.2 155.44C17.8667 154.8 20.16 154.013 22.08 153.08C24 152.147 25.6667 151.08 27.08 149.88C28.52 148.68 29.7867 147.4 30.88 146.04C31.76 144.92 32.5067 143.707 33.12 142.4C33.76 141.093 34.28 139.787 34.68 138.48C35.1067 137.147 35.4 135.907 35.56 134.76C35.16 134.76 34.4933 134.76 33.56 134.76C32.6533 134.76 31.5733 134.76 30.32 134.76C29.0933 134.76 27.8 134.76 26.44 134.76C25.1067 134.76 23.8133 134.76 22.56 134.76C21.3067 134.76 20.1733 134.76 19.16 134.76C18.1733 134.76 17.44 134.76 16.96 134.76C16.0267 134.76 15.12 134.773 14.24 134.8C13.3867 134.827 12.7067 134.867 12.2 134.92V129.28C12.6 129.333 13.08 129.387 13.64 129.44C14.2267 129.493 14.8133 129.533 15.4 129.56C16.0133 129.587 16.5333 129.6 16.96 129.6C17.3867 129.6 17.9867 129.6 18.76 129.6C19.56 129.6 20.48 129.6 21.52 129.6C22.56 129.6 23.64 129.6 24.76 129.6C25.9067 129.6 27.04 129.6 28.16 129.6C29.3067 129.6 30.3733 129.6 31.36 129.6C32.3467 129.6 33.2 129.6 33.92 129.6C34.64 129.6 35.16 129.6 35.48 129.6C35.88 129.6 36.36 129.587 36.92 129.56C37.5067 129.533 38.0667 129.44 38.6 129.28L42.52 131.84ZM53.04 129.64C53.8667 129.667 54.64 129.693 55.36 129.72C56.1067 129.72 56.7467 129.72 57.28 129.72C57.7067 129.72 58.36 129.72 59.24 129.72C60.1467 129.72 61.2 129.72 62.4 129.72C63.6 129.72 64.88 129.72 66.24 129.72C67.6 129.72 68.96 129.72 70.32 129.72C71.7067 129.72 73 129.72 74.2 129.72C75.4 129.72 76.44 129.72 77.32 129.72C78.2267 129.72 78.88 129.72 79.28 129.72C79.7867 129.72 80.3867 129.72 81.08 129.72C81.8 129.693 82.52 129.667 83.24 129.64C83.2133 130.253 83.1867 130.907 83.16 131.6C83.16 132.267 83.16 132.907 83.16 133.52C83.16 133.893 83.16 134.48 83.16 135.28C83.16 136.053 83.16 136.987 83.16 138.08C83.16 139.147 83.16 140.293 83.16 141.52C83.16 142.72 83.16 143.933 83.16 145.16C83.16 146.387 83.16 147.547 83.16 148.64C83.16 149.707 83.16 150.64 83.16 151.44C83.16 152.213 83.16 152.773 83.16 153.12C83.16 153.52 83.16 154.027 83.16 154.64C83.1867 155.227 83.2 155.827 83.2 156.44C83.2 157.027 83.2 157.547 83.2 158C83.2267 158.427 83.24 158.653 83.24 158.68H77.72C77.72 158.627 77.72 158.307 77.72 157.72C77.7467 157.107 77.76 156.387 77.76 155.56C77.7867 154.733 77.8 153.96 77.8 153.24C77.8 152.893 77.8 152.307 77.8 151.48C77.8 150.653 77.8 149.68 77.8 148.56C77.8 147.44 77.8 146.253 77.8 145C77.8 143.747 77.8 142.52 77.8 141.32C77.8 140.12 77.8 139.027 77.8 138.04C77.8 137.053 77.8 136.267 77.8 135.68C77.8 135.093 77.8 134.8 77.8 134.8H58.48C58.48 134.8 58.48 135.093 58.48 135.68C58.48 136.267 58.48 137.053 58.48 138.04C58.48 139 58.48 140.093 58.48 141.32C58.48 142.52 58.48 143.747 58.48 145C58.48 146.227 58.48 147.413 58.48 148.56C58.48 149.68 58.48 150.653 58.48 151.48C58.48 152.307 58.48 152.893 58.48 153.24C58.48 153.72 58.48 154.267 58.48 154.88C58.48 155.467 58.48 156.04 58.48 156.6C58.5067 157.16 58.52 157.627 58.52 158C58.52 158.4 58.52 158.627 58.52 158.68H53C53 158.627 53 158.4 53 158C53.0267 157.6 53.04 157.107 53.04 156.52C53.0667 155.933 53.08 155.333 53.08 154.72C53.1067 154.107 53.12 153.56 53.12 153.08C53.12 152.733 53.12 152.173 53.12 151.4C53.12 150.6 53.12 149.653 53.12 148.56C53.12 147.467 53.12 146.32 53.12 145.12C53.12 143.893 53.12 142.667 53.12 141.44C53.12 140.213 53.12 139.067 53.12 138C53.12 136.907 53.12 135.973 53.12 135.2C53.12 134.427 53.12 133.867 53.12 133.52C53.12 132.96 53.12 132.32 53.12 131.6C53.12 130.853 53.0933 130.2 53.04 129.64ZM79.8 151.4V156.52H55.76V151.4H79.8ZM119.16 125.24C119.507 125.72 119.867 126.293 120.24 126.96C120.64 127.627 121.027 128.293 121.4 128.96C121.773 129.627 122.08 130.213 122.32 130.72L119.12 132.08C118.72 131.253 118.227 130.32 117.64 129.28C117.08 128.213 116.533 127.293 116 126.52L119.16 125.24ZM123.88 123.44C124.227 123.92 124.6 124.507 125 125.2C125.427 125.867 125.827 126.533 126.2 127.2C126.6 127.84 126.907 128.4 127.12 128.88L123.96 130.24C123.533 129.387 123.027 128.44 122.44 127.4C121.853 126.36 121.28 125.467 120.72 124.72L123.88 123.44ZM122.76 134.04C122.52 134.413 122.28 134.867 122.04 135.4C121.8 135.907 121.6 136.413 121.44 136.92C121.093 138.093 120.6 139.44 119.96 140.96C119.32 142.453 118.547 144 117.64 145.6C116.733 147.2 115.667 148.76 114.44 150.28C112.547 152.573 110.32 154.653 107.76 156.52C105.227 158.387 102.08 160.067 98.32 161.56L93.6 157.32C96.32 156.493 98.6667 155.573 100.64 154.56C102.613 153.52 104.333 152.4 105.8 151.2C107.267 150 108.573 148.733 109.72 147.4C110.627 146.36 111.467 145.187 112.24 143.88C113.04 142.573 113.707 141.267 114.24 139.96C114.8 138.653 115.187 137.507 115.4 136.52H101.92L103.76 132C104.107 132 104.68 132 105.48 132C106.28 132 107.173 132 108.16 132C109.147 132 110.12 132 111.08 132C112.067 132 112.933 132 113.68 132C114.427 132 114.92 132 115.16 132C115.8 132 116.427 131.96 117.04 131.88C117.68 131.773 118.213 131.653 118.64 131.52L122.76 134.04ZM109.72 127.72C109.24 128.413 108.773 129.16 108.32 129.96C107.867 130.76 107.52 131.373 107.28 131.8C106.373 133.4 105.253 135.067 103.92 136.8C102.587 138.507 101.08 140.173 99.4 141.8C97.7467 143.4 95.96 144.867 94.04 146.2L89.56 142.84C91.32 141.773 92.8667 140.667 94.2 139.52C95.5333 138.373 96.6933 137.24 97.68 136.12C98.6667 134.973 99.52 133.88 100.24 132.84C100.96 131.773 101.56 130.813 102.04 129.96C102.36 129.48 102.693 128.84 103.04 128.04C103.413 127.213 103.68 126.467 103.84 125.8L109.72 127.72ZM136.92 127.32C137.48 127.4 138.147 127.453 138.92 127.48C139.693 127.507 140.413 127.52 141.08 127.52C141.587 127.52 142.36 127.52 143.4 127.52C144.467 127.52 145.64 127.52 146.92 127.52C148.227 127.52 149.52 127.52 150.8 127.52C152.08 127.52 153.227 127.52 154.24 127.52C155.253 127.52 156 127.52 156.48 127.52C157.093 127.52 157.827 127.507 158.68 127.48C159.533 127.453 160.24 127.4 160.8 127.32V132.48C160.267 132.427 159.573 132.4 158.72 132.4C157.893 132.373 157.12 132.36 156.4 132.36C155.973 132.36 155.24 132.36 154.2 132.36C153.187 132.36 152.027 132.36 150.72 132.36C149.44 132.36 148.147 132.36 146.84 132.36C145.56 132.36 144.4 132.36 143.36 132.36C142.32 132.36 141.56 132.36 141.08 132.36C140.44 132.36 139.733 132.373 138.96 132.4C138.213 132.427 137.533 132.453 136.92 132.48V127.32ZM164.16 138.92C164.027 139.187 163.88 139.48 163.72 139.8C163.587 140.12 163.48 140.387 163.4 140.6C162.787 142.52 162.013 144.44 161.08 146.36C160.173 148.253 158.973 150.027 157.48 151.68C155.48 153.92 153.24 155.747 150.76 157.16C148.28 158.547 145.76 159.6 143.2 160.32L139.24 155.8C142.253 155.16 144.933 154.227 147.28 153C149.627 151.773 151.56 150.373 153.08 148.8C154.147 147.707 155 146.56 155.64 145.36C156.307 144.133 156.827 142.973 157.2 141.88C156.907 141.88 156.4 141.88 155.68 141.88C154.96 141.88 154.093 141.88 153.08 141.88C152.093 141.88 151.027 141.88 149.88 141.88C148.733 141.88 147.56 141.88 146.36 141.88C145.16 141.88 144.013 141.88 142.92 141.88C141.827 141.88 140.84 141.88 139.96 141.88C139.107 141.88 138.413 141.88 137.88 141.88C137.4 141.88 136.72 141.893 135.84 141.92C134.96 141.947 134.093 142 133.24 142.08V136.88C134.093 136.933 134.92 136.987 135.72 137.04C136.547 137.093 137.267 137.12 137.88 137.12C138.28 137.12 138.88 137.12 139.68 137.12C140.507 137.12 141.453 137.12 142.52 137.12C143.587 137.12 144.72 137.12 145.92 137.12C147.147 137.12 148.36 137.12 149.56 137.12C150.787 137.12 151.947 137.12 153.04 137.12C154.133 137.12 155.08 137.12 155.88 137.12C156.68 137.12 157.28 137.12 157.68 137.12C158.32 137.12 158.893 137.08 159.4 137C159.933 136.92 160.333 136.827 160.6 136.72L164.16 138.92ZM188.989 127.84C188.722 128.427 188.442 129.093 188.149 129.84C187.856 130.56 187.562 131.373 187.269 132.28C187.029 133.027 186.722 133.987 186.349 135.16C185.976 136.307 185.562 137.573 185.109 138.96C184.656 140.32 184.176 141.733 183.669 143.2C183.189 144.64 182.722 146.04 182.269 147.4C181.816 148.76 181.389 150 180.989 151.12C180.589 152.213 180.242 153.107 179.949 153.8L174.029 154C174.402 153.147 174.816 152.107 175.269 150.88C175.722 149.653 176.202 148.32 176.709 146.88C177.216 145.413 177.709 143.92 178.189 142.4C178.696 140.88 179.162 139.413 179.589 138C180.042 136.587 180.442 135.28 180.789 134.08C181.162 132.88 181.456 131.907 181.669 131.16C181.936 130.12 182.136 129.267 182.269 128.6C182.429 127.907 182.549 127.213 182.629 126.52L188.989 127.84ZM196.149 140.76C196.869 141.827 197.642 143.08 198.469 144.52C199.296 145.96 200.109 147.467 200.909 149.04C201.736 150.587 202.496 152.08 203.189 153.52C203.882 154.96 204.456 156.253 204.909 157.4L199.509 159.8C199.056 158.573 198.496 157.187 197.829 155.64C197.189 154.093 196.482 152.52 195.709 150.92C194.962 149.32 194.189 147.813 193.389 146.4C192.616 144.96 191.869 143.76 191.149 142.8L196.149 140.76ZM173.669 152.24C174.576 152.187 175.669 152.12 176.949 152.04C178.256 151.933 179.656 151.813 181.149 151.68C182.642 151.52 184.162 151.36 185.709 151.2C187.282 151.04 188.816 150.88 190.309 150.72C191.829 150.533 193.242 150.36 194.549 150.2C195.856 150.04 196.962 149.893 197.869 149.76L199.069 154.88C198.082 155.013 196.896 155.16 195.509 155.32C194.149 155.48 192.682 155.653 191.109 155.84C189.536 156 187.936 156.173 186.309 156.36C184.682 156.547 183.096 156.72 181.549 156.88C180.002 157.04 178.576 157.187 177.269 157.32C175.962 157.427 174.856 157.533 173.949 157.64C173.442 157.693 172.842 157.773 172.149 157.88C171.482 157.96 170.829 158.04 170.189 158.12L169.269 152.28C169.936 152.28 170.669 152.28 171.469 152.28C172.296 152.28 173.029 152.267 173.669 152.24Z" fill="white"/>
<defs>
<radialGradient id="paint0_radial_133_380" cx="0" cy="0" r="1" gradientUnits="userSpaceOnUse" gradientTransform="translate(167.5 118) scale(167.5 204.9)">
<stop stop-color="#194299"/>
<stop offset="1" stop-color="#40ACE0"/>
</radialGradient>
</defs>
</svg>
