<?xml version="1.0" encoding="UTF-8"?>
<svg id="Layer_1" xmlns="http://www.w3.org/2000/svg" version="1.1" viewBox="0 0 1000 1000">
  <!-- Generator: Adobe Illustrator 29.3.1, SVG Export Plug-In . SVG Version: 2.1.0 Build 151)  -->
  <defs>
    <style>
      .st0 {
        fill: #fff;
      }
    </style>
  </defs>
  <path class="st0" d="M979.1,259.3c-11.5-43-45.4-76.9-88.4-88.4-78-20.9-390.7-20.9-390.7-20.9,0,0-312.7,0-390.7,20.9-43,11.5-76.9,45.4-88.4,88.4C0,337.3,0,500,0,500,0,500,0,662.7,20.9,740.7c11.5,43,45.4,76.9,88.4,88.4,78,20.9,390.7,20.9,390.7,20.9,0,0,312.7,0,390.7-20.9,43-11.5,76.9-45.4,88.4-88.4,20.9-78,20.9-240.7,20.9-240.7,0,0,0-162.7-20.9-240.7ZM400,650v-300l259.8,150-259.8,150Z"/>
</svg>