<?xml version="1.0" encoding="UTF-8"?>
<svg id="Layer_1" data-name="Layer 1" xmlns="http://www.w3.org/2000/svg" viewBox="0 0 39.69 39.69">
  <path class="c-link -svg" d="M.96,6.87h37.81c.5,0,.92.41.92.92v24.06c0,.55-.41.96-.92.96H.96C.41,32.81,0,32.4,0,31.85V7.79C0,7.29.41,6.87.96,6.87h0ZM25.07,22.59c-.46-.32-.5-.92-.18-1.33.32-.41.87-.5,1.28-.18l11.64,8.89V9.53l-17.41,11.04c-.28.23-.73.27-1.05.05L1.88,9.44v20.62l11.82-8.98c.41-.32,1.01-.23,1.33.18s.23,1.01-.18,1.33L3.85,30.93h32.12l-10.91-8.34ZM4.31,8.75l15.53,9.94,15.67-9.94H4.31Z"/>
</svg>