<svg width="150" height="17" viewBox="0 0 150 17" fill="none" xmlns="http://www.w3.org/2000/svg">
<rect width="149.68" height="16.43" rx="3" fill="white"/>
<path d="M68.65 5.01C68.55 5.14 68.36 5.38 68.27 5.52C67.8 6.3 66.85 7.57 65.86 8.27L64.82 7.44C65.63 6.95 66.41 6.07 66.67 5.58C66.06 5.58 62.08 5.58 61.45 5.58C61.04 5.58 60.7 5.6 60.23 5.65V4.25C60.62 4.31 61.04 4.36 61.45 4.36C62.08 4.36 66.32 4.36 66.84 4.36C67.12 4.36 67.67 4.32 67.86 4.27L68.65 5.01ZM64.58 6.35C64.58 8.83 64.52 10.87 61.8 12.34L60.63 11.39C60.96 11.28 61.32 11.11 61.69 10.83C62.95 9.95 63.19 8.9 63.19 7.26C63.19 6.94 63.18 6.68 63.13 6.35H64.58Z" fill="#6D84A5"/>
<path d="M55.33 5.64961C55.33 5.99961 55.62 6.28961 55.97 6.28961C56.32 6.28961 56.6 5.99961 56.6 5.64961C56.6 5.29961 56.32 5.01961 55.97 5.01961C55.62 5.01961 55.33 5.29961 55.33 5.64961ZM54.67 5.64961C54.67 4.92961 55.25 4.34961 55.97 4.34961C56.69 4.34961 57.27 4.92961 57.27 5.64961C57.27 6.36961 56.69 6.94961 55.97 6.94961C55.25 6.94961 54.67 6.36961 54.67 5.64961ZM48.46 8.92961C48.75 8.67961 48.97 8.46961 49.28 8.15961C49.73 7.70961 50.51 6.72961 51.2 5.90961C51.8 5.19961 52.39 5.08961 53.16 5.81961C53.84 6.45961 54.6 7.24961 55.2 7.89961C55.87 8.61961 56.9 9.71961 57.67 10.5396L56.56 11.7296C55.89 10.8996 55.05 9.85961 54.46 9.16961C53.87 8.47961 52.99 7.50961 52.63 7.13961C52.3 6.81961 52.09 6.83961 51.81 7.19961C51.41 7.70961 50.71 8.68961 50.3 9.23961C50.07 9.54961 49.84 9.90961 49.66 10.1696L48.46 8.92961Z" fill="#6D84A5"/>
<path d="M45.13 4.00977C45.11 4.28977 45.1 4.60977 45.1 5.01977C45.1 5.52977 45.1 6.49977 45.1 6.98977C45.1 9.14977 44.68 10.0698 43.93 10.8898C43.27 11.6198 42.24 12.0998 41.51 12.3398L40.46 11.2298C41.46 10.9998 42.26 10.6198 42.87 9.96977C43.55 9.21977 43.69 8.46977 43.69 6.90977C43.69 6.40977 43.69 5.44977 43.69 5.01977C43.69 4.60977 43.66 4.28977 43.62 4.00977H45.13ZM40.5 4.09977C40.48 4.32977 40.46 4.54977 40.46 4.85977C40.46 5.29977 40.46 7.67977 40.46 8.23977C40.46 8.48977 40.48 8.87977 40.5 9.10977H39.04C39.06 8.92977 39.09 8.53977 39.09 8.22977C39.09 7.65977 39.09 5.29977 39.09 4.85977C39.09 4.67977 39.08 4.32977 39.05 4.09977H40.5Z" fill="#6D84A5"/>
<path d="M27.02 7.13867C27.39 7.16867 28.11 7.20867 28.63 7.20867C29.81 7.20867 33.11 7.20867 34 7.20867C34.47 7.20867 34.91 7.15867 35.18 7.13867V8.71867C34.94 8.70867 34.43 8.65867 34.01 8.65867C33.1 8.65867 29.81 8.65867 28.63 8.65867C28.07 8.65867 27.4 8.68867 27.02 8.71867V7.13867Z" fill="#6D84A5"/>
<path d="M20.8802 3.60938C20.8402 3.83938 20.8102 4.21937 20.8102 4.52938C20.8102 4.82938 20.8102 5.33938 20.8102 5.63938H19.5002C19.5002 5.33938 19.5002 4.87938 19.5002 4.52938C19.5002 4.20938 19.4902 3.84937 19.4502 3.60938H20.8802ZM23.6702 5.74937C23.4202 6.00938 23.1102 6.33937 22.9002 6.57937C22.3402 7.21938 21.5002 8.04938 20.5902 8.68937C19.5102 9.45938 17.9802 10.1194 16.4302 10.5894L15.6602 9.40938C17.5902 8.97938 18.8702 8.28938 19.7302 7.72938C20.5002 7.23938 21.1202 6.64938 21.4202 6.23938C20.8802 6.23938 18.2202 6.23938 17.8002 6.23938C17.4402 6.23938 16.8102 6.25938 16.4902 6.28937V4.97938C16.8702 5.02938 17.4302 5.03938 17.7702 5.03938C18.2202 5.03938 21.4202 5.03938 22.0102 5.03938C22.3202 5.03938 22.6102 5.00937 22.8402 4.94938L23.6702 5.74937ZM20.7902 7.92938C20.7902 8.64938 20.7902 10.2594 20.7902 11.0694C20.7902 11.4594 20.8202 12.0294 20.8502 12.3394H19.4202C19.4502 12.0594 19.4902 11.4594 19.4902 11.0694C19.4902 10.2994 19.4902 9.06938 19.4902 8.46938L20.7902 7.92938ZM23.8202 10.6794C22.9502 9.99938 22.2902 9.57937 21.4302 9.08938L22.2502 8.13938C23.1702 8.62938 23.6902 8.92938 24.6502 9.57938L23.8202 10.6794Z" fill="#6D84A5"/>
<path d="M13.63 5.47016C13.49 5.63016 13.37 5.77016 13.29 5.89016C12.51 7.18016 11.03 8.98016 9.48 10.1202L8.48 9.20016C9.8 8.28016 10.92 6.92016 11.44 6.00016C10.56 6.00016 6.92 6.00016 6.16 6.00016C5.75 6.00016 5.21 6.05016 5 6.08016V4.67016C5.27 4.72016 5.81 4.77016 6.16 4.77016C6.79 4.77016 10.63 4.77016 11.7 4.77016C12.09 4.77016 12.42 4.73016 12.64 4.66016L13.63 5.47016ZM8.36 10.2702C7.77 9.68016 6.75 8.77016 6.16 8.35016L7.21 7.49016C7.75 7.90016 8.75 8.71016 9.51 9.44016C10.17 10.0802 10.96 10.9102 11.44 11.4902L10.26 12.4302C9.85 11.8702 9.01 10.9302 8.36 10.2702Z" fill="#6D84A5"/>
<path d="M74.6499 3.42969L74.6499 12.4297" stroke="#6D84A5" stroke-linecap="round"/>
<path d="M140.5 6.8693H143.56V7.8193H140.5V6.8693ZM139.91 3.4193H143.59V4.4693H140.99V12.3893H139.91V3.4193ZM142.98 3.4193H144.09V5.3093C144.09 5.8193 143.99 6.1193 143.6 6.2793C143.21 6.4393 142.67 6.4493 141.93 6.4493C141.89 6.1393 141.74 5.7093 141.6 5.4193C142.09 5.4393 142.64 5.4393 142.78 5.4393C142.94 5.4293 142.98 5.3993 142.98 5.2893V3.4193ZM141.76 7.5693C142.26 9.2293 143.27 10.7393 144.68 11.4493C144.42 11.6693 144.07 12.0993 143.89 12.3993C142.41 11.5093 141.43 9.7993 140.86 7.7993L141.76 7.5693ZM143.21 6.8693H143.42L143.61 6.8193L144.33 7.0793C143.97 9.3593 143.05 11.2993 141.55 12.4093C141.37 12.1393 141.02 11.7893 140.76 11.5893C142.13 10.6393 142.96 8.9093 143.21 7.0993V6.8693ZM135.51 3.8893H139.35V4.8793H135.51V3.8893ZM135.44 9.5293H139.46V10.5393H135.44V9.5293ZM135.15 5.5693H139.72V6.5793H135.15V5.5693ZM135.35 7.7393H139.57V8.7493H135.35V7.7393ZM136.93 3.0293H138.04V5.9493H136.93V3.0293ZM136.93 8.1593H138.04V12.3593H136.93V8.1593ZM138.29 6.4293L139.28 6.6693C139.08 7.1293 138.91 7.5793 138.75 7.8893L137.9 7.6493C138.04 7.3093 138.21 6.7893 138.29 6.4293ZM135.78 6.6693L136.67 6.4493C136.86 6.8193 137.04 7.3393 137.08 7.6493L136.14 7.9093C136.1 7.5893 135.95 7.0693 135.78 6.6693Z" fill="#6D84A5"/>
<path d="M128.47 8.76H131.93V9.61H128.47V8.76ZM127.24 3.68H133.21V4.54H127.24V3.68ZM127.51 4.94H132.93V5.75H127.51V4.94ZM126.93 6.17H133.52V7.03H126.93V6.17ZM128.48 10.06H131.95V10.89H128.48V10.06ZM127.6 7.42H131.88V8.29H128.71V12.4H127.6V7.42ZM131.71 7.42H132.84V11.24C132.84 11.76 132.74 12.05 132.38 12.21C132.02 12.38 131.53 12.39 130.83 12.39C130.79 12.09 130.64 11.65 130.51 11.37C130.91 11.39 131.39 11.39 131.53 11.38C131.66 11.38 131.71 11.34 131.71 11.22V7.42ZM129.59 3H130.78V6.45H129.59V3ZM125.29 3H126.37V12.39H125.29V3ZM124.43 4.98L125.27 5.08C125.25 5.92 125.09 7.12 124.89 7.9L124.01 7.6C124.23 6.91 124.37 5.79 124.43 4.98ZM126.21 4.67L126.95 4.36C127.16 4.82 127.42 5.43 127.53 5.8L126.75 6.17C126.65 5.78 126.41 5.15 126.21 4.67Z" fill="#6D84A5"/>
<path d="M117.37 3.52094C117.27 3.88094 117.21 4.22094 117.13 4.54094C116.97 5.34094 116.67 6.81094 116.37 7.74094C117.18 7.30094 117.96 7.12094 118.86 7.12094C120.47 7.12094 121.55 7.97094 121.55 9.26094C121.55 11.5009 119.38 12.3209 116.14 11.9709L115.79 10.6809C117.99 11.0309 120.2 10.7709 120.2 9.29094C120.2 8.70094 119.68 8.19094 118.7 8.19094C117.55 8.19094 116.53 8.61094 115.94 9.37094C115.83 9.51094 115.75 9.63094 115.66 9.80094L114.48 9.39094C115.22 7.93094 115.78 5.50094 115.91 4.47094C115.96 4.05094 115.97 3.79094 115.95 3.46094L117.37 3.52094ZM113.88 4.69094C114.53 4.80094 115.33 4.88094 115.95 4.88094C117.23 4.88094 119.13 4.73094 120.77 4.38094L120.8 5.58094C119.53 5.79094 117.41 6.03094 115.96 6.03094C115.2 6.03094 114.48 5.99094 113.89 5.93094L113.88 4.69094Z" fill="#6D84A5"/>
<path d="M102.63 4.75H111.11V5.93H102.63V4.75ZM102.3 10.8H111.41V12H102.3V10.8ZM106.2 3H107.46V5.41H106.2V3ZM108.46 6.28L109.84 6.52C109.45 8.17 108.91 10 108.44 11.18L107.27 10.92C107.74 9.7 108.23 7.76 108.46 6.28ZM103.92 6.61L105.06 6.31C105.54 7.55 105.91 9.1 106.01 10.16L104.78 10.49C104.71 9.45 104.35 7.83 103.92 6.61Z" fill="#6D84A5"/>
<path d="M95.87 3.34977H98.46V4.39977H95.87V3.34977ZM94.63 7.31977H99.1V8.40977H94.63V7.31977ZM97.76 3.34977H98.96V5.52977C98.96 5.70977 98.96 5.79977 98.99 5.83977C99.02 5.86977 99.07 5.87977 99.13 5.87977C99.18 5.87977 99.28 5.87977 99.35 5.87977C99.4 5.87977 99.46 5.86977 99.5 5.84977C99.54 5.82977 99.58 5.76977 99.6 5.62977C99.62 5.48977 99.63 5.17977 99.64 4.78977C99.84 4.97977 100.24 5.16977 100.54 5.26977C100.51 5.68977 100.47 6.15977 100.39 6.35977C100.31 6.55977 100.19 6.68977 100 6.77977C99.85 6.85977 99.58 6.90977 99.4 6.90977C99.21 6.90977 98.95 6.90977 98.79 6.90977C98.52 6.90977 98.21 6.81977 98.03 6.64977C97.84 6.45977 97.76 6.23977 97.76 5.56977V3.34977ZM98.68 7.31977H98.91L99.13 7.27977L99.94 7.62977C99.11 10.2598 97.16 11.6898 94.73 12.4198C94.59 12.1198 94.3 11.6498 94.07 11.4098C96.22 10.8798 98.04 9.53977 98.68 7.51977V7.31977ZM96.22 8.34977C96.95 9.87977 98.48 10.9498 100.66 11.3598C100.39 11.6098 100.05 12.0998 99.88 12.4298C97.57 11.8798 96.07 10.6098 95.15 8.66977L96.22 8.34977ZM95.31 3.34977H96.47V4.40977C96.47 5.34977 96.28 6.50977 95.3 7.24977C95.09 7.04977 94.57 6.70977 94.3 6.57977C95.2 5.93977 95.31 5.06977 95.31 4.38977V3.34977ZM93.55 5.11977L94.62 5.54977C93.88 6.77977 92.7 8.07977 91.65 8.88977C91.54 8.62977 91.21 8.00977 91.02 7.74977C91.94 7.10977 92.95 6.10977 93.55 5.11977ZM93.24 3.00977L94.38 3.46977C93.7 4.39977 92.67 5.39977 91.71 6.00977C91.59 5.73977 91.3 5.24977 91.12 4.99977C91.91 4.50977 92.81 3.67977 93.24 3.00977ZM92.53 7.43977L93.64 6.32977L93.7 6.35977V12.3898H92.53V7.43977Z" fill="#6D84A5"/>
<path d="M84.2099 3.36914C84.1699 3.55914 84.1299 3.98914 84.1199 4.23914C84.0699 5.02914 84.0399 6.10914 84.0399 7.03914C84.0399 8.12914 84.0999 9.85914 84.0999 10.4391C84.0999 11.6691 83.6599 12.0091 82.9999 12.0091C82.0299 12.0091 80.6499 11.1691 80.6499 10.1091C80.6499 9.13914 81.8999 8.11914 83.2899 7.62914C84.1799 7.30914 85.1899 7.14914 85.9499 7.14914C87.4899 7.14914 88.7099 7.94914 88.7099 9.32914C88.7099 10.5191 88.0899 11.4091 86.4999 11.7991C86.0399 11.8991 85.5899 11.9291 85.1799 11.9691L84.7299 10.6691C85.1699 10.6691 85.6099 10.6691 85.9499 10.5991C86.7599 10.4591 87.4099 10.0491 87.4099 9.32914C87.4099 8.63914 86.8099 8.24914 85.9399 8.24914C85.0899 8.24914 84.2099 8.42914 83.4299 8.73914C82.5299 9.07914 81.8899 9.61914 81.8899 10.0491C81.8899 10.3691 82.3599 10.6391 82.6199 10.6391C82.7999 10.6391 82.9299 10.5591 82.9299 10.2091C82.9299 9.68914 82.8799 8.29914 82.8799 7.08914C82.8799 5.94914 82.8899 4.70914 82.8899 4.24914C82.8899 4.04914 82.8599 3.54914 82.8299 3.36914H84.2099ZM87.0599 4.45914C87.8199 4.82914 88.9799 5.47914 89.5199 5.85914L88.9099 6.87914C88.4299 6.47914 87.1299 5.72914 86.5099 5.42914L87.0599 4.45914ZM80.9199 5.00914C81.5099 5.07914 81.9399 5.07914 82.2999 5.07914C83.3399 5.07914 84.8999 4.88914 85.9299 4.58914L85.9599 5.82914C84.8299 6.08914 83.2199 6.26914 82.3399 6.26914C81.6799 6.26914 81.2899 6.25914 80.9499 6.21914L80.9199 5.00914Z" fill="#6D84A5"/>
</svg>
