<svg width="183" height="16" viewBox="0 0 183 16" fill="none" xmlns="http://www.w3.org/2000/svg">
<rect width="182.52" height="15.51" rx="3" fill="white"/>
<path d="M68.65 5.09008C68.55 5.22008 68.36 5.46008 68.27 5.60008C67.8 6.38008 66.85 7.65008 65.86 8.35008L64.82 7.52008C65.63 7.03008 66.41 6.15008 66.67 5.66008C66.06 5.66008 62.08 5.66008 61.45 5.66008C61.04 5.66008 60.7 5.68008 60.23 5.73008V4.33008C60.62 4.39008 61.04 4.44008 61.45 4.44008C62.08 4.44008 66.32 4.44008 66.84 4.44008C67.12 4.44008 67.67 4.40008 67.86 4.35008L68.65 5.09008ZM64.58 6.43008C64.58 8.91008 64.52 10.9501 61.8 12.4201L60.63 11.4701C60.96 11.3601 61.32 11.1901 61.69 10.9101C62.95 10.0301 63.19 8.98008 63.19 7.34008C63.19 7.02008 63.18 6.76008 63.13 6.43008H64.58Z" fill="#6D84A5"/>
<path d="M55.33 5.72969C55.33 6.07969 55.62 6.36969 55.97 6.36969C56.32 6.36969 56.6 6.07969 56.6 5.72969C56.6 5.37969 56.32 5.09969 55.97 5.09969C55.62 5.09969 55.33 5.37969 55.33 5.72969ZM54.67 5.72969C54.67 5.00969 55.25 4.42969 55.97 4.42969C56.69 4.42969 57.27 5.00969 57.27 5.72969C57.27 6.44969 56.69 7.02969 55.97 7.02969C55.25 7.02969 54.67 6.44969 54.67 5.72969ZM48.46 9.00969C48.75 8.75969 48.97 8.54969 49.28 8.23969C49.73 7.78969 50.51 6.80969 51.2 5.98969C51.8 5.27969 52.39 5.16969 53.16 5.89969C53.84 6.53969 54.6 7.32969 55.2 7.97969C55.87 8.69969 56.9 9.79969 57.67 10.6197L56.56 11.8097C55.89 10.9797 55.05 9.93969 54.46 9.24969C53.87 8.55969 52.99 7.58969 52.63 7.21969C52.3 6.89969 52.09 6.91969 51.81 7.27969C51.41 7.78969 50.71 8.76969 50.3 9.31969C50.07 9.62969 49.84 9.98969 49.66 10.2497L48.46 9.00969Z" fill="#6D84A5"/>
<path d="M45.13 4.08984C45.11 4.36984 45.1 4.68984 45.1 5.09984C45.1 5.60984 45.1 6.57984 45.1 7.06984C45.1 9.22984 44.68 10.1498 43.93 10.9698C43.27 11.6998 42.24 12.1798 41.51 12.4198L40.46 11.3098C41.46 11.0798 42.26 10.6998 42.87 10.0498C43.55 9.29984 43.69 8.54984 43.69 6.98984C43.69 6.48984 43.69 5.52984 43.69 5.09984C43.69 4.68984 43.66 4.36984 43.62 4.08984H45.13ZM40.5 4.17984C40.48 4.40984 40.46 4.62984 40.46 4.93984C40.46 5.37984 40.46 7.75984 40.46 8.31984C40.46 8.56984 40.48 8.95984 40.5 9.18984H39.04C39.06 9.00984 39.09 8.61984 39.09 8.30984C39.09 7.73984 39.09 5.37984 39.09 4.93984C39.09 4.75984 39.08 4.40984 39.05 4.17984H40.5Z" fill="#6D84A5"/>
<path d="M27.02 7.21875C27.39 7.24875 28.11 7.28875 28.63 7.28875C29.81 7.28875 33.11 7.28875 34 7.28875C34.47 7.28875 34.91 7.23875 35.18 7.21875V8.79875C34.94 8.78875 34.43 8.73875 34.01 8.73875C33.1 8.73875 29.81 8.73875 28.63 8.73875C28.07 8.73875 27.4 8.76875 27.02 8.79875V7.21875Z" fill="#6D84A5"/>
<path d="M20.8802 3.68945C20.8402 3.91945 20.8102 4.29945 20.8102 4.60945C20.8102 4.90945 20.8102 5.41945 20.8102 5.71945H19.5002C19.5002 5.41945 19.5002 4.95945 19.5002 4.60945C19.5002 4.28945 19.4902 3.92945 19.4502 3.68945H20.8802ZM23.6702 5.82945C23.4202 6.08945 23.1102 6.41945 22.9002 6.65945C22.3402 7.29945 21.5002 8.12945 20.5902 8.76945C19.5102 9.53945 17.9802 10.1995 16.4302 10.6695L15.6602 9.48945C17.5902 9.05945 18.8702 8.36945 19.7302 7.80945C20.5002 7.31945 21.1202 6.72945 21.4202 6.31945C20.8802 6.31945 18.2202 6.31945 17.8002 6.31945C17.4402 6.31945 16.8102 6.33945 16.4902 6.36945V5.05945C16.8702 5.10945 17.4302 5.11945 17.7702 5.11945C18.2202 5.11945 21.4202 5.11945 22.0102 5.11945C22.3202 5.11945 22.6102 5.08945 22.8402 5.02945L23.6702 5.82945ZM20.7902 8.00945C20.7902 8.72945 20.7902 10.3395 20.7902 11.1495C20.7902 11.5395 20.8202 12.1095 20.8502 12.4195H19.4202C19.4502 12.1395 19.4902 11.5395 19.4902 11.1495C19.4902 10.3795 19.4902 9.14945 19.4902 8.54945L20.7902 8.00945ZM23.8202 10.7595C22.9502 10.0795 22.2902 9.65945 21.4302 9.16945L22.2502 8.21945C23.1702 8.70945 23.6902 9.00945 24.6502 9.65945L23.8202 10.7595Z" fill="#6D84A5"/>
<path d="M13.63 5.55023C13.49 5.71023 13.37 5.85023 13.29 5.97023C12.51 7.26023 11.03 9.06023 9.48 10.2002L8.48 9.28023C9.8 8.36023 10.92 7.00023 11.44 6.08023C10.56 6.08023 6.92 6.08023 6.16 6.08023C5.75 6.08023 5.21 6.13023 5 6.16023V4.75023C5.27 4.80023 5.81 4.85023 6.16 4.85023C6.79 4.85023 10.63 4.85023 11.7 4.85023C12.09 4.85023 12.42 4.81023 12.64 4.74023L13.63 5.55023ZM8.36 10.3502C7.77 9.76023 6.75 8.85023 6.16 8.43023L7.21 7.57023C7.75 7.98023 8.75 8.79023 9.51 9.52023C10.17 10.1602 10.96 10.9902 11.44 11.5702L10.26 12.5102C9.85 11.9502 9.01 11.0102 8.36 10.3502Z" fill="#6D84A5"/>
<path d="M74.6499 3.50977L74.6499 12.5098" stroke="#6D84A5" stroke-linecap="round"/>
<path d="M169.36 6.91992C169.73 6.94992 170.45 6.98992 170.97 6.98992C172.15 6.98992 175.45 6.98992 176.34 6.98992C176.81 6.98992 177.25 6.93992 177.52 6.91992V8.49992C177.28 8.48992 176.77 8.43992 176.35 8.43992C175.44 8.43992 172.15 8.43992 170.97 8.43992C170.41 8.43992 169.74 8.46992 169.36 8.49992V6.91992Z" fill="#6D84A5"/>
<path d="M165.03 6.79031C164.99 6.92031 164.95 7.10031 164.94 7.21031C164.84 7.91031 164.5 10.1803 164.38 10.9003H163C163.13 10.2403 163.43 8.31031 163.48 7.64031C163 7.64031 161.06 7.64031 160.77 7.64031C160.46 7.64031 160.06 7.66031 159.77 7.68031V6.36031C160.04 6.40031 160.5 6.43031 160.76 6.43031C161.27 6.43031 162.85 6.43031 163.33 6.43031C163.53 6.43031 163.94 6.39031 164.07 6.32031L165.03 6.79031ZM158.86 10.4103C159.12 10.4403 159.5 10.4703 159.84 10.4703C160.44 10.4703 164.6 10.4703 165.09 10.4703C165.34 10.4703 165.81 10.4503 166.07 10.4203V11.7103C165.86 11.7003 165.37 11.6903 165.11 11.6903C164.59 11.6903 160.35 11.6903 159.84 11.6903C159.49 11.6903 159.23 11.7003 158.86 11.7203V10.4103Z" fill="#6D84A5"/>
<path d="M153.83 3.45C154.08 3.82 154.43 4.45 154.62 4.82L153.82 5.17C153.61 4.76 153.31 4.17 153.04 3.78L153.83 3.45ZM155.01 3C155.27 3.38 155.64 4.01 155.82 4.36L155.02 4.71C154.82 4.29 154.49 3.71 154.22 3.33L155.01 3ZM149.51 3.89C149.47 4.19 149.44 4.64 149.44 4.93C149.44 5.54 149.44 9.22 149.44 9.97C149.44 10.41 149.64 10.52 150.09 10.6C150.39 10.65 150.8 10.66 151.24 10.66C152.29 10.66 153.9 10.54 154.73 10.32V11.78C153.78 11.92 152.27 11.98 151.17 11.98C150.52 11.98 149.91 11.94 149.48 11.87C148.62 11.71 148.11 11.24 148.11 10.37C148.11 9.22 148.11 5.55 148.11 4.93C148.11 4.7 148.08 4.19 148.04 3.89H149.51ZM148.85 6.96C150.14 6.68 151.85 6.14 152.9 5.71C153.25 5.56 153.59 5.4 153.99 5.17L154.52 6.43C154.14 6.59 153.69 6.78 153.36 6.91C152.18 7.36 150.22 7.95 148.86 8.27L148.85 6.96Z" fill="#6D84A5"/>
<path d="M139.73 6.86969C140.96 7.57969 142.81 8.85969 143.74 9.59969L142.78 10.7397C141.91 9.91969 140.01 8.51969 138.84 7.77969L139.73 6.86969ZM144.44 5.16969C144.32 5.35969 144.19 5.63969 144.1 5.88969C143.8 6.80969 143.19 8.08969 142.29 9.19969C141.35 10.3697 140.07 11.4897 138.16 12.2097L137 11.2097C139.09 10.5597 140.28 9.50969 141.14 8.50969C141.81 7.71969 142.43 6.56969 142.62 5.78969H139.24L139.7 4.65969H142.55C142.86 4.65969 143.19 4.60969 143.42 4.53969L144.44 5.16969ZM141.13 3.62969C140.89 3.97969 140.63 4.43969 140.51 4.64969C139.84 5.85969 138.56 7.38969 137.12 8.37969L136.05 7.54969C137.8 6.46969 138.72 5.09969 139.23 4.22969C139.38 3.98969 139.59 3.52969 139.68 3.17969L141.13 3.62969Z" fill="#6D84A5"/>
<path d="M126.86 3.94922C127.55 4.41922 128.85 5.45922 129.44 6.06922L128.42 7.10922C127.9 6.54922 126.64 5.45922 125.91 4.95922L126.86 3.94922ZM125.6 10.6092C127.17 10.3892 128.46 9.87922 129.43 9.30922C131.14 8.28922 132.44 6.76922 133.08 5.41922L133.85 6.81922C133.1 8.17922 131.77 9.55922 130.16 10.5292C129.14 11.1392 127.85 11.6892 126.45 11.9292L125.6 10.6092Z" fill="#6D84A5"/>
<path d="M114.07 7.66922C115.86 7.20922 117.32 6.55922 118.44 5.86922C119.46 5.23922 120.6 4.23922 121.25 3.44922L122.33 4.46922C121.42 5.38922 120.2 6.32922 119.02 7.03922C117.89 7.70922 116.27 8.45922 114.69 8.92922L114.07 7.66922ZM118.23 6.51922L119.65 6.17922V10.6892C119.65 11.1292 119.67 11.7492 119.74 11.9992H118.15C118.19 11.7592 118.23 11.1292 118.23 10.6892V6.51922Z" fill="#6D84A5"/>
<path d="M102.94 6.09055H111.94V7.15055H102.94V6.09055ZM103.81 4.14055H109.53V5.18055H103.81V4.14055ZM105.57 9.58055H110.04V10.4805H105.57V9.58055ZM105.57 11.1505H110.04V12.1605H105.57V11.1505ZM106.17 3.06055H107.35V6.68055H106.17V3.06055ZM110.57 3.35055L111.6 3.88055C109.64 6.61055 106.59 8.62055 103.35 9.81055C103.21 9.55055 102.85 9.05055 102.63 8.81055C105.88 7.77055 108.82 5.86055 110.57 3.35055ZM104.9 7.95055H110.8V12.4205H109.55V8.93055H106.1V12.4605H104.9V7.95055Z" fill="#6D84A5"/>
<path d="M93.5497 3.73047H99.6897V4.87047H93.5497V3.73047ZM93.5497 6.03047H99.7097V7.15047H93.5497V6.03047ZM93.5297 8.39047H99.7497V9.52047H93.5297V8.39047ZM92.8597 3.73047H94.0497V7.33047C94.0497 8.92047 93.8497 11.1705 92.6197 12.5105C92.4297 12.2805 91.9397 11.8805 91.6797 11.7305C92.7697 10.5205 92.8597 8.73047 92.8597 7.32047V3.73047ZM99.2697 3.73047H100.46V11.0405C100.46 11.6805 100.32 12.0005 99.9197 12.1905C99.4997 12.3805 98.8997 12.4005 97.9897 12.3905C97.9397 12.0705 97.7597 11.5505 97.5997 11.2405C98.1697 11.2805 98.8297 11.2705 99.0097 11.2705C99.1997 11.2605 99.2697 11.2005 99.2697 11.0305V3.73047ZM95.9397 4.18047H97.1597V12.3305H95.9397V4.18047Z" fill="#6D84A5"/>
<path d="M80.8799 6.02961H85.6799V7.13961H80.8799V6.02961ZM86.1599 4.26961H87.3299V9.88961H86.1599V4.26961ZM82.7899 4.04961H83.9699V12.4396H82.7899V4.04961ZM88.5299 3.24961H89.7199V10.9796C89.7199 11.6896 89.5799 12.0196 89.1699 12.2196C88.7499 12.4096 88.0899 12.4496 87.1699 12.4496C87.1099 12.0996 86.9199 11.5496 86.7499 11.2096C87.4099 11.2296 88.0499 11.2296 88.2599 11.2296C88.4499 11.2296 88.5299 11.1696 88.5299 10.9796V3.24961ZM84.7999 3.09961L85.6599 4.01961C84.3899 4.51961 82.6299 4.85961 81.1199 5.06961C81.0699 4.79961 80.8999 4.37961 80.7599 4.12961C82.2199 3.90961 83.8299 3.53961 84.7999 3.09961ZM82.7799 6.55961L83.5899 6.90961C83.0899 8.40961 82.2099 10.1996 81.2699 11.1996C81.1499 10.8396 80.8499 10.3396 80.6499 10.0196C81.5099 9.18961 82.3799 7.72961 82.7799 6.55961ZM83.7899 7.56961C84.1799 7.81961 85.4199 8.85961 85.7099 9.11961L85.0299 10.1496C84.5899 9.60961 83.6599 8.63961 83.1699 8.18961L83.7899 7.56961Z" fill="#6D84A5"/>
</svg>
