<?xml version="1.0" encoding="UTF-8"?>
<svg id="_レイヤー_2" data-name="レイヤー 2" xmlns="http://www.w3.org/2000/svg" viewBox="0 0 458.79 95.57">
  <defs>
    <style>
      .cls-1 {
        fill: #34bde7;
      }

      .cls-2 {
        fill: #40ace0;
      }

      .cls-3 {
        fill: #fff;
      }

      .cls-4 {
        fill: #286db6;
      }
    </style>
  </defs>
  <g id="_レイヤー_1-2" data-name="レイヤー 1">
    <g>
      <g>
        <path class="cls-3" d="M129.97,49.44l10.25-20.07h7.1v36.83h-7.15v-22.84l-8.01,16.23h-4.54l-7.9-16.07v22.68h-7.1V29.37h6.99l10.35,20.07Z"/>
        <path class="cls-3" d="M167.55,66.68c-8.27,0-14.09-5.02-14.09-16.28v-5.23c0-11.37,5.82-16.28,14.09-16.28s14.14,4.91,14.14,16.28v5.23c0,11.26-5.82,16.28-14.14,16.28ZM160.93,50.4c0,7.05,2.3,9.98,6.62,9.98s6.67-2.94,6.67-9.98v-5.23c0-7.05-2.35-9.98-6.67-9.98s-6.62,2.94-6.62,9.98v5.23Z"/>
        <path class="cls-3" d="M215.53,29.37v36.83h-6.25l-14.36-22.79v22.79h-7.1V29.37h6.19l14.41,23.11v-23.11h7.1Z"/>
        <path class="cls-3" d="M245.8,29.37v6.35h-15.48v8.27h13.88v6.3h-13.88v9.61h15.48v6.3h-22.95V29.37h22.95Z"/>
        <path class="cls-3" d="M256.32,29.37l6.57,13.72,6.62-13.72h8.59l-11.48,21.78v15.05h-7.47v-15.05l-11.48-21.78h8.65Z"/>
        <path class="cls-3" d="M317.05,66l-7.6-15.36h-8.61v15.36h-4.54V29.57h11.62c8.39,0,13.25,3.48,13.25,10.56,0,5.12-2.53,8.34-7.18,9.71l8.13,16.16h-5.07ZM307.92,46.52c6.18,0,8.71-1.9,8.71-6.39s-2.53-6.44-8.71-6.44h-7.07v12.83h7.07Z"/>
        <path class="cls-3" d="M350.15,29.57v4.12h-17.42v11.4h15.84v4.12h-15.84v12.67h17.42v4.12h-21.96V29.57h21.96Z"/>
        <path class="cls-3" d="M361.29,52.11v13.89h-4.54V29.57h11.62c8.39,0,13.25,4.22,13.25,11.3s-4.8,11.25-13.25,11.25h-7.07ZM368.36,47.99c6.18,0,8.71-2.64,8.71-7.13s-2.53-7.18-8.71-7.18h-7.07v14.31h7.07Z"/>
        <path class="cls-3" d="M383.83,66l12.67-36.43h4.22l12.67,36.43h-4.8l-2.8-8.34h-14.36l-2.8,8.34h-4.8ZM392.85,53.54h11.51l-5.75-17.11-5.75,17.11Z"/>
        <path class="cls-3" d="M423.47,66h-4.54V29.57h4.54v36.43Z"/>
        <path class="cls-3" d="M453.72,66l-7.6-15.36h-8.61v15.36h-4.54V29.57h11.62c8.39,0,13.25,3.48,13.25,10.56,0,5.12-2.53,8.34-7.18,9.71l8.13,16.16h-5.07ZM444.59,46.52c6.18,0,8.71-1.9,8.71-6.39s-2.53-6.44-8.71-6.44h-7.07v12.83h7.07Z"/>
      </g>
      <g>
        <path class="cls-1" d="M66.94,81.99c0-6,0-11.55,0-17.09,0-5.19.06-10.38.05-15.57,0-3.93-1.31-5.88-4.49-7.64-8.83-4.89-17.42-10.24-26.32-15.01-3.8-2.18-5.29-2.18-5.13-6.56.21-5.95.39-13.6.39-20.12,2.22,1.2,2.41,1.28,3.49,1.9,12.34,7.06,24.97,14.02,37.37,20.97,2.94,1.65,4.12,3.67,4.08,7-.12,13.31-.05,26.62-.05,39.93,0,8.31.7,5.85-9.4,12.18Z"/>
        <path class="cls-2" d="M50.31,91.93c0-6.95.14-13.07.09-19.05-.04-4.3-1.25-6.76-5.04-8.82-9.21-4.99-18.14-10.51-27.27-15.64-2.26-1.27-3.18-2.7-3.08-5.31.19-5.44.34-10.25.35-15.7,0-1.13.1-3.14.1-5.18,1.74.99,2.52,1.65,3.49,2.21,12.55,7.19,25.04,14.46,37.64,21.55,2.67,1.5,3.68,3.42,3.7,6.39.09,9.4.03,18.54.07,27.9.03,6.91.48,5.64-5.21,9.04-1.23.73-2.54,1.36-4.85,2.62Z"/>
        <path class="cls-4" d="M.06,45.76c10.7,6.11,20.24,11.56,29.79,17.02,4.03,2.3,8.13,4.5,12.07,6.97,1.23.77,2.82,2.22,2.86,3.41.27,7.24.13,14.49.13,22.42-1.69-.8-2.75-1.22-3.73-1.79-12.65-7.29-25.26-14.66-37.97-21.86C.82,70.57-.07,68.99,0,66.26c.18-6.44.06-12.9.06-20.5Z"/>
      </g>
      <g>
        <path class="cls-3" d="M130.68,78.67c-.15.17-.29.32-.41.46-.12.14-.22.28-.3.42-.42.67-.92,1.4-1.49,2.18-.57.78-1.21,1.58-1.91,2.37-.7.8-1.44,1.57-2.22,2.31-.78.74-1.58,1.42-2.4,2.02l-2.08-1.95c.7-.48,1.36-1,1.98-1.59.62-.58,1.2-1.17,1.74-1.77.54-.6,1.02-1.19,1.44-1.76.42-.57.77-1.1,1.05-1.58h-11.11c-.28,0-.58,0-.89.02s-.61.04-.89.06c-.28.03-.49.05-.63.06v-2.94c.18.01.42.04.7.08s.58.07.89.08c.31.01.58.02.82.02h11.65c.83,0,1.48-.08,1.95-.23l2.1,1.72ZM119.59,88.73c-.31-.31-.66-.65-1.06-1.02-.4-.37-.81-.75-1.24-1.12-.43-.38-.84-.73-1.24-1.06-.4-.33-.76-.61-1.08-.83l2.23-1.79c.28.21.61.47,1,.78s.79.64,1.23,1.01c.43.36.88.74,1.32,1.13.45.39.87.78,1.28,1.16.46.45.94.93,1.44,1.45s.97,1.02,1.43,1.51c.45.49.84.95,1.17,1.37l-2.46,1.95c-.29-.39-.67-.85-1.12-1.38-.46-.52-.93-1.07-1.44-1.63-.5-.56-.99-1.07-1.45-1.53Z"/>
        <path class="cls-3" d="M149.67,79.26c-.27.27-.55.56-.85.88-.3.32-.56.61-.79.86-.38.43-.82.91-1.33,1.42s-1.06,1.03-1.66,1.54c-.6.52-1.21,1.01-1.86,1.47-.76.53-1.6,1.04-2.54,1.52-.94.48-1.93.93-2.98,1.34-1.05.41-2.12.78-3.21,1.1l-1.62-2.48c2.03-.45,3.74-1,5.12-1.66,1.39-.66,2.53-1.27,3.44-1.85.53-.36,1.03-.73,1.49-1.09.46-.36.87-.72,1.22-1.08.35-.36.62-.68.82-.96h-7.6c-.24,0-.53,0-.88.01-.35,0-.69.01-1.02.02-.33,0-.61.02-.83.05v-2.75c.41.06.86.09,1.38.12.51.02.95.03,1.31.03h8.9c.32,0,.63-.02.93-.05s.57-.09.81-.16l1.74,1.7ZM143.62,83.84v1.42c0,.57,0,1.17-.01,1.8,0,.63-.01,1.24-.01,1.84v1.52c0,.28,0,.59.02.92.01.34.03.66.06.97.03.31.05.57.06.8h-3.02c.03-.2.06-.45.08-.77.03-.32.05-.64.06-.99.01-.34.02-.65.02-.93v-5.46l2.73-1.11ZM143.79,74.75c-.03.25-.06.56-.08.91-.03.36-.04.7-.04,1.02v2.35h-2.75v-2.35c0-.34-.01-.68-.03-1.03s-.05-.65-.09-.9h3ZM149.96,89.62c-.6-.49-1.17-.92-1.7-1.29s-1.06-.72-1.6-1.05c-.53-.33-1.11-.66-1.72-1l1.74-2.02c.64.35,1.22.67,1.72.96.5.29,1.02.59,1.53.91.52.32,1.11.71,1.79,1.18l-1.76,2.31Z"/>
        <path class="cls-3" d="M154.6,82.18c.25.01.57.03.97.05.39.02.8.04,1.23.05.43.01.82.02,1.19.02h11.28c.49,0,.95-.02,1.39-.05.43-.04.79-.06,1.07-.07v3.3c-.24-.01-.6-.04-1.07-.06-.48-.03-.94-.04-1.39-.04h-11.28c-.6,0-1.22.01-1.85.03-.63.02-1.14.04-1.53.07v-3.3Z"/>
        <path class="cls-3" d="M180.79,75.78c-.01.25-.03.5-.04.75-.01.25-.02.54-.02.87v7.1c0,.27,0,.57.02.92.01.35.03.65.04.9h-3.04c.01-.2.03-.48.06-.84.03-.36.04-.7.04-1.01v-7.08c0-.2,0-.45-.02-.77-.01-.32-.04-.6-.06-.85h3.02ZM190.53,75.61c-.01.29-.03.61-.05.96-.02.34-.03.72-.03,1.14v4.16c0,1.12-.05,2.1-.16,2.94-.1.84-.26,1.57-.47,2.21-.21.63-.47,1.19-.77,1.67-.3.48-.65.94-1.04,1.38-.46.5-.99.96-1.6,1.35-.6.4-1.21.73-1.82,1.01-.61.27-1.17.49-1.69.66l-2.21-2.31c1.05-.24,2-.57,2.85-1,.85-.43,1.59-.98,2.22-1.65.36-.41.66-.81.88-1.22.22-.41.4-.86.51-1.35.12-.5.2-1.06.25-1.69.05-.63.07-1.35.07-2.16v-3.99c0-.42-.01-.8-.03-1.14-.02-.34-.05-.66-.09-.96h3.17Z"/>
        <path class="cls-3" d="M195.4,85.92c.32-.27.61-.52.86-.76.25-.24.55-.52.88-.84.24-.25.51-.55.82-.9.31-.35.64-.74,1-1.18.36-.43.72-.88,1.1-1.33s.75-.9,1.11-1.33c.62-.74,1.25-1.15,1.91-1.23.66-.08,1.39.28,2.21,1.06.48.43.96.9,1.46,1.41s.99,1.01,1.47,1.51c.48.5.93.99,1.35,1.45.48.49,1.01,1.06,1.61,1.7.59.64,1.2,1.3,1.83,1.97s1.2,1.29,1.73,1.87l-2.31,2.48c-.46-.59-.96-1.2-1.49-1.85-.53-.64-1.05-1.27-1.55-1.88-.5-.61-.97-1.15-1.39-1.63-.29-.36-.63-.75-1-1.17-.37-.41-.74-.82-1.1-1.23-.36-.41-.7-.77-1.01-1.09-.31-.32-.55-.58-.73-.78-.35-.34-.65-.49-.89-.47-.25.02-.52.22-.83.6-.2.27-.43.58-.71.94-.28.36-.57.75-.86,1.16s-.58.8-.85,1.18c-.27.38-.51.71-.72.99-.24.34-.48.68-.71,1.02-.24.34-.46.65-.65.93l-2.52-2.6ZM208.47,79.05c0-.52.12-.98.37-1.39.24-.41.57-.73.98-.98.41-.24.86-.37,1.36-.37s.98.12,1.39.37c.41.25.73.57.98.98.24.41.37.87.37,1.39,0,.49-.12.94-.37,1.35-.25.41-.57.74-.98.99-.41.25-.87.37-1.39.37s-.96-.12-1.36-.37c-.41-.24-.73-.57-.98-.99-.25-.41-.37-.86-.37-1.35ZM209.85,79.05c0,.36.13.67.39.93.26.26.57.39.93.39s.7-.13.96-.39c.26-.26.39-.57.39-.93s-.13-.7-.39-.96c-.26-.26-.58-.39-.96-.39s-.68.13-.93.39c-.26.26-.39.58-.39.96Z"/>
        <path class="cls-3" d="M235.72,77.69c-.11.14-.25.32-.42.54-.17.22-.3.4-.4.56-.32.55-.75,1.17-1.28,1.88-.53.71-1.12,1.41-1.76,2.1-.64.69-1.31,1.28-2,1.77l-2.18-1.74c.42-.25.83-.55,1.24-.88.41-.34.78-.69,1.12-1.06s.64-.72.9-1.06c.26-.34.46-.64.6-.9h-10.94c-.43,0-.85.01-1.24.04-.39.03-.83.06-1.32.1v-2.92c.41.06.83.11,1.26.15s.87.06,1.3.06h11.32c.2,0,.43,0,.71-.02.28-.01.56-.04.83-.06s.47-.06.6-.11l1.66,1.55ZM227.16,80.52c0,1.04-.02,2.04-.06,3s-.16,1.89-.35,2.78c-.19.89-.49,1.73-.9,2.53-.41.8-.98,1.55-1.71,2.27s-1.66,1.37-2.79,1.97l-2.46-2c.34-.11.69-.26,1.07-.45.38-.19.76-.42,1.13-.7.67-.46,1.21-.95,1.63-1.47.41-.52.73-1.08.96-1.69.22-.61.38-1.27.46-2,.08-.72.13-1.51.13-2.36,0-.32,0-.63-.02-.93-.01-.3-.06-.62-.13-.96h3.04Z"/>
      </g>
    </g>
  </g>
</svg>