<?xml version="1.0" encoding="UTF-8"?>
<svg id="_レイヤー_2" data-name="レイヤー 2" xmlns="http://www.w3.org/2000/svg" viewBox="0 0 458.79 95.57">
  <defs>
    <style>
      .cls-1 {
        fill: #34bde7;
      }

      .cls-2 {
        fill: #40ace0;
      }

      .cls-3 {
        fill: #fff;
      }

      .cls-4 {
        fill: #286db6;
      }
    </style>
  </defs>
  <g id="_レイヤー_1-2" data-name="レイヤー 1">
    <g>
      <g>
        <path class="cls-3" d="M129.97,49.44l10.25-20.07h7.1v36.83h-7.15v-22.84l-8.01,16.23h-4.54l-7.9-16.07v22.68h-7.1V29.37h6.99l10.35,20.07Z"/>
        <path class="cls-3" d="M167.55,66.68c-8.27,0-14.09-5.02-14.09-16.28v-5.23c0-11.37,5.82-16.28,14.09-16.28s14.14,4.91,14.14,16.28v5.23c0,11.26-5.82,16.28-14.14,16.28ZM160.93,50.4c0,7.05,2.3,9.98,6.62,9.98s6.67-2.94,6.67-9.98v-5.23c0-7.05-2.35-9.98-6.67-9.98s-6.62,2.94-6.62,9.98v5.23Z"/>
        <path class="cls-3" d="M215.53,29.37v36.83h-6.25l-14.36-22.79v22.79h-7.1V29.37h6.19l14.41,23.11v-23.11h7.1Z"/>
        <path class="cls-3" d="M245.8,29.37v6.35h-15.48v8.27h13.88v6.3h-13.88v9.61h15.48v6.3h-22.95V29.37h22.95Z"/>
        <path class="cls-3" d="M256.32,29.37l6.57,13.72,6.62-13.72h8.59l-11.48,21.78v15.05h-7.47v-15.05l-11.48-21.78h8.65Z"/>
        <path class="cls-3" d="M317.05,66l-7.6-15.36h-8.61v15.36h-4.54V29.57h11.62c8.39,0,13.25,3.48,13.25,10.56,0,5.12-2.53,8.34-7.18,9.71l8.13,16.16h-5.07ZM307.92,46.52c6.18,0,8.71-1.9,8.71-6.39s-2.53-6.44-8.71-6.44h-7.07v12.83h7.07Z"/>
        <path class="cls-3" d="M350.15,29.57v4.12h-17.42v11.4h15.84v4.12h-15.84v12.67h17.42v4.12h-21.96V29.57h21.96Z"/>
        <path class="cls-3" d="M361.29,52.11v13.89h-4.54V29.57h11.62c8.39,0,13.25,4.22,13.25,11.3s-4.8,11.25-13.25,11.25h-7.07ZM368.36,47.99c6.18,0,8.71-2.64,8.71-7.13s-2.53-7.18-8.71-7.18h-7.07v14.31h7.07Z"/>
        <path class="cls-3" d="M383.83,66l12.67-36.43h4.22l12.67,36.43h-4.8l-2.8-8.34h-14.36l-2.8,8.34h-4.8ZM392.85,53.54h11.51l-5.75-17.11-5.75,17.11Z"/>
        <path class="cls-3" d="M423.47,66h-4.54V29.57h4.54v36.43Z"/>
        <path class="cls-3" d="M453.72,66l-7.6-15.36h-8.61v15.36h-4.54V29.57h11.62c8.39,0,13.25,3.48,13.25,10.56,0,5.12-2.53,8.34-7.18,9.71l8.13,16.16h-5.07ZM444.59,46.52c6.18,0,8.71-1.9,8.71-6.39s-2.53-6.44-8.71-6.44h-7.07v12.83h7.07Z"/>
      </g>
      <g>
        <path class="cls-1" d="M66.94,81.99c0-6,0-11.55,0-17.09,0-5.19.06-10.38.05-15.57,0-3.93-1.31-5.88-4.49-7.64-8.83-4.89-17.42-10.24-26.32-15.01-3.8-2.18-5.29-2.18-5.13-6.56.21-5.95.39-13.6.39-20.12,2.22,1.2,2.41,1.28,3.49,1.9,12.34,7.06,24.97,14.02,37.37,20.97,2.94,1.65,4.12,3.67,4.08,7-.12,13.31-.05,26.62-.05,39.93,0,8.31.7,5.85-9.4,12.18Z"/>
        <path class="cls-2" d="M50.31,91.93c0-6.95.14-13.07.09-19.05-.04-4.3-1.25-6.76-5.04-8.82-9.21-4.99-18.14-10.51-27.27-15.64-2.26-1.27-3.18-2.7-3.08-5.31.19-5.44.34-10.25.35-15.7,0-1.13.1-3.14.1-5.18,1.74.99,2.52,1.65,3.49,2.21,12.55,7.19,25.04,14.46,37.64,21.55,2.67,1.5,3.68,3.42,3.7,6.39.09,9.4.03,18.54.07,27.9.03,6.91.48,5.64-5.21,9.04-1.23.73-2.54,1.36-4.85,2.62Z"/>
        <path class="cls-4" d="M.06,45.76c10.7,6.11,20.24,11.56,29.79,17.02,4.03,2.3,8.13,4.5,12.07,6.97,1.23.77,2.82,2.22,2.86,3.41.27,7.24.13,14.49.13,22.42-1.69-.8-2.75-1.22-3.73-1.79-12.65-7.29-25.26-14.66-37.97-21.86C.82,70.57-.07,68.99,0,66.26c.18-6.44.06-12.9.06-20.5Z"/>
      </g>
      <g>
        <path class="cls-3" d="M128.04,76.07c-.34,5.82-2.32,8.74-6.52,11.84l3.02,6.22-2.74,1.32-5.35-11.06,2.74-1.32.98,2.07c2.46-1.85,3.72-3.58,4.37-6.05h-10.36v-3.02h13.86Z"/>
        <path class="cls-3" d="M143.89,95.45h-3.02v-6.92c-1.34.87-2.94,1.62-4.87,2.24l-.92-2.88c5.52-1.9,7.9-5.1,9.27-8.79h-7.08v-3.02h3.61v-1.51h3.02v1.51h3.64v3.02c-.64,2.13-1.51,4.23-2.97,6.1l5.18,3.39-1.68,2.52-4.17-2.72v7.06Z"/>
        <path class="cls-3" d="M158.4,83.6h11.65v3.05h-11.65v-3.05Z"/>
        <path class="cls-3" d="M183.85,76.07v9.58h-3.05v-9.58h3.05ZM183.51,92.7c4.7-2.58,4.79-6.55,4.79-16.63h3.02c0,11.45-.62,16.16-6.52,19.38l-1.29-2.74Z"/>
        <path class="cls-3" d="M198.72,83.94l6.86-6.75,11.93,12.68-2.21,2.07-9.8-10.42-4.65,4.56-2.13-2.16ZM213.11,80.86c-1.32-.06-2.3-1.15-2.27-2.44.03-1.32,1.12-2.32,2.44-2.27,1.29.06,2.27,1.15,2.24,2.44-.03,1.29-1.12,2.32-2.41,2.27ZM213.14,79.4c.5.03.92-.36.95-.87s-.36-.95-.87-.95-.92.39-.95.9c-.03.5.36.9.87.92Z"/>
        <path class="cls-3" d="M222.96,79.1v-3.02h14.39c0,4.54-.14,6.36-4.2,9.32l-1.79-2.44c1.93-1.51,2.6-2.35,2.86-3.86h-11.26ZM225.32,93.21c2.83-2.04,2.63-3.72,2.63-6.02v-5.82h3.02v5.82c0,3.81-.45,5.85-3.58,8.26l-2.07-2.24Z"/>
      </g>
    </g>
  </g>
</svg>