<?xml version="1.0" encoding="UTF-8"?>
<svg id="_レイヤー_2" data-name="レイヤー 2" xmlns="http://www.w3.org/2000/svg" viewBox="0 0 210 60">
  <defs>
    <style>
      .cls-1 {
        fill: none;
      }

      .cls-2 {
        fill: #fff;
      }
    </style>
  </defs>
  <g id="_レイヤー_1-2" data-name="レイヤー 1">
    <g id="logo_-_black_-_Btype" data-name="logo - black - Btype">
      <rect id="_背景" data-name="背景" class="cls-1" x="0" width="210" height="60"/>
      <g id="_ロゴマーク" data-name="ロゴマーク">
        <path class="cls-2" d="M30.67,45.84c0-2.75,0-5.29,0-7.83,0-2.38.03-4.76.02-7.13,0-1.8-.6-2.69-2.06-3.5-4.05-2.24-7.98-4.69-12.06-6.88-1.74-1-2.42-1-2.35-3.01.1-2.73.18-6.23.18-9.22,1.02.55,1.1.59,1.6.87,5.65,3.23,11.44,6.42,17.12,9.61,1.34.75,1.89,1.68,1.87,3.21-.06,6.1-.02,12.2-.02,18.29,0,3.81.32,2.68-4.31,5.58Z"/>
        <path class="cls-2" d="M23.05,50.39c0-3.18.06-5.99.04-8.73-.02-1.97-.57-3.1-2.31-4.04-4.22-2.29-8.31-4.81-12.49-7.16-1.04-.58-1.45-1.24-1.41-2.43.09-2.49.16-4.7.16-7.19,0-.52.04-1.44.04-2.37.8.46,1.15.76,1.6,1.01,5.75,3.29,11.47,6.62,17.25,9.87,1.22.69,1.68,1.57,1.7,2.93.04,4.31.02,8.5.03,12.78.01,3.17.22,2.58-2.39,4.14-.56.34-1.16.62-2.22,1.2Z"/>
        <path class="cls-2" d="M.03,29.24c4.9,2.8,9.27,5.3,13.65,7.8,1.85,1.06,3.73,2.06,5.53,3.19.56.35,1.29,1.02,1.31,1.56.12,3.32.06,6.64.06,10.27-.77-.37-1.26-.56-1.71-.82-5.8-3.34-11.57-6.72-17.39-10.01C.37,40.61-.03,39.88,0,38.63c.08-2.95.03-5.91.03-9.39Z"/>
      </g>
      <g>
        <g>
          <path class="cls-2" d="M74.54,8.6c-.54,9.36-3.73,14.04-10.48,19.03l4.86,9.99-4.41,2.12-8.59-17.77,4.41-2.11,1.58,3.33c3.96-2.97,5.98-5.76,7.02-9.72h-16.65v-4.86h22.27Z"/>
          <path class="cls-2" d="M103.57,39.74h-4.86v-11.11c-2.16,1.39-4.72,2.61-7.83,3.6l-1.48-4.63c8.86-3.06,12.69-8.19,14.89-14.13h-11.38v-4.86h5.8v-2.43h4.86v2.43h5.85v4.86c-1.04,3.42-2.43,6.79-4.77,9.81l8.32,5.44-2.7,4.05-6.71-4.37v11.34Z"/>
          <path class="cls-2" d="M136.24,8.6v15.39h-4.9v-15.39h4.9ZM135.7,35.33c7.56-4.14,7.69-10.53,7.69-26.73h4.86c0,18.4-.99,25.96-10.48,31.14l-2.07-4.41Z"/>
          <path class="cls-2" d="M163.69,21.24l11.02-10.84,19.17,20.38-3.56,3.33-15.75-16.74-7.47,7.33-3.42-3.46ZM186.82,16.29c-2.11-.09-3.69-1.84-3.65-3.91.04-2.12,1.8-3.74,3.92-3.65,2.07.09,3.65,1.85,3.6,3.92-.04,2.07-1.8,3.74-3.87,3.64ZM186.86,13.95c.81.04,1.48-.58,1.53-1.39.05-.81-.58-1.53-1.39-1.53s-1.49.63-1.53,1.44c-.04.81.58,1.44,1.4,1.48Z"/>
        </g>
        <g>
          <path class="cls-2" d="M57.16,47.13c-.25.35-.56.71-.94,1.08-.38.37-.8.72-1.26,1.06s-.94.64-1.44.9c-.04-.08-.1-.17-.16-.26s-.14-.19-.22-.28-.15-.17-.23-.24c.52-.25,1.02-.56,1.49-.92.47-.36.9-.74,1.28-1.14.38-.4.68-.78.9-1.15h1.01c.24.33.51.65.81.96.3.31.62.6.95.87.34.27.68.51,1.04.72s.71.4,1.07.54c-.11.12-.23.26-.34.41-.11.16-.21.31-.29.45-.35-.18-.7-.39-1.05-.62-.35-.23-.69-.49-1.02-.76-.33-.27-.63-.54-.91-.82-.28-.28-.52-.55-.72-.82ZM53.37,53.52h7.66v.83h-7.66v-.83ZM53.82,50.75h6.72v.84h-6.72v-.84ZM54.44,51.96l.77-.31c.12.15.24.32.35.5.11.19.21.37.3.54.09.18.16.34.2.48l-.84.37c-.04-.14-.09-.31-.18-.5-.08-.19-.18-.37-.28-.56-.11-.19-.22-.36-.32-.53ZM54.92,48.92h4.53v.86h-4.53v-.86ZM56.64,49.26h1.03v4.68h-1.03v-4.68ZM59.04,51.64l.92.34c-.17.28-.36.55-.55.84s-.37.52-.54.72l-.72-.31c.1-.14.21-.31.32-.5.11-.19.22-.38.32-.57.1-.19.19-.37.25-.53Z"/>
          <path class="cls-2" d="M62.65,46.57h4.27v.81h-4.27v-.81ZM62.72,50.06h3.7v.7h-2.96v3.83h-.74v-4.53ZM63.09,47.76h3.41v1.92h-3.41v-1.92ZM64,50.38h.55v.36c0,.17-.02.34-.05.53-.03.18-.1.36-.2.54-.1.17-.26.33-.47.48-.05-.07-.13-.14-.23-.22-.1-.08-.18-.14-.25-.18.19-.11.33-.23.43-.36.09-.13.15-.27.18-.41.03-.14.04-.27.04-.39v-.33ZM63.73,52.26h2.06v.65h-2.06v-.65ZM63.91,48.4v.65h1.71v-.65h-1.71ZM64.4,52.44h.69v1.93h-.69v-1.93ZM64.96,50.42h.57v.86c0,.07,0,.12.02.13.01.01.04.02.1.02h.29c.05,0,.09,0,.1-.01.02,0,.03-.03.04-.06.05.04.13.08.23.12.1.04.19.06.27.08-.04.14-.1.25-.18.31-.09.06-.21.09-.36.09h-.47c-.24,0-.4-.04-.48-.13s-.12-.27-.12-.53v-.87ZM66.06,50.06h.77v3.73c0,.17-.02.31-.05.42s-.11.2-.23.26c-.11.06-.25.1-.41.11s-.36.02-.58.02c-.01-.1-.04-.22-.08-.36-.04-.13-.08-.25-.13-.36.14,0,.27,0,.38,0s.2,0,.24,0c.07,0,.11-.04.11-.11v-3.72ZM66.95,53.58c.41-.05.92-.12,1.5-.21.59-.09,1.19-.19,1.79-.28l.05.83c-.55.11-1.1.21-1.65.31-.55.1-1.05.19-1.49.27l-.21-.91ZM67.15,47.94h3.44v3.63h-3.44v-3.63ZM67.9,48.76v1.97h1.88v-1.97h-1.88ZM68.4,46.32h.85v2.27h-.85v-2.27ZM68.47,48.25h.71v2.88h.06v2.57h-.84v-2.57h.06v-2.88ZM69.5,52.11l.73-.17c.11.26.22.54.31.84.1.3.18.59.25.88.07.29.11.54.13.75l-.78.21c-.01-.22-.05-.47-.11-.75-.06-.28-.14-.58-.23-.89-.09-.31-.19-.59-.3-.86Z"/>
          <path class="cls-2" d="M74.59,46.96c0,.1-.01.21-.02.32,0,.11-.01.23-.01.36v3.03c0,.11,0,.24.01.39,0,.14.02.27.02.37h-1.18c.01-.08.02-.19.03-.34,0-.15.01-.29.01-.43v-3.02c0-.08,0-.18,0-.32,0-.13-.02-.25-.03-.36h1.17ZM78.75,46.89c0,.12-.01.25-.02.4,0,.14,0,.3,0,.47v1.69c0,.5-.02.93-.07,1.29-.04.36-.11.68-.19.95-.08.27-.19.51-.32.71s-.28.4-.45.59c-.19.22-.42.42-.67.59-.26.17-.51.31-.77.43-.26.12-.5.21-.72.28l-.84-.89c.44-.1.84-.24,1.2-.43.36-.18.68-.42.96-.72.16-.17.28-.35.38-.53.1-.18.17-.38.22-.6.05-.22.09-.47.1-.76.02-.28.03-.61.03-.98v-1.63c0-.17,0-.32-.01-.47s-.02-.28-.04-.4h1.21Z"/>
          <path class="cls-2" d="M81.84,49.29c.13.01.27.02.41.04s.28.02.42.02h5.9c.1,0,.22,0,.38-.01.16,0,.29-.02.41-.04v1.05c-.11-.01-.24-.02-.38-.02s-.28,0-.41,0h-5.9c-.13,0-.27,0-.42,0s-.29.01-.41.03v-1.06ZM82.9,47c.14.02.3.03.46.04.16,0,.31.01.46.01h3.63c.14,0,.3,0,.46-.01.17,0,.32-.02.47-.04v1.04c-.15-.01-.31-.02-.47-.03-.16,0-.32,0-.47,0h-3.62c-.15,0-.31,0-.48,0-.17,0-.32.02-.45.03v-1.04ZM86.34,49.83c0,.58-.05,1.11-.14,1.57s-.24.89-.43,1.26c-.11.2-.25.41-.43.62-.18.21-.39.41-.62.6-.23.19-.48.35-.75.48l-.94-.68c.32-.13.64-.32.94-.55.3-.24.54-.49.71-.76.23-.35.38-.74.45-1.16.07-.43.11-.88.12-1.37h1.11Z"/>
          <path class="cls-2" d="M98.57,49.53c-.03.05-.06.11-.09.18-.03.07-.05.12-.06.16-.14.44-.31.87-.52,1.3-.21.43-.48.83-.81,1.21-.46.51-.96.92-1.52,1.22-.55.31-1.12.54-1.7.7l-.8-.91c.67-.14,1.27-.35,1.8-.63.53-.28.98-.6,1.33-.97.25-.26.46-.54.61-.83.16-.3.27-.58.35-.85h-4.46c-.11,0-.26,0-.45,0-.19,0-.37.02-.55.04v-1.05c.19.01.37.02.54.04.17.01.33.02.46.02h4.53c.14,0,.26,0,.37-.02s.19-.04.25-.07l.72.45ZM92.53,46.98c.12.02.26.03.43.04.17,0,.32,0,.46,0h3.48c.14,0,.3,0,.48,0,.18,0,.33-.02.45-.04v1.05c-.11-.01-.26-.02-.43-.03-.17,0-.34,0-.5,0h-3.47c-.14,0-.29,0-.45,0-.17,0-.31.02-.44.03v-1.05Z"/>
          <path class="cls-2" d="M101.33,48.81c.15.08.32.17.5.28s.38.23.57.35c.19.12.37.23.54.34.17.11.31.2.42.28l-.58.91c-.13-.09-.27-.19-.44-.3-.17-.11-.35-.23-.54-.35s-.38-.24-.56-.35c-.18-.11-.35-.2-.49-.27l.58-.89ZM101.13,53.16c.34-.06.68-.13,1.03-.22.35-.09.69-.2,1.04-.33.34-.13.67-.29.99-.46.5-.29.98-.61,1.41-.97s.83-.74,1.18-1.14c.35-.4.64-.82.88-1.25l.62,1.09c-.41.62-.92,1.21-1.53,1.76-.61.55-1.28,1.05-2.02,1.47-.31.17-.64.34-1,.49-.36.15-.72.28-1.07.39-.35.11-.66.19-.93.24l-.6-1.06ZM102.7,46.77c.14.08.31.17.5.29.19.11.38.23.57.36.19.12.37.24.54.35.17.11.31.21.42.28l-.59.89c-.12-.08-.27-.18-.44-.3-.17-.11-.35-.23-.54-.35s-.37-.24-.55-.35c-.18-.11-.34-.21-.49-.29l.58-.88Z"/>
          <path class="cls-2" d="M110.25,49.74c.1,0,.23.01.39.03.16.01.33.02.5.02.17,0,.34,0,.5,0h4.87c.22,0,.41,0,.59-.02.18-.01.32-.03.44-.03v1.27c-.1,0-.25-.01-.45-.03-.19-.01-.39-.02-.58-.02h-4.87c-.25,0-.51,0-.76.01s-.46.02-.63.03v-1.27Z"/>
          <path class="cls-2" d="M119.34,48.68c.16.01.31.02.45.01s.3,0,.46-.01c.14,0,.31-.02.53-.03.21-.01.44-.03.68-.05.24-.02.48-.04.72-.06.24-.02.46-.04.67-.05.21-.01.37-.02.5-.02.31,0,.58.05.81.15s.42.27.56.52c.14.24.21.58.21,1,0,.35-.02.73-.05,1.14-.03.41-.09.81-.16,1.19-.08.38-.18.69-.3.95-.14.31-.34.53-.58.64-.24.11-.53.17-.85.17-.17,0-.36-.01-.56-.04-.2-.03-.37-.06-.52-.09l-.17-1.06c.12.03.25.06.39.09.14.03.27.05.4.07.13.02.23.02.31.02.16,0,.29-.03.41-.08.12-.05.22-.16.3-.32.08-.18.15-.41.21-.7.06-.28.1-.59.13-.92.03-.33.04-.65.04-.95,0-.25-.03-.44-.1-.56-.07-.12-.17-.2-.31-.24s-.3-.06-.48-.06c-.14,0-.33.01-.57.03-.24.02-.5.04-.77.07-.27.03-.53.06-.76.09-.24.03-.42.05-.54.07-.13.02-.28.04-.47.06-.19.02-.35.05-.48.07l-.1-1.1ZM122.86,46.8c-.02.1-.04.21-.07.34-.03.12-.05.24-.08.35-.02.13-.05.27-.09.45-.03.17-.07.34-.1.52-.03.18-.07.35-.11.52-.06.25-.14.55-.23.88-.09.34-.2.7-.31,1.08-.12.38-.25.77-.4,1.17s-.31.78-.48,1.15c-.17.37-.35.71-.54,1.02l-1.05-.41c.21-.28.41-.6.59-.94.18-.35.35-.71.5-1.08s.28-.74.4-1.1c.12-.36.22-.69.31-1s.15-.58.2-.81c.08-.39.15-.78.2-1.16s.07-.74.06-1.08l1.2.13ZM125.97,47.75c.14.19.28.43.44.71.16.28.31.58.46.9s.29.62.41.91c.12.29.22.55.29.76l-1.03.47c-.06-.25-.14-.52-.25-.82s-.23-.61-.37-.92c-.14-.31-.29-.61-.44-.89-.16-.28-.31-.51-.48-.71l.96-.41ZM125.88,46.48c.08.11.16.24.25.39.09.15.17.3.26.45.08.15.16.29.22.4l-.66.28c-.06-.13-.13-.26-.21-.41-.08-.15-.17-.3-.25-.45-.09-.15-.17-.28-.26-.4l.66-.27ZM126.92,46.08c.08.11.16.25.26.4.09.15.18.3.27.45s.16.27.21.38l-.66.28c-.09-.19-.2-.4-.34-.64-.13-.23-.27-.43-.39-.6l.65-.27Z"/>
          <path class="cls-2" d="M129.56,51.69h.82c-.02.44-.08.84-.16,1.21-.08.37-.21.69-.4.98s-.46.53-.82.74c-.03-.07-.08-.14-.14-.23s-.13-.18-.2-.27c-.07-.09-.14-.15-.2-.2.29-.15.52-.33.67-.55.15-.22.25-.46.31-.75s.1-.59.12-.93ZM128.65,48.39h3.98v.76h-3.98v-.76ZM128.83,46.85h3.74v.73h-3.74v-.73ZM129.04,49.52h3.3v2.3h-3.3v-2.3ZM129.32,47.6l.73-.14c.07.14.12.29.17.46s.08.31.1.43l-.77.16c0-.13-.03-.28-.08-.45s-.09-.33-.15-.47ZM129.88,50.24v.86h1.58v-.86h-1.58ZM130.26,46.23h.87v1.06h-.87v-1.06ZM130.63,53.44c.25-.07.55-.17.89-.28.34-.12.7-.24,1.06-.37l.16.79c-.32.13-.64.25-.96.37-.32.12-.63.24-.91.35l-.24-.85ZM130.89,51.68h.85v1.75l-.85.32v-2.08ZM131.31,47.43l.81.18c-.07.17-.14.34-.19.5-.05.16-.11.29-.16.41l-.75-.16c.04-.14.09-.29.15-.46s.1-.33.14-.46ZM133.56,51.72h.84c-.02.47-.09.89-.18,1.26-.1.37-.27.68-.52.95-.25.27-.61.49-1.09.67-.05-.1-.12-.23-.22-.37-.1-.15-.19-.26-.28-.35.4-.13.7-.29.9-.48.2-.19.34-.43.42-.71.08-.28.13-.6.14-.97ZM132.83,48.39h4.13v.76h-4.13v-.76ZM132.93,46.85h3.91v.73h-3.91v-.73ZM133.11,49.52h3.45v2.32h-3.45v-2.32ZM133.39,47.59l.76-.17c.07.14.13.3.18.48.05.17.09.33.11.46l-.78.19c-.01-.13-.04-.28-.09-.46-.05-.18-.11-.34-.17-.5ZM133.99,50.24v.87h1.65v-.87h-1.65ZM134.32,46.23h.91v1.06h-.91v-1.06ZM134.87,51.71h.85v1.75s0,.05,0,.07c0,.02.01.04.03.05.04.03.09.04.15.04h.21c.08,0,.14-.01.18-.04.02-.01.03-.03.05-.06.02-.03.03-.06.03-.1.01-.07.02-.18.03-.33,0-.15.01-.32,0-.51.08.08.19.16.33.23.14.08.27.14.39.17,0,.22-.02.42-.04.61-.02.19-.05.33-.07.42-.07.18-.17.31-.32.4-.06.04-.14.06-.23.08-.09.02-.19.03-.28.03h-.52c-.11,0-.23-.02-.33-.04-.11-.03-.2-.08-.28-.15-.07-.08-.12-.17-.15-.27-.03-.11-.04-.28-.04-.53v-1.82ZM135.48,47.4l.86.18c-.08.18-.16.35-.24.51-.08.16-.15.31-.21.43l-.74-.18c.05-.14.11-.3.18-.48s.11-.34.15-.47Z"/>
          <path class="cls-2" d="M138.07,50.11h8.38v.88h-8.38v-.88ZM140.64,46.21l1.04.2c-.33.53-.72,1.05-1.18,1.56s-1,.97-1.65,1.4c-.05-.08-.11-.16-.19-.24s-.17-.17-.26-.25c-.09-.08-.18-.14-.26-.18.41-.23.77-.49,1.08-.77.31-.28.59-.57.83-.86.24-.29.43-.58.58-.85ZM139.05,51.77h5.9v.88h-5.9v-.88ZM139.41,48.53h6.06v4.53h-.98v-3.67h-5.08v-.85ZM141.7,49.02h.99v4.53c0,.26-.03.46-.1.6-.07.14-.2.24-.39.31-.18.07-.41.12-.68.13-.28.02-.61.03-1,.03-.02-.13-.07-.29-.14-.47-.07-.18-.14-.33-.21-.46.19,0,.37.01.55.02s.34,0,.48,0h.29c.08-.01.14-.03.18-.05.03-.02.05-.07.05-.14v-4.51ZM140.81,46.95h2.48v.83h-3.1l.62-.83ZM143.12,46.95h.23l.16-.04.69.48c-.13.19-.29.4-.47.62-.18.22-.37.43-.57.63-.2.2-.39.38-.58.54-.08-.08-.19-.16-.32-.25-.13-.09-.25-.17-.35-.22.16-.14.31-.3.47-.49.16-.19.3-.37.43-.56.13-.19.24-.36.31-.5v-.19Z"/>
          <path class="cls-2" d="M150.71,46.23h1.03v1.77c0,.41-.02.85-.06,1.31s-.12.93-.24,1.41c-.12.48-.3.95-.55,1.42-.25.47-.57.92-.98,1.35s-.92.82-1.54,1.17c-.05-.08-.12-.18-.21-.27-.09-.1-.18-.2-.28-.29-.1-.09-.19-.17-.27-.22.58-.32,1.05-.67,1.43-1.05.38-.38.68-.78.9-1.19.22-.41.39-.83.5-1.25.11-.42.18-.84.22-1.24s.05-.78.05-1.14v-1.77ZM147.89,48.11h6.93v.99h-6.93v-.99ZM154.43,48.11h1c0,.13,0,.22,0,.3,0,.07,0,.13-.01.18-.05.91-.1,1.68-.14,2.32-.05.64-.1,1.17-.16,1.6-.06.42-.13.76-.2,1-.08.25-.16.43-.27.54-.13.16-.26.27-.39.33-.13.06-.3.1-.49.13-.16.02-.38.03-.64.03-.26,0-.53,0-.8-.02,0-.14-.04-.3-.1-.5s-.14-.36-.24-.5c.29.03.57.05.81.05s.43,0,.55,0c.1,0,.18,0,.24-.03.06-.02.12-.06.18-.12.08-.08.15-.23.22-.46.07-.23.13-.54.18-.95.05-.41.1-.91.14-1.53.04-.61.09-1.34.13-2.19v-.2Z"/>
          <path class="cls-2" d="M160.96,46.64c-.04.17-.09.38-.15.63s-.16.54-.28.86c-.1.23-.21.48-.35.73-.14.25-.27.48-.42.67.09-.05.2-.09.33-.12.13-.03.26-.06.4-.08.14-.02.26-.03.36-.03.37,0,.68.11.93.32s.37.52.37.92c0,.12,0,.27,0,.44s0,.36,0,.55c0,.19,0,.38.01.56,0,.18,0,.35,0,.49h-.97c.01-.11.02-.24.03-.38,0-.15.01-.3.01-.47,0-.16,0-.32,0-.47v-.41c0-.28-.08-.48-.23-.59-.16-.11-.33-.17-.53-.17-.26,0-.53.06-.79.18-.26.12-.48.27-.66.45-.13.13-.26.28-.4.44-.13.16-.28.34-.43.54l-.86-.65c.4-.38.74-.74,1.03-1.08s.53-.68.72-1c.19-.33.35-.64.47-.95.09-.25.17-.5.23-.76.06-.26.1-.5.11-.73l1.06.09ZM157.66,47.51c.23.03.5.05.79.07.29.02.55.03.77.03.4,0,.83,0,1.3-.03.47-.02.95-.05,1.43-.09s.94-.1,1.37-.17v.94c-.32.05-.66.09-1.03.12-.37.03-.74.06-1.11.08-.38.02-.74.04-1.08.05-.35,0-.66.01-.93.01-.13,0-.27,0-.45,0-.17,0-.35-.01-.54-.02-.19-.01-.36-.02-.53-.03v-.95ZM164.71,49.96c-.09.02-.19.06-.31.1-.12.04-.24.09-.36.13s-.23.09-.32.12c-.3.12-.65.26-1.05.43s-.81.36-1.23.57c-.28.14-.52.29-.72.43-.2.14-.35.29-.45.45s-.16.32-.16.5c0,.14.03.25.09.34.06.09.15.16.27.21.12.05.27.08.44.1.17.02.37.03.59.03.37,0,.79-.02,1.25-.07s.89-.1,1.28-.18l-.04,1.04c-.2.02-.45.05-.74.08-.29.03-.59.05-.9.06s-.6.02-.88.02c-.46,0-.87-.04-1.23-.13-.37-.09-.66-.24-.87-.45s-.32-.51-.32-.89c0-.3.07-.57.21-.81.14-.24.32-.46.55-.67.23-.2.48-.38.75-.54s.54-.31.81-.45c.28-.14.54-.27.77-.37.23-.11.45-.2.65-.29s.39-.17.58-.26c.16-.07.32-.14.47-.22.15-.07.3-.15.45-.23l.4.95Z"/>
          <path class="cls-2" d="M172.66,49.55h.21l.18-.04.67.4c-.27.72-.63,1.35-1.09,1.88-.46.53-.98.98-1.58,1.35-.59.37-1.24.68-1.94.92-.7.24-1.44.43-2.21.56-.02-.09-.07-.19-.13-.31s-.13-.23-.2-.35-.14-.21-.2-.28c.75-.1,1.46-.25,2.12-.45.67-.19,1.27-.45,1.82-.76.55-.31,1.02-.69,1.42-1.14s.7-.98.91-1.6v-.18ZM166.74,47.45h7.69v.95h-7.69v-.95ZM167.18,49.55h5.8v.95h-5.8v-.95ZM168.96,50.43c.47.92,1.21,1.65,2.2,2.19.99.54,2.21.9,3.66,1.08-.07.07-.15.17-.22.28-.08.11-.15.23-.22.35-.07.12-.13.22-.17.31-1.01-.15-1.9-.39-2.68-.71-.78-.33-1.46-.75-2.03-1.28-.57-.53-1.05-1.15-1.44-1.89l.9-.32ZM170.07,46.21h1.01v3.77h-1.01v-3.77Z"/>
          <path class="cls-2" d="M182.27,49.37c-.11.08-.21.15-.31.23-.1.08-.18.15-.25.21-.1.08-.23.19-.37.33s-.3.27-.45.42c-.15.14-.29.28-.42.4-.13.12-.22.22-.28.28.04,0,.1,0,.17,0,.07.01.13.03.18.04.14.03.26.1.36.2.09.11.17.25.23.42.03.08.06.17.09.27.03.11.06.21.09.31.03.1.06.2.09.29.05.14.12.25.23.33.1.08.25.11.45.11.22,0,.44,0,.65-.02.21-.01.41-.04.59-.06s.35-.06.5-.09l-.07,1.06c-.12.02-.29.04-.5.06-.22.02-.44.04-.66.05s-.42.02-.57.02c-.41,0-.73-.06-.97-.17-.24-.11-.41-.31-.52-.61-.03-.09-.06-.2-.1-.32-.04-.12-.07-.24-.1-.35-.03-.11-.06-.21-.08-.29-.05-.16-.12-.28-.21-.35-.09-.07-.19-.1-.3-.1-.1,0-.19.03-.3.09-.1.06-.2.15-.31.26-.07.07-.15.15-.24.25-.1.1-.2.21-.31.34-.11.13-.23.26-.36.41-.13.14-.25.29-.38.45-.13.15-.25.3-.37.46l-.95-.67c.07-.07.16-.14.26-.23.1-.09.21-.18.32-.29.07-.07.18-.18.33-.33.15-.15.33-.32.53-.52.2-.2.41-.41.63-.64.22-.23.44-.45.67-.67.22-.22.43-.43.62-.63.19-.2.36-.37.5-.51-.13,0-.27,0-.45.02-.17.01-.35.02-.53.04s-.36.03-.53.04c-.17.02-.34.03-.49.04-.15,0-.28.02-.39.03-.16.01-.3.03-.43.05-.13.02-.24.04-.34.05l-.09-1.12c.1,0,.23.01.37.02.15,0,.3,0,.45,0,.1,0,.24,0,.44-.01.2,0,.43-.02.69-.04.26-.01.52-.03.79-.04.27-.01.52-.03.75-.05.23-.02.42-.04.57-.05.08-.01.17-.03.27-.05.1-.02.17-.04.22-.06l.59.67ZM178.36,46.59c.25.05.54.1.86.14.32.05.65.09.99.13.34.04.67.08.98.1.31.03.58.05.8.07l-.13.95c-.23-.02-.51-.04-.81-.08-.31-.03-.63-.07-.97-.11-.34-.04-.67-.08-.99-.13-.32-.04-.62-.09-.89-.14l.15-.94Z"/>
          <path class="cls-2" d="M187.02,47.04c.12.01.25.02.39.03.14,0,.26.01.38.01.1,0,.24,0,.44,0,.2,0,.42-.01.67-.02.25,0,.49-.01.74-.02.25,0,.47-.01.67-.03.2-.01.35-.02.45-.03.17-.01.3-.03.4-.04.1-.01.18-.03.23-.05l.53.73c-.1.06-.19.12-.3.19-.1.07-.2.14-.3.21-.12.08-.27.2-.44.34-.17.14-.36.29-.56.46-.2.17-.39.33-.58.48-.19.16-.37.3-.52.42.17-.05.33-.09.49-.1.16-.01.32-.02.48-.02.5,0,.96.1,1.35.29.4.19.72.46.95.79s.35.71.35,1.15c0,.47-.12.9-.36,1.28-.24.38-.6.68-1.08.9s-1.07.33-1.77.33c-.41,0-.78-.06-1.1-.18-.32-.12-.57-.28-.76-.5s-.27-.46-.27-.75c0-.23.06-.45.19-.66s.31-.37.54-.5c.23-.13.5-.19.81-.19.41,0,.75.08,1.03.25.28.17.49.39.64.66.15.28.23.57.24.89l-.94.13c-.01-.34-.1-.62-.28-.84s-.41-.32-.7-.32c-.18,0-.33.05-.44.14-.11.1-.17.21-.17.33,0,.18.09.32.27.43.18.11.42.16.72.16.5,0,.93-.06,1.28-.19s.62-.31.8-.55c.18-.24.27-.53.27-.86,0-.28-.08-.52-.25-.73s-.4-.38-.68-.5-.61-.18-.97-.18-.68.04-.97.13-.57.21-.83.36-.51.35-.75.57c-.24.23-.49.48-.75.75l-.73-.76c.17-.13.36-.29.57-.46s.42-.35.64-.53.42-.35.61-.51.35-.3.49-.41c.13-.1.28-.22.45-.37.17-.14.35-.29.54-.45.19-.16.36-.3.53-.45.17-.14.31-.26.41-.36-.09,0-.21,0-.37.01-.16,0-.33.02-.51.02s-.37.01-.56.02-.36.02-.52.03c-.16,0-.29.02-.38.02-.11,0-.23.01-.36.02s-.24.02-.34.04l-.04-1.05Z"/>
        </g>
      </g>
    </g>
  </g>
</svg>