<?xml version="1.0" encoding="UTF-8"?>
<svg id="_レイヤー_2" data-name="レイヤー 2" xmlns="http://www.w3.org/2000/svg" viewBox="0 0 99.18 20">
  <defs>
    <style>
      .cls-1 {
        fill: none;
      }

      .cls-2 {
        fill: #40ace0;
      }

      .cls-3 {
        fill: #34bde7;
      }

      .cls-4 {
        fill: #3b3b3b;
      }

      .cls-5 {
        fill: #286db6;
      }
    </style>
  </defs>
  <g id="_レイヤー_1-2" data-name="レイヤー 1">
    <g id="logo_-_black_-_Btype" data-name="logo - black - Btype">
      <rect id="_背景" data-name="背景" class="cls-1" x=".01" width="99.16" height="20"/>
      <g id="_ロゴマーク" data-name="ロゴマーク">
        <path class="cls-3" d="M13.13,17.34c0-1.18,0-2.26,0-3.35,0-1.02.01-2.04.01-3.05,0-.77-.26-1.15-.88-1.5-1.73-.96-3.42-2.01-5.16-2.94-.75-.43-1.04-.43-1.01-1.29.04-1.17.08-2.67.08-3.95.44.23.47.25.68.37,2.42,1.38,4.9,2.75,7.33,4.11.58.32.81.72.8,1.37-.02,2.61-.01,5.22,0,7.83,0,1.63.14,1.15-1.84,2.39Z"/>
        <path class="cls-2" d="M9.87,19.28c0-1.36.03-2.56.02-3.74,0-.84-.25-1.33-.99-1.73-1.81-.98-3.56-2.06-5.35-3.07-.44-.25-.62-.53-.6-1.04.04-1.07.07-2.01.07-3.08,0-.22.02-.62.02-1.02.34.19.49.32.69.43,2.46,1.41,4.91,2.84,7.38,4.23.52.3.72.67.73,1.25.02,1.84,0,3.64.01,5.47,0,1.36.09,1.11-1.02,1.77-.24.14-.5.27-.95.51Z"/>
        <path class="cls-5" d="M.01,10.23c2.1,1.2,3.97,2.27,5.84,3.34.79.45,1.6.88,2.37,1.37.24.15.55.44.56.67.05,1.42.03,2.84.03,4.4-.33-.16-.54-.24-.73-.35-2.48-1.43-4.95-2.88-7.45-4.29C.16,15.1-.01,14.79,0,14.25c.04-1.26.01-2.53.01-4.02Z"/>
      </g>
      <g>
        <path class="cls-4" d="M37.07,1.45c-.32,5.58-2.23,8.36-6.25,11.34l2.9,5.95-2.63,1.26-5.12-10.59,2.63-1.26.94,1.98c2.36-1.77,3.57-3.43,4.18-5.79h-9.92V1.45h13.27Z"/>
        <path class="cls-4" d="M51.37,20h-2.9v-6.62c-1.29.83-2.81,1.55-4.66,2.14l-.88-2.76c5.28-1.82,7.56-4.88,8.87-8.42h-6.78V1.45h3.46V0h2.9v1.45h3.49v2.9c-.62,2.04-1.45,4.05-2.84,5.84l4.96,3.24-1.61,2.41-3.99-2.6v6.76Z"/>
        <path class="cls-4" d="M67.83,1.45v9.17h-2.92V1.45h2.92ZM67.51,17.37c4.5-2.47,4.58-6.27,4.58-15.92h2.9c0,10.97-.59,15.47-6.25,18.55l-1.23-2.63Z"/>
        <path class="cls-4" d="M81.19,8.98l6.57-6.46,11.42,12.15-2.12,1.98-9.38-9.97-4.45,4.37-2.04-2.06ZM94.97,6.03c-1.26-.05-2.2-1.1-2.17-2.33.03-1.26,1.07-2.23,2.33-2.17,1.23.05,2.17,1.1,2.14,2.33-.03,1.23-1.07,2.23-2.31,2.17ZM94.99,4.64c.48.03.88-.35.91-.83.03-.48-.35-.91-.83-.91s-.88.38-.91.86c-.03.48.35.86.83.88Z"/>
      </g>
    </g>
  </g>
</svg>