<svg width="218" height="75" viewBox="0 0 218 75" fill="none" xmlns="http://www.w3.org/2000/svg">
<path opacity="0.3" d="M203.072 47.2004L200.572 0.400391H217.072L214.572 47.2004H203.072ZM208.772 74.1004C206.172 74.1004 204.005 73.2004 202.272 71.4004C200.539 69.6004 199.672 67.4337 199.672 64.9004C199.672 62.2337 200.539 60.0337 202.272 58.3004C204.005 56.5004 206.172 55.6004 208.772 55.6004C211.439 55.6004 213.605 56.5004 215.272 58.3004C217.005 60.0337 217.872 62.2337 217.872 64.9004C217.872 67.4337 217.005 69.6004 215.272 71.4004C213.605 73.2004 211.439 74.1004 208.772 74.1004Z" fill="white"/>
<path opacity="0.3" d="M171.459 47.2004L168.959 0.400391H185.459L182.959 47.2004H171.459ZM177.159 74.1004C174.559 74.1004 172.392 73.2004 170.659 71.4004C168.925 69.6004 168.059 67.4337 168.059 64.9004C168.059 62.2337 168.925 60.0337 170.659 58.3004C172.392 56.5004 174.559 55.6004 177.159 55.6004C179.825 55.6004 181.992 56.5004 183.659 58.3004C185.392 60.0337 186.259 62.2337 186.259 64.9004C186.259 67.4337 185.392 69.6004 183.659 71.4004C181.992 73.2004 179.825 74.1004 177.159 74.1004Z" fill="white"/>
<path opacity="0.3" d="M119.992 74.2012C114.659 74.2012 109.726 73.2678 105.192 71.4012C100.726 69.5345 96.7924 66.9345 93.3924 63.6012C89.9924 60.2678 87.3591 56.4012 85.4924 52.0012C83.6257 47.5345 82.6924 42.7345 82.6924 37.6012C82.6924 32.4012 83.6257 27.6012 85.4924 23.2012C87.3591 18.8012 89.9591 14.9678 93.2924 11.7012C96.6257 8.36784 100.526 5.80117 104.992 4.00117C109.526 2.1345 114.459 1.20117 119.792 1.20117C125.059 1.20117 129.926 2.1345 134.392 4.00117C138.926 5.80117 142.859 8.36784 146.192 11.7012C149.592 14.9678 152.226 18.8345 154.092 23.3012C155.959 27.7012 156.892 32.5012 156.892 37.7012C156.892 42.8345 155.959 47.6345 154.092 52.1012C152.226 56.5012 149.626 60.3678 146.292 63.7012C142.959 66.9678 139.026 69.5345 134.492 71.4012C130.026 73.2678 125.192 74.2012 119.992 74.2012ZM119.792 59.9012C123.992 59.9012 127.659 58.9678 130.792 57.1012C133.992 55.2345 136.459 52.6345 138.192 49.3012C139.926 45.9012 140.792 42.0012 140.792 37.6012C140.792 34.2678 140.292 31.2678 139.292 28.6012C138.292 25.8678 136.859 23.5345 134.992 21.6012C133.126 19.6012 130.892 18.1012 128.292 17.1012C125.759 16.0345 122.926 15.5012 119.792 15.5012C115.592 15.5012 111.892 16.4345 108.692 18.3012C105.559 20.1012 103.126 22.6678 101.392 26.0012C99.6591 29.2678 98.7924 33.1345 98.7924 37.6012C98.7924 40.9345 99.2924 43.9678 100.292 46.7012C101.292 49.4345 102.692 51.8012 104.492 53.8012C106.359 55.7345 108.592 57.2345 111.192 58.3012C113.792 59.3678 116.659 59.9012 119.792 59.9012Z" fill="white"/>
<path opacity="0.3" d="M37.1002 74.1008C31.9669 74.1008 27.1335 73.1674 22.6002 71.3008C18.1335 69.4341 14.2335 66.8674 10.9002 63.6008C7.56686 60.2674 4.93353 56.4008 3.0002 52.0008C1.13353 47.5341 0.200195 42.7341 0.200195 37.6008C0.200195 32.4674 1.16686 27.7008 3.1002 23.3008C5.03353 18.9008 7.7002 15.0674 11.1002 11.8008C14.5669 8.46744 18.6002 5.90078 23.2002 4.10078C27.8002 2.23411 32.7335 1.30078 38.0002 1.30078C44.0669 1.30078 49.5669 2.40078 54.5002 4.60078C59.5002 6.80078 63.6335 9.83411 66.9002 13.7008L56.2002 24.4008C53.9335 21.4674 51.2669 19.2674 48.2002 17.8008C45.1335 16.3341 41.6669 15.6008 37.8002 15.6008C33.6669 15.6008 29.9669 16.5341 26.7002 18.4008C23.4335 20.2008 20.8669 22.7674 19.0002 26.1008C17.2002 29.3674 16.3002 33.2008 16.3002 37.6008C16.3002 42.0008 17.2002 45.8674 19.0002 49.2008C20.8002 52.5341 23.2669 55.1341 26.4002 57.0008C29.5335 58.8674 33.1335 59.8008 37.2002 59.8008C41.3335 59.8008 44.8335 59.0341 47.7002 57.5008C50.6335 55.9008 52.8669 53.6341 54.4002 50.7008C56.0002 47.7008 56.8002 44.0674 56.8002 39.8008L67.2002 46.8008L35.7002 46.3008V33.0008H72.8002V35.3008C72.8002 43.7674 71.2669 50.9008 68.2002 56.7008C65.2002 62.4341 61.0002 66.7674 55.6002 69.7008C50.2669 72.6341 44.1002 74.1008 37.1002 74.1008Z" fill="white"/>
</svg>
