<svg width="1161" height="361" viewBox="0 0 1161 361" fill="none" xmlns="http://www.w3.org/2000/svg">
<g clip-path="url(#clip0_2029_9966)">
<path d="M1044.93 337.971H964.023C962.584 337.971 961.423 336.814 961.423 335.381C961.423 333.947 962.584 332.79 964.023 332.79H1042.33V168.136H966.624V185.696C966.624 187.129 965.462 188.286 964.023 188.286C962.584 188.286 961.423 187.129 961.423 185.696V165.546C961.423 164.112 962.584 162.955 964.023 162.955H1044.93C1046.37 162.955 1047.53 164.112 1047.53 165.546V335.381C1047.53 336.814 1046.37 337.971 1044.93 337.971Z" fill="#0D317C" fill-opacity="0.1"/>
<path d="M1044.93 196.922H997.691C996.252 196.922 995.091 195.764 995.091 194.331C995.091 192.897 996.252 191.74 997.691 191.74H1044.93C1046.37 191.74 1047.53 192.897 1047.53 194.331C1047.53 195.764 1046.37 196.922 1044.93 196.922Z" fill="#0D317C" fill-opacity="0.1"/>
<path d="M1044.93 214.193H997.691C996.252 214.193 995.091 213.036 995.091 211.602C995.091 210.169 996.252 209.012 997.691 209.012H1044.93C1046.37 209.012 1047.53 210.169 1047.53 211.602C1047.53 213.036 1046.37 214.193 1044.93 214.193Z" fill="#0D317C" fill-opacity="0.1"/>
<path d="M1044.93 231.465H997.691C996.252 231.465 995.091 230.307 995.091 228.874C995.091 227.44 996.252 226.283 997.691 226.283H1044.93C1046.37 226.283 1047.53 227.44 1047.53 228.874C1047.53 230.307 1046.37 231.465 1044.93 231.465Z" fill="#0D317C" fill-opacity="0.1"/>
<path d="M1044.93 248.736H997.691C996.252 248.736 995.091 247.579 995.091 246.145C995.091 244.712 996.252 243.555 997.691 243.555H1044.93C1046.37 243.555 1047.53 244.712 1047.53 246.145C1047.53 247.579 1046.37 248.736 1044.93 248.736Z" fill="#0D317C" fill-opacity="0.1"/>
<path d="M1044.93 266.008H997.691C996.252 266.008 995.091 264.85 995.091 263.417C995.091 261.983 996.252 260.826 997.691 260.826H1044.93C1046.37 260.826 1047.53 261.983 1047.53 263.417C1047.53 264.85 1046.37 266.008 1044.93 266.008Z" fill="#0D317C" fill-opacity="0.1"/>
<path d="M1044.93 283.279H997.691C996.252 283.279 995.091 282.122 995.091 280.688C995.091 279.255 996.252 278.098 997.691 278.098H1044.93C1046.37 278.098 1047.53 279.255 1047.53 280.688C1047.53 282.122 1046.37 283.279 1044.93 283.279Z" fill="#0D317C" fill-opacity="0.1"/>
<path d="M1044.93 300.551H997.691C996.252 300.551 995.091 299.393 995.091 297.96C995.091 296.526 996.252 295.369 997.691 295.369H1044.93C1046.37 295.369 1047.53 296.526 1047.53 297.96C1047.53 299.393 1046.37 300.551 1044.93 300.551Z" fill="#0D317C" fill-opacity="0.1"/>
<path d="M1044.93 317.822H1009.25C1007.81 317.822 1006.65 316.665 1006.65 315.231C1006.65 313.798 1007.81 312.641 1009.25 312.641H1044.93C1046.37 312.641 1047.53 313.798 1047.53 315.231C1047.53 316.665 1046.37 317.822 1044.93 317.822Z" fill="#0D317C" fill-opacity="0.1"/>
<path d="M946.686 188.286C945.247 188.286 944.085 187.129 944.085 185.695V105.908C940.918 104.157 925.858 101.929 903.343 101.929C894.345 101.929 885.735 102.292 878.447 102.983C877.02 103.121 875.749 102.073 875.61 100.651C875.471 99.2294 876.523 97.9628 877.95 97.8246C885.4 97.1165 894.178 96.748 903.338 96.748C915.028 96.748 926.032 97.3525 934.33 98.4579C946.778 100.11 949.281 102.223 949.281 105.096V185.695C949.281 187.129 948.119 188.286 946.68 188.286H946.686Z" fill="#0D317C" fill-opacity="0.1"/>
<path d="M946.686 130.716C945.57 130.716 944.617 130.019 944.247 129.035C941.473 127.273 926.274 124.959 903.343 124.959C894.345 124.959 885.735 125.321 878.447 126.012C877.02 126.15 875.749 125.103 875.61 123.681C875.471 122.259 876.523 120.992 877.95 120.854C885.4 120.146 894.178 119.777 903.338 119.777C915.028 119.777 926.032 120.382 934.33 121.487C946.778 123.14 949.281 125.252 949.281 128.125C949.281 129.559 948.119 130.716 946.68 130.716H946.686Z" fill="#0D317C" fill-opacity="0.1"/>
<path d="M946.686 147.987C945.57 147.987 944.617 147.291 944.247 146.306C941.473 144.545 926.274 142.23 903.343 142.23C894.345 142.23 885.735 142.593 878.447 143.284C877.02 143.422 875.749 142.374 875.61 140.952C875.471 139.53 876.523 138.264 877.95 138.125C885.4 137.417 894.178 137.049 903.338 137.049C915.028 137.049 926.032 137.653 934.33 138.759C946.778 140.411 949.281 142.524 949.281 145.397C949.281 146.83 948.119 147.987 946.68 147.987H946.686Z" fill="#0D317C" fill-opacity="0.1"/>
<path d="M946.686 157.774C945.57 157.774 944.617 157.078 944.247 156.093C941.473 154.332 926.274 152.017 903.343 152.017C894.345 152.017 885.735 152.38 878.447 153.071C877.02 153.209 875.749 152.161 875.61 150.739C875.471 149.317 876.523 148.051 877.95 147.913C885.4 147.204 894.178 146.836 903.338 146.836C915.028 146.836 926.032 147.44 934.33 148.546C946.778 150.198 949.281 152.311 949.281 155.184C949.281 156.617 948.119 157.774 946.68 157.774H946.686Z" fill="#0D317C" fill-opacity="0.1"/>
<path d="M946.686 171.015C945.57 171.015 944.617 170.318 944.247 169.334C941.473 167.572 926.274 165.258 903.343 165.258C894.345 165.258 885.735 165.62 878.447 166.311C877.02 166.449 875.749 165.402 875.61 163.979C875.471 162.557 876.523 161.291 877.95 161.153C885.4 160.445 894.178 160.076 903.338 160.076C915.028 160.076 926.032 160.681 934.33 161.786C946.778 163.438 949.281 165.551 949.281 168.424C949.281 169.858 948.119 171.015 946.68 171.015H946.686Z" fill="#0D317C" fill-opacity="0.1"/>
<path d="M946.686 180.802C945.57 180.802 944.617 180.105 944.247 179.121C941.473 177.359 926.274 175.045 903.343 175.045C894.345 175.045 885.735 175.407 878.447 176.098C877.02 176.236 875.749 175.189 875.61 173.767C875.471 172.345 876.523 171.078 877.95 170.94C885.4 170.232 894.178 169.863 903.338 169.863C915.028 169.863 926.032 170.468 934.33 171.573C946.778 173.225 949.281 175.338 949.281 178.211C949.281 179.645 948.119 180.802 946.68 180.802H946.686Z" fill="#0D317C" fill-opacity="0.1"/>
<path d="M865.78 188.287C864.341 188.287 863.179 187.13 863.179 185.696V88.24H747.021V128.125C747.021 129.559 745.86 130.716 744.421 130.716C742.982 130.716 741.82 129.559 741.82 128.125V85.6493C741.82 84.2158 742.982 83.0586 744.421 83.0586H865.78C867.219 83.0586 868.38 84.2158 868.38 85.6493V185.696C868.38 187.13 867.219 188.287 865.78 188.287Z" fill="#0D317C" fill-opacity="0.1"/>
<path d="M1158.4 337.972H1056.49C1055.05 337.972 1053.89 336.815 1053.89 335.382C1053.89 333.948 1055.05 332.791 1056.49 332.791H1158.4C1159.84 332.791 1161 333.948 1161 335.382C1161 336.815 1159.84 337.972 1158.4 337.972Z" fill="#0D317C" fill-opacity="0.1"/>
<path d="M1044.93 337.972H854.222C852.783 337.972 851.621 336.815 851.621 335.382C851.621 333.948 852.783 332.791 854.222 332.791H1044.93C1046.37 332.791 1047.53 333.948 1047.53 335.382C1047.53 336.815 1046.37 337.972 1044.93 337.972Z" fill="#0D317C" fill-opacity="0.1"/>
<path d="M842.664 337.972H637.51C636.071 337.972 634.909 336.815 634.909 335.382C634.909 333.948 636.071 332.791 637.51 332.791H842.664C844.103 332.791 845.265 333.948 845.265 335.382C845.265 336.815 844.103 337.972 842.664 337.972Z" fill="#0D317C" fill-opacity="0.1"/>
<path d="M617.283 337.972H339.892C338.453 337.972 337.291 336.815 337.291 335.382C337.291 333.948 338.453 332.791 339.892 332.791H617.283C618.722 332.791 619.884 333.948 619.884 335.382C619.884 336.815 618.722 337.972 617.283 337.972Z" fill="#0D317C" fill-opacity="0.1"/>
<path d="M325.444 337.972H68.2841C66.8452 337.972 65.6836 336.815 65.6836 335.382C65.6836 333.948 66.8452 332.791 68.2841 332.791H325.444C326.883 332.791 328.044 333.948 328.044 335.382C328.044 336.815 326.883 337.972 325.444 337.972Z" fill="#0D317C" fill-opacity="0.1"/>
<path d="M56.7266 337.972H2.60055C1.16158 337.972 0 336.815 0 335.382C0 333.948 1.16158 332.791 2.60055 332.791H56.7266C58.1656 332.791 59.3272 333.948 59.3272 335.382C59.3272 336.815 58.1656 337.972 56.7266 337.972Z" fill="#0D317C" fill-opacity="0.1"/>
<path d="M657.736 130.716C656.297 130.716 655.136 129.559 655.136 128.125V100.917C655.136 99.4834 656.297 98.3262 657.736 98.3262H708.742C710.181 98.3262 711.342 99.4834 711.342 100.917V114.02H732.863C734.302 114.02 735.464 115.177 735.464 116.611C735.464 118.044 734.302 119.201 732.863 119.201H708.742C707.303 119.201 706.141 118.044 706.141 116.611V103.508H660.337V128.125C660.337 129.559 659.175 130.716 657.736 130.716Z" fill="#0D317C" fill-opacity="0.1"/>
<path d="M1004.48 155.892C1003.04 155.892 1001.88 154.735 1001.88 153.301V72.4138H920.392V87.4226C920.392 88.8562 919.23 90.0133 917.791 90.0133C916.352 90.0133 915.19 88.8562 915.19 87.4226V69.8231C915.19 68.3896 916.352 67.2324 917.791 67.2324H1004.48C1005.91 67.2324 1007.08 68.3896 1007.08 69.8231V153.301C1007.08 154.735 1005.91 155.892 1004.48 155.892Z" fill="#0D317C" fill-opacity="0.1"/>
<path d="M1096.17 217.073C1094.73 217.073 1093.57 215.915 1093.57 214.482V143.531H1074.06C1072.62 143.531 1071.46 142.374 1071.46 140.941V127.486L1037.21 122.489V154.032C1037.21 155.466 1036.05 156.623 1034.61 156.623C1033.17 156.623 1032.01 155.466 1032.01 154.032V119.489C1032.01 118.735 1032.34 118.021 1032.91 117.532C1033.49 117.043 1034.24 116.818 1034.99 116.928L1074.44 122.685C1075.71 122.869 1076.66 123.963 1076.66 125.247V138.35H1096.17C1097.61 138.35 1098.77 139.507 1098.77 140.941V214.482C1098.77 215.915 1097.61 217.073 1096.17 217.073Z" fill="#0D317C" fill-opacity="0.1"/>
<path d="M812.324 337.972C810.885 337.972 809.724 336.815 809.724 335.382V264.12C809.724 262.686 810.885 261.529 812.324 261.529H832.551C833.99 261.529 835.151 262.686 835.151 264.12C835.151 265.554 833.99 266.711 832.551 266.711H814.925V335.382C814.925 336.815 813.763 337.972 812.324 337.972Z" fill="#0D317C" fill-opacity="0.1"/>
<path d="M829.661 272.474H826.771C823.743 272.474 821.281 270.021 821.281 267.004V264.126C821.281 262.692 822.443 261.535 823.882 261.535H832.55C833.989 261.535 835.151 262.692 835.151 264.126V267.004C835.151 270.021 832.689 272.474 829.661 272.474ZM826.482 266.717V267.004C826.482 267.166 826.609 267.292 826.771 267.292H829.661C829.823 267.292 829.95 267.166 829.95 267.004V266.717H826.482Z" fill="#0D317C" fill-opacity="0.1"/>
<path d="M767.537 337.972H637.51C636.071 337.972 634.909 336.815 634.909 335.382V139.64C634.909 138.206 636.071 137.049 637.51 137.049H767.537C768.976 137.049 770.138 138.206 770.138 139.64V300.016C770.138 301.449 768.976 302.606 767.537 302.606C766.098 302.606 764.937 301.449 764.937 300.016V142.23H640.11V332.791H767.537C768.976 332.791 770.138 333.948 770.138 335.382C770.138 336.815 768.976 337.972 767.537 337.972Z" fill="#0D317C" fill-opacity="0.1"/>
<path d="M750.201 191.164H666.405C664.966 191.164 663.805 190.007 663.805 188.573C663.805 187.14 664.966 185.982 666.405 185.982H750.201C751.64 185.982 752.801 187.14 752.801 188.573C752.801 190.007 751.64 191.164 750.201 191.164Z" fill="#0D317C" fill-opacity="0.1"/>
<path d="M750.201 199.799H666.405C664.966 199.799 663.805 198.641 663.805 197.208C663.805 195.774 664.966 194.617 666.405 194.617H750.201C751.64 194.617 752.801 195.774 752.801 197.208C752.801 198.641 751.64 199.799 750.201 199.799Z" fill="#0D317C" fill-opacity="0.1"/>
<path d="M657.736 199.8C656.297 199.8 655.136 198.642 655.136 197.209V188.573C655.136 187.14 656.297 185.982 657.736 185.982C659.175 185.982 660.337 187.14 660.337 188.573V197.209C660.337 198.642 659.175 199.8 657.736 199.8Z" fill="#0D317C" fill-opacity="0.1"/>
<path d="M750.201 165.258H666.405C664.966 165.258 663.805 164.1 663.805 162.667C663.805 161.233 664.966 160.076 666.405 160.076H750.201C751.64 160.076 752.801 161.233 752.801 162.667C752.801 164.1 751.64 165.258 750.201 165.258Z" fill="#0D317C" fill-opacity="0.1"/>
<path d="M750.201 173.892H666.405C664.966 173.892 663.805 172.735 663.805 171.302C663.805 169.868 664.966 168.711 666.405 168.711H750.201C751.64 168.711 752.801 169.868 752.801 171.302C752.801 172.735 751.64 173.892 750.201 173.892Z" fill="#0D317C" fill-opacity="0.1"/>
<path d="M657.736 173.893C656.297 173.893 655.136 172.736 655.136 171.303V162.667C655.136 161.233 656.297 160.076 657.736 160.076C659.175 160.076 660.337 161.233 660.337 162.667V171.303C660.337 172.736 659.175 173.893 657.736 173.893Z" fill="#0D317C" fill-opacity="0.1"/>
<path d="M750.201 242.978H666.405C664.966 242.978 663.805 241.821 663.805 240.388C663.805 238.954 664.966 237.797 666.405 237.797H750.201C751.64 237.797 752.801 238.954 752.801 240.388C752.801 241.821 751.64 242.978 750.201 242.978Z" fill="#0D317C" fill-opacity="0.1"/>
<path d="M750.201 251.613H666.405C664.966 251.613 663.805 250.456 663.805 249.022C663.805 247.589 664.966 246.432 666.405 246.432H750.201C751.64 246.432 752.801 247.589 752.801 249.022C752.801 250.456 751.64 251.613 750.201 251.613Z" fill="#0D317C" fill-opacity="0.1"/>
<path d="M657.736 251.614C656.297 251.614 655.136 250.457 655.136 249.023V240.388C655.136 238.954 656.297 237.797 657.736 237.797C659.175 237.797 660.337 238.954 660.337 240.388V249.023C660.337 250.457 659.175 251.614 657.736 251.614Z" fill="#0D317C" fill-opacity="0.1"/>
<path d="M750.201 217.072H666.405C664.966 217.072 663.805 215.915 663.805 214.481C663.805 213.048 664.966 211.891 666.405 211.891H750.201C751.64 211.891 752.801 213.048 752.801 214.481C752.801 215.915 751.64 217.072 750.201 217.072Z" fill="#0D317C" fill-opacity="0.1"/>
<path d="M750.201 225.707H666.405C664.966 225.707 663.805 224.55 663.805 223.116C663.805 221.683 664.966 220.525 666.405 220.525H750.201C751.64 220.525 752.801 221.683 752.801 223.116C752.801 224.55 751.64 225.707 750.201 225.707Z" fill="#0D317C" fill-opacity="0.1"/>
<path d="M657.736 225.708C656.297 225.708 655.136 224.551 655.136 223.117V214.481C655.136 213.048 656.297 211.891 657.736 211.891C659.175 211.891 660.337 213.048 660.337 214.481V223.117C660.337 224.551 659.175 225.708 657.736 225.708Z" fill="#0D317C" fill-opacity="0.1"/>
<path d="M750.2 294.793H695.3C693.861 294.793 692.699 293.636 692.699 292.202C692.699 290.769 693.861 289.611 695.3 289.611H750.2C751.639 289.611 752.801 290.769 752.801 292.202C752.801 293.636 751.639 294.793 750.2 294.793Z" fill="#0D317C" fill-opacity="0.1"/>
<path d="M750.2 303.427H695.3C693.861 303.427 692.699 302.27 692.699 300.837C692.699 299.403 693.861 298.246 695.3 298.246H750.2C751.639 298.246 752.801 299.403 752.801 300.837C752.801 302.27 751.639 303.427 750.2 303.427Z" fill="#0D317C" fill-opacity="0.1"/>
<path d="M750.2 268.886H689.52C688.081 268.886 686.92 267.729 686.92 266.296C686.92 264.862 688.081 263.705 689.52 263.705H750.2C751.639 263.705 752.8 264.862 752.8 266.296C752.8 267.729 751.639 268.886 750.2 268.886Z" fill="#0D317C" fill-opacity="0.1"/>
<path d="M750.2 277.521H689.52C688.081 277.521 686.92 276.364 686.92 274.931C686.92 273.497 688.081 272.34 689.52 272.34H750.2C751.639 272.34 752.8 273.497 752.8 274.931C752.8 276.364 751.639 277.521 750.2 277.521Z" fill="#0D317C" fill-opacity="0.1"/>
<path d="M854.222 337.972C852.783 337.972 851.621 336.815 851.621 335.381V220.239C851.621 218.806 852.783 217.648 854.222 217.648C855.661 217.648 856.822 218.806 856.822 220.239V335.381C856.822 336.815 855.661 337.972 854.222 337.972Z" fill="#0D317C" fill-opacity="0.1"/>
<path d="M975.581 326.457C974.142 326.457 972.98 325.3 972.98 323.866V199.801H854.222C852.783 199.801 851.621 198.643 851.621 197.21C851.621 195.776 852.783 194.619 854.222 194.619H975.581C977.019 194.619 978.181 195.776 978.181 197.21V323.866C978.181 325.3 977.019 326.457 975.581 326.457Z" fill="#0D317C" fill-opacity="0.1"/>
<path d="M884.562 231.466H875.894C874.455 231.466 873.293 230.308 873.293 228.875V220.239C873.293 218.806 874.455 217.648 875.894 217.648H884.562C886.001 217.648 887.163 218.806 887.163 220.239V228.875C887.163 230.308 886.001 231.466 884.562 231.466ZM878.494 226.284H881.961V222.83H878.494V226.284Z" fill="#0D317C" fill-opacity="0.1"/>
<path d="M907.678 231.466H899.01C897.571 231.466 896.409 230.308 896.409 228.875V220.239C896.409 218.806 897.571 217.648 899.01 217.648H907.678C909.117 217.648 910.279 218.806 910.279 220.239V228.875C910.279 230.308 909.117 231.466 907.678 231.466ZM901.61 226.284H905.078V222.83H901.61V226.284Z" fill="#0D317C" fill-opacity="0.1"/>
<path d="M930.793 231.466H922.125C920.686 231.466 919.524 230.308 919.524 228.875V220.239C919.524 218.806 920.686 217.648 922.125 217.648H930.793C932.232 217.648 933.394 218.806 933.394 220.239V228.875C933.394 230.308 932.232 231.466 930.793 231.466ZM924.726 226.284H928.193V222.83H924.726V226.284Z" fill="#0D317C" fill-opacity="0.1"/>
<path d="M884.562 257.372H875.894C874.455 257.372 873.293 256.215 873.293 254.781V246.145C873.293 244.712 874.455 243.555 875.894 243.555H884.562C886.001 243.555 887.163 244.712 887.163 246.145V254.781C887.163 256.215 886.001 257.372 884.562 257.372ZM878.494 252.19H881.961V248.736H878.494V252.19Z" fill="#0D317C" fill-opacity="0.1"/>
<path d="M907.678 257.372H899.01C897.571 257.372 896.409 256.215 896.409 254.781V246.145C896.409 244.712 897.571 243.555 899.01 243.555H907.678C909.117 243.555 910.279 244.712 910.279 246.145V254.781C910.279 256.215 909.117 257.372 907.678 257.372ZM901.61 252.19H905.078V248.736H901.61V252.19Z" fill="#0D317C" fill-opacity="0.1"/>
<path d="M930.793 257.372H922.125C920.686 257.372 919.524 256.215 919.524 254.781V246.145C919.524 244.712 920.686 243.555 922.125 243.555H930.793C932.232 243.555 933.394 244.712 933.394 246.145V254.781C933.394 256.215 932.232 257.372 930.793 257.372ZM924.726 252.19H928.193V248.736H924.726V252.19Z" fill="#0D317C" fill-opacity="0.1"/>
<path d="M884.562 283.278H875.894C874.455 283.278 873.293 282.121 873.293 280.687V272.052C873.293 270.618 874.455 269.461 875.894 269.461H884.562C886.001 269.461 887.163 270.618 887.163 272.052V280.687C887.163 282.121 886.001 283.278 884.562 283.278ZM878.494 278.097H881.961V274.642H878.494V278.097Z" fill="#0D317C" fill-opacity="0.1"/>
<path d="M907.678 283.278H899.01C897.571 283.278 896.409 282.121 896.409 280.687V272.052C896.409 270.618 897.571 269.461 899.01 269.461H907.678C909.117 269.461 910.279 270.618 910.279 272.052V280.687C910.279 282.121 909.117 283.278 907.678 283.278ZM901.61 278.097H905.078V274.642H901.61V278.097Z" fill="#0D317C" fill-opacity="0.1"/>
<path d="M930.793 283.278H922.125C920.686 283.278 919.524 282.121 919.524 280.687V272.052C919.524 270.618 920.686 269.461 922.125 269.461H930.793C932.232 269.461 933.394 270.618 933.394 272.052V280.687C933.394 282.121 932.232 283.278 930.793 283.278ZM924.726 278.097H928.193V274.642H924.726V278.097Z" fill="#0D317C" fill-opacity="0.1"/>
<path d="M884.562 309.186H875.894C874.455 309.186 873.293 308.029 873.293 306.596V297.96C873.293 296.526 874.455 295.369 875.894 295.369H884.562C886.001 295.369 887.163 296.526 887.163 297.96V306.596C887.163 308.029 886.001 309.186 884.562 309.186ZM878.494 304.005H881.961V300.551H878.494V304.005Z" fill="#0D317C" fill-opacity="0.1"/>
<path d="M907.678 309.186H899.01C897.571 309.186 896.409 308.029 896.409 306.596V297.96C896.409 296.526 897.571 295.369 899.01 295.369H907.678C909.117 295.369 910.279 296.526 910.279 297.96V306.596C910.279 308.029 909.117 309.186 907.678 309.186ZM901.61 304.005H905.078V300.551H901.61V304.005Z" fill="#0D317C" fill-opacity="0.1"/>
<path d="M930.793 309.186H922.125C920.686 309.186 919.524 308.029 919.524 306.596V297.96C919.524 296.526 920.686 295.369 922.125 295.369H930.793C932.232 295.369 933.394 296.526 933.394 297.96V306.596C933.394 308.029 932.232 309.186 930.793 309.186ZM924.726 304.005H928.193V300.551H924.726V304.005Z" fill="#0D317C" fill-opacity="0.1"/>
<path d="M953.91 231.466H945.241C943.802 231.466 942.641 230.308 942.641 228.875V220.239C942.641 218.806 943.802 217.648 945.241 217.648H953.91C955.349 217.648 956.51 218.806 956.51 220.239V228.875C956.51 230.308 955.349 231.466 953.91 231.466ZM947.842 226.284H951.309V222.83H947.842V226.284Z" fill="#0D317C" fill-opacity="0.1"/>
<path d="M953.91 257.372H945.241C943.802 257.372 942.641 256.215 942.641 254.781V246.145C942.641 244.712 943.802 243.555 945.241 243.555H953.91C955.349 243.555 956.51 244.712 956.51 246.145V254.781C956.51 256.215 955.349 257.372 953.91 257.372ZM947.842 252.19H951.309V248.736H947.842V252.19Z" fill="#0D317C" fill-opacity="0.1"/>
<path d="M953.91 283.28H945.241C943.802 283.28 942.641 282.123 942.641 280.689V272.054C942.641 270.62 943.802 269.463 945.241 269.463H953.91C955.349 269.463 956.51 270.62 956.51 272.054V280.689C956.51 282.123 955.349 283.28 953.91 283.28ZM947.842 278.099H951.309V274.644H947.842V278.099Z" fill="#0D317C" fill-opacity="0.1"/>
<path d="M953.91 309.186H945.241C943.802 309.186 942.641 308.029 942.641 306.596V297.96C942.641 296.526 943.802 295.369 945.241 295.369H953.91C955.349 295.369 956.51 296.526 956.51 297.96V306.596C956.51 308.029 955.349 309.186 953.91 309.186ZM947.842 304.005H951.309V300.551H947.842V304.005Z" fill="#0D317C" fill-opacity="0.1"/>
<path d="M697.189 91.999C695.75 91.999 694.589 90.8418 694.589 89.4083V64.8023C694.589 63.6855 695.305 62.6952 696.369 62.3441L765.717 39.3156C766.508 39.0508 767.381 39.1832 768.057 39.6725C768.733 40.1619 769.138 40.9391 769.138 41.7739V74.1404C769.138 75.5739 767.976 76.7311 766.537 76.7311C765.098 76.7311 763.937 75.5739 763.937 74.1404V45.3663L699.79 66.6676V89.4083C699.79 90.8418 698.628 91.999 697.189 91.999Z" fill="#0D317C" fill-opacity="0.1"/>
<path d="M617.284 272.474H495.925C494.486 272.474 493.324 271.316 493.324 269.883C493.324 268.449 494.486 267.292 495.925 267.292H614.683V88.2459H498.525V258.369C498.525 259.802 497.364 260.959 495.925 260.959C494.486 260.959 493.324 259.802 493.324 258.369V85.6552C493.324 84.2216 494.486 83.0645 495.925 83.0645H617.284C618.723 83.0645 619.884 84.2216 619.884 85.6552V269.883C619.884 271.316 618.723 272.474 617.284 272.474Z" fill="#0D317C" fill-opacity="0.1"/>
<path d="M495.925 283.987C494.486 283.987 493.324 282.829 493.324 281.396V269.882C493.324 268.448 494.486 267.291 495.925 267.291C497.364 267.291 498.525 268.448 498.525 269.882V281.396C498.525 282.829 497.364 283.987 495.925 283.987Z" fill="#0D317C" fill-opacity="0.1"/>
<path d="M617.284 283.987H495.925C494.486 283.987 493.324 282.829 493.324 281.396C493.324 279.962 494.486 278.805 495.925 278.805H614.683V272.472H495.925C494.486 272.472 493.324 271.315 493.324 269.882C493.324 268.448 494.486 267.291 495.925 267.291H617.284C618.723 267.291 619.884 268.448 619.884 269.882V281.396C619.884 282.829 618.723 283.987 617.284 283.987Z" fill="#0D317C" fill-opacity="0.1"/>
<path d="M526.264 119.909H517.596C516.157 119.909 514.995 118.752 514.995 117.318V108.682C514.995 107.249 516.157 106.092 517.596 106.092H526.264C527.703 106.092 528.865 107.249 528.865 108.682V117.318C528.865 118.752 527.703 119.909 526.264 119.909ZM520.196 114.727H523.664V111.273H520.196V114.727Z" fill="#0D317C" fill-opacity="0.1"/>
<path d="M549.38 119.909H540.712C539.273 119.909 538.111 118.752 538.111 117.318V108.682C538.111 107.249 539.273 106.092 540.712 106.092H549.38C550.819 106.092 551.981 107.249 551.981 108.682V117.318C551.981 118.752 550.819 119.909 549.38 119.909ZM543.312 114.727H546.78V111.273H543.312V114.727Z" fill="#0D317C" fill-opacity="0.1"/>
<path d="M572.497 119.909H563.828C562.389 119.909 561.228 118.752 561.228 117.318V108.682C561.228 107.249 562.389 106.092 563.828 106.092H572.497C573.936 106.092 575.097 107.249 575.097 108.682V117.318C575.097 118.752 573.936 119.909 572.497 119.909ZM566.429 114.727H569.896V111.273H566.429V114.727Z" fill="#0D317C" fill-opacity="0.1"/>
<path d="M595.612 119.909H586.943C585.504 119.909 584.343 118.752 584.343 117.318V108.682C584.343 107.249 585.504 106.092 586.943 106.092H595.612C597.051 106.092 598.212 107.249 598.212 108.682V117.318C598.212 118.752 597.051 119.909 595.612 119.909ZM589.544 114.727H593.011V111.273H589.544V114.727Z" fill="#0D317C" fill-opacity="0.1"/>
<path d="M526.264 145.817H517.596C516.157 145.817 514.995 144.66 514.995 143.226V134.591C514.995 133.157 516.157 132 517.596 132H526.264C527.703 132 528.865 133.157 528.865 134.591V143.226C528.865 144.66 527.703 145.817 526.264 145.817ZM520.196 140.636H523.664V137.181H520.196V140.636Z" fill="#0D317C" fill-opacity="0.1"/>
<path d="M549.38 145.817H540.712C539.273 145.817 538.111 144.66 538.111 143.226V134.591C538.111 133.157 539.273 132 540.712 132H549.38C550.819 132 551.981 133.157 551.981 134.591V143.226C551.981 144.66 550.819 145.817 549.38 145.817ZM543.312 140.636H546.78V137.181H543.312V140.636Z" fill="#0D317C" fill-opacity="0.1"/>
<path d="M572.497 145.817H563.828C562.389 145.817 561.228 144.66 561.228 143.226V134.591C561.228 133.157 562.389 132 563.828 132H572.497C573.936 132 575.097 133.157 575.097 134.591V143.226C575.097 144.66 573.936 145.817 572.497 145.817ZM566.429 140.636H569.896V137.181H566.429V140.636Z" fill="#0D317C" fill-opacity="0.1"/>
<path d="M595.612 145.817H586.943C585.504 145.817 584.343 144.66 584.343 143.226V134.591C584.343 133.157 585.504 132 586.943 132H595.612C597.051 132 598.212 133.157 598.212 134.591V143.226C598.212 144.66 597.051 145.817 595.612 145.817ZM589.544 140.636H593.011V137.181H589.544V140.636Z" fill="#0D317C" fill-opacity="0.1"/>
<path d="M526.264 171.723H517.596C516.157 171.723 514.995 170.566 514.995 169.133V160.497C514.995 159.063 516.157 157.906 517.596 157.906H526.264C527.703 157.906 528.865 159.063 528.865 160.497V169.133C528.865 170.566 527.703 171.723 526.264 171.723ZM520.196 166.542H523.664V163.088H520.196V166.542Z" fill="#0D317C" fill-opacity="0.1"/>
<path d="M549.38 171.723H540.712C539.273 171.723 538.111 170.566 538.111 169.133V160.497C538.111 159.063 539.273 157.906 540.712 157.906H549.38C550.819 157.906 551.981 159.063 551.981 160.497V169.133C551.981 170.566 550.819 171.723 549.38 171.723ZM543.312 166.542H546.78V163.088H543.312V166.542Z" fill="#0D317C" fill-opacity="0.1"/>
<path d="M572.497 171.723H563.828C562.389 171.723 561.228 170.566 561.228 169.133V160.497C561.228 159.063 562.389 157.906 563.828 157.906H572.497C573.936 157.906 575.097 159.063 575.097 160.497V169.133C575.097 170.566 573.936 171.723 572.497 171.723ZM566.429 166.542H569.896V163.088H566.429V166.542Z" fill="#0D317C" fill-opacity="0.1"/>
<path d="M595.612 171.723H586.943C585.504 171.723 584.343 170.566 584.343 169.133V160.497C584.343 159.063 585.504 157.906 586.943 157.906H595.612C597.051 157.906 598.212 159.063 598.212 160.497V169.133C598.212 170.566 597.051 171.723 595.612 171.723ZM589.544 166.542H593.011V163.088H589.544V166.542Z" fill="#0D317C" fill-opacity="0.1"/>
<path d="M526.264 197.63H517.596C516.157 197.63 514.995 196.472 514.995 195.039V186.403C514.995 184.97 516.157 183.812 517.596 183.812H526.264C527.703 183.812 528.865 184.97 528.865 186.403V195.039C528.865 196.472 527.703 197.63 526.264 197.63ZM520.196 192.448H523.664V188.994H520.196V192.448Z" fill="#0D317C" fill-opacity="0.1"/>
<path d="M549.38 197.63H540.712C539.273 197.63 538.111 196.472 538.111 195.039V186.403C538.111 184.97 539.273 183.812 540.712 183.812H549.38C550.819 183.812 551.981 184.97 551.981 186.403V195.039C551.981 196.472 550.819 197.63 549.38 197.63ZM543.312 192.448H546.78V188.994H543.312V192.448Z" fill="#0D317C" fill-opacity="0.1"/>
<path d="M572.497 197.63H563.828C562.389 197.63 561.228 196.472 561.228 195.039V186.403C561.228 184.97 562.389 183.812 563.828 183.812H572.497C573.936 183.812 575.097 184.97 575.097 186.403V195.039C575.097 196.472 573.936 197.63 572.497 197.63ZM566.429 192.448H569.896V188.994H566.429V192.448Z" fill="#0D317C" fill-opacity="0.1"/>
<path d="M595.612 197.63H586.943C585.504 197.63 584.343 196.472 584.343 195.039V186.403C584.343 184.97 585.504 183.812 586.943 183.812H595.612C597.051 183.812 598.212 184.97 598.212 186.403V195.039C598.212 196.472 597.051 197.63 595.612 197.63ZM589.544 192.448H593.011V188.994H589.544V192.448Z" fill="#0D317C" fill-opacity="0.1"/>
<path d="M526.264 223.538H517.596C516.157 223.538 514.995 222.381 514.995 220.947V212.311C514.995 210.878 516.157 209.721 517.596 209.721H526.264C527.703 209.721 528.865 210.878 528.865 212.311V220.947C528.865 222.381 527.703 223.538 526.264 223.538ZM520.196 218.356H523.664V214.902H520.196V218.356Z" fill="#0D317C" fill-opacity="0.1"/>
<path d="M549.38 223.538H540.712C539.273 223.538 538.111 222.381 538.111 220.947V212.311C538.111 210.878 539.273 209.721 540.712 209.721H549.38C550.819 209.721 551.981 210.878 551.981 212.311V220.947C551.981 222.381 550.819 223.538 549.38 223.538ZM543.312 218.356H546.78V214.902H543.312V218.356Z" fill="#0D317C" fill-opacity="0.1"/>
<path d="M572.497 223.538H563.828C562.389 223.538 561.228 222.381 561.228 220.947V212.311C561.228 210.878 562.389 209.721 563.828 209.721H572.497C573.936 209.721 575.097 210.878 575.097 212.311V220.947C575.097 222.381 573.936 223.538 572.497 223.538ZM566.429 218.356H569.896V214.902H566.429V218.356Z" fill="#0D317C" fill-opacity="0.1"/>
<path d="M595.612 223.538H586.943C585.504 223.538 584.343 222.381 584.343 220.947V212.311C584.343 210.878 585.504 209.721 586.943 209.721H595.612C597.051 209.721 598.212 210.878 598.212 212.311V220.947C598.212 222.381 597.051 223.538 595.612 223.538ZM589.544 218.356H593.011V214.902H589.544V218.356Z" fill="#0D317C" fill-opacity="0.1"/>
<path d="M526.264 249.444H517.596C516.157 249.444 514.995 248.287 514.995 246.853V238.218C514.995 236.784 516.157 235.627 517.596 235.627H526.264C527.703 235.627 528.865 236.784 528.865 238.218V246.853C528.865 248.287 527.703 249.444 526.264 249.444ZM520.196 244.263H523.664V240.808H520.196V244.263Z" fill="#0D317C" fill-opacity="0.1"/>
<path d="M549.38 249.444H540.712C539.273 249.444 538.111 248.287 538.111 246.853V238.218C538.111 236.784 539.273 235.627 540.712 235.627H549.38C550.819 235.627 551.981 236.784 551.981 238.218V246.853C551.981 248.287 550.819 249.444 549.38 249.444ZM543.312 244.263H546.78V240.808H543.312V244.263Z" fill="#0D317C" fill-opacity="0.1"/>
<path d="M572.497 249.444H563.828C562.389 249.444 561.228 248.287 561.228 246.853V238.218C561.228 236.784 562.389 235.627 563.828 235.627H572.497C573.936 235.627 575.097 236.784 575.097 238.218V246.853C575.097 248.287 573.936 249.444 572.497 249.444ZM566.429 244.263H569.896V240.808H566.429V244.263Z" fill="#0D317C" fill-opacity="0.1"/>
<path d="M595.612 249.444H586.943C585.504 249.444 584.343 248.287 584.343 246.853V238.218C584.343 236.784 585.504 235.627 586.943 235.627H595.612C597.051 235.627 598.212 236.784 598.212 238.218V246.853C598.212 248.287 597.051 249.444 595.612 249.444ZM589.544 244.263H593.011V240.808H589.544V244.263Z" fill="#0D317C" fill-opacity="0.1"/>
<path d="M398.687 127.837C397.248 127.837 396.087 126.679 396.087 125.246V112.431C396.087 110.997 397.248 109.84 398.687 109.84H478.588C480.027 109.84 481.188 110.997 481.188 112.431C481.188 113.864 480.027 115.021 478.588 115.021H401.288V125.246C401.288 126.679 400.126 127.837 398.687 127.837Z" fill="#0D317C" fill-opacity="0.1"/>
<path d="M513.262 337.972H495.925C494.486 337.972 493.324 336.815 493.324 335.382V281.391C493.324 279.958 494.486 278.801 495.925 278.801H513.262C514.701 278.801 515.862 279.958 515.862 281.391C515.862 282.825 514.701 283.982 513.262 283.982H498.525V332.791H510.661V292.906C510.661 291.472 511.823 290.315 513.262 290.315C514.701 290.315 515.862 291.472 515.862 292.906V335.382C515.862 336.815 514.701 337.972 513.262 337.972Z" fill="#0D317C" fill-opacity="0.1"/>
<path d="M547.936 337.971H530.599C529.16 337.971 527.998 336.813 527.998 335.38V298.661C527.998 297.227 529.16 296.07 530.599 296.07C532.038 296.07 533.199 297.227 533.199 298.661V332.789H545.335V301.252H539.267C537.828 301.252 536.667 300.095 536.667 298.661C536.667 297.227 537.828 296.07 539.267 296.07H547.936C549.375 296.07 550.536 297.227 550.536 298.661V335.38C550.536 336.813 549.375 337.971 547.936 337.971Z" fill="#0D317C" fill-opacity="0.1"/>
<path d="M565.272 337.971H547.936C546.497 337.971 545.335 336.813 545.335 335.38V298.661C545.335 297.227 546.497 296.07 547.936 296.07H565.272C566.711 296.07 567.873 297.227 567.873 298.661V335.38C567.873 336.813 566.711 337.971 565.272 337.971ZM550.536 332.789H562.672V301.252H550.536V332.789Z" fill="#0D317C" fill-opacity="0.1"/>
<path d="M582.609 337.971H565.272C563.833 337.971 562.672 336.813 562.672 335.38V298.661C562.672 297.227 563.833 296.07 565.272 296.07H582.609C584.048 296.07 585.21 297.227 585.21 298.661V335.38C585.21 336.813 584.048 337.971 582.609 337.971ZM567.873 332.789H580.009V301.252H567.873V332.789Z" fill="#0D317C" fill-opacity="0.1"/>
<path d="M279.218 326.457C277.779 326.457 276.617 325.299 276.617 323.866V177.059C276.617 175.626 277.779 174.469 279.218 174.469C280.657 174.469 281.818 175.626 281.818 177.059V323.866C281.818 325.299 280.657 326.457 279.218 326.457Z" fill="#0D317C" fill-opacity="0.1"/>
<path d="M279.218 179.651C278.554 179.651 277.889 179.398 277.381 178.891L252.282 153.888C251.265 152.875 251.265 151.234 252.282 150.227C253.299 149.213 254.946 149.213 255.958 150.227L281.056 175.23C282.073 176.243 282.073 177.884 281.056 178.891C280.547 179.398 279.883 179.651 279.218 179.651Z" fill="#0D317C" fill-opacity="0.1"/>
<path d="M183.864 188.286C182.425 188.286 181.264 187.128 181.264 185.695V142.516C181.264 141.083 182.425 139.926 183.864 139.926H244.544C245.983 139.926 247.144 141.083 247.144 142.516C247.144 143.95 245.983 145.107 244.544 145.107H186.465V185.695C186.465 187.128 185.303 188.286 183.864 188.286Z" fill="#0D317C" fill-opacity="0.1"/>
<path d="M308.113 133.595C306.674 133.595 305.513 132.437 305.513 131.004V64.7971C305.513 63.9393 305.94 63.1333 306.657 62.6497C307.374 62.1661 308.281 62.0682 309.078 62.3906L366.868 85.4191C367.857 85.8106 368.504 86.7662 368.504 87.8256V125.247C368.504 126.68 367.342 127.838 365.903 127.838C364.464 127.838 363.303 126.68 363.303 125.247V89.5815L310.714 68.6256V131.004C310.714 132.437 309.552 133.595 308.113 133.595Z" fill="#0D317C" fill-opacity="0.1"/>
<path d="M141.493 165.258C140.054 165.258 138.893 164.101 138.893 162.667V128.124C138.893 126.691 140.054 125.534 141.493 125.534H195.677V112.431C195.677 110.997 196.839 109.84 198.278 109.84H283.957C285.396 109.84 286.557 110.997 286.557 112.431V129.702C286.557 131.135 285.396 132.293 283.957 132.293C282.518 132.293 281.356 131.135 281.356 129.702V115.021H200.878V128.124C200.878 129.558 199.717 130.715 198.278 130.715H144.094V162.667C144.094 164.101 142.932 165.258 141.493 165.258Z" fill="#0D317C" fill-opacity="0.1"/>
<path d="M325.45 179.65H290.776C289.337 179.65 288.176 178.493 288.176 177.059C288.176 175.626 289.337 174.469 290.776 174.469H325.45C326.889 174.469 328.051 175.626 328.051 177.059C328.051 178.493 326.889 179.65 325.45 179.65Z" fill="#0D317C" fill-opacity="0.1"/>
<path d="M325.45 150.864C324.785 150.864 324.121 150.611 323.612 150.104L318.596 145.107H244.544C243.105 145.107 241.943 143.95 241.943 142.516C241.943 141.083 243.105 139.926 244.544 139.926H319.671C320.359 139.926 321.023 140.196 321.509 140.686L327.288 146.443C328.305 147.456 328.305 149.097 327.288 150.104C326.779 150.611 326.114 150.864 325.45 150.864Z" fill="#0D317C" fill-opacity="0.1"/>
<path d="M189.643 337.971H68.2841C66.8452 337.971 65.6836 336.814 65.6836 335.381V197.21C65.6836 195.776 66.8452 194.619 68.2841 194.619H189.643C191.082 194.619 192.244 195.776 192.244 197.21V300.015C192.244 301.448 191.082 302.605 189.643 302.605C188.204 302.605 187.042 301.448 187.042 300.015V199.801H70.8847V332.79H189.643C191.082 332.79 192.244 333.947 192.244 335.381C192.244 336.814 191.082 337.971 189.643 337.971Z" fill="#0D317C" fill-opacity="0.1"/>
<path d="M98.6245 231.466H89.956C88.517 231.466 87.3555 230.308 87.3555 228.875V220.239C87.3555 218.806 88.517 217.648 89.956 217.648H98.6245C100.063 217.648 101.225 218.806 101.225 220.239V228.875C101.225 230.308 100.063 231.466 98.6245 231.466ZM92.5566 226.284H96.024V222.83H92.5566V226.284Z" fill="#0D317C" fill-opacity="0.1"/>
<path d="M121.741 231.466H113.072C111.633 231.466 110.472 230.308 110.472 228.875V220.239C110.472 218.806 111.633 217.648 113.072 217.648H121.741C123.18 217.648 124.341 218.806 124.341 220.239V228.875C124.341 230.308 123.18 231.466 121.741 231.466ZM115.673 226.284H119.14V222.83H115.673V226.284Z" fill="#0D317C" fill-opacity="0.1"/>
<path d="M144.856 231.466H136.187C134.748 231.466 133.587 230.308 133.587 228.875V220.239C133.587 218.806 134.748 217.648 136.187 217.648H144.856C146.295 217.648 147.457 218.806 147.457 220.239V228.875C147.457 230.308 146.295 231.466 144.856 231.466ZM138.788 226.284H142.255V222.83H138.788V226.284Z" fill="#0D317C" fill-opacity="0.1"/>
<path d="M98.6245 257.372H89.956C88.517 257.372 87.3555 256.215 87.3555 254.781V246.145C87.3555 244.712 88.517 243.555 89.956 243.555H98.6245C100.063 243.555 101.225 244.712 101.225 246.145V254.781C101.225 256.215 100.063 257.372 98.6245 257.372ZM92.5566 252.19H96.024V248.736H92.5566V252.19Z" fill="#0D317C" fill-opacity="0.1"/>
<path d="M121.741 257.372H113.072C111.633 257.372 110.472 256.215 110.472 254.781V246.145C110.472 244.712 111.633 243.555 113.072 243.555H121.741C123.18 243.555 124.341 244.712 124.341 246.145V254.781C124.341 256.215 123.18 257.372 121.741 257.372ZM115.673 252.19H119.14V248.736H115.673V252.19Z" fill="#0D317C" fill-opacity="0.1"/>
<path d="M144.856 257.372H136.187C134.748 257.372 133.587 256.215 133.587 254.781V246.145C133.587 244.712 134.748 243.555 136.187 243.555H144.856C146.295 243.555 147.457 244.712 147.457 246.145V254.781C147.457 256.215 146.295 257.372 144.856 257.372ZM138.788 252.19H142.255V248.736H138.788V252.19Z" fill="#0D317C" fill-opacity="0.1"/>
<path d="M98.6245 283.278H89.956C88.517 283.278 87.3555 282.121 87.3555 280.687V272.052C87.3555 270.618 88.517 269.461 89.956 269.461H98.6245C100.063 269.461 101.225 270.618 101.225 272.052V280.687C101.225 282.121 100.063 283.278 98.6245 283.278ZM92.5566 278.097H96.024V274.642H92.5566V278.097Z" fill="#0D317C" fill-opacity="0.1"/>
<path d="M121.741 283.278H113.072C111.633 283.278 110.472 282.121 110.472 280.687V272.052C110.472 270.618 111.633 269.461 113.072 269.461H121.741C123.18 269.461 124.341 270.618 124.341 272.052V280.687C124.341 282.121 123.18 283.278 121.741 283.278ZM115.673 278.097H119.14V274.642H115.673V278.097Z" fill="#0D317C" fill-opacity="0.1"/>
<path d="M144.856 283.278H136.187C134.748 283.278 133.587 282.121 133.587 280.687V272.052C133.587 270.618 134.748 269.461 136.187 269.461H144.856C146.295 269.461 147.457 270.618 147.457 272.052V280.687C147.457 282.121 146.295 283.278 144.856 283.278ZM138.788 278.097H142.255V274.642H138.788V278.097Z" fill="#0D317C" fill-opacity="0.1"/>
<path d="M98.6245 309.186H89.956C88.517 309.186 87.3555 308.029 87.3555 306.596V297.96C87.3555 296.526 88.517 295.369 89.956 295.369H98.6245C100.063 295.369 101.225 296.526 101.225 297.96V306.596C101.225 308.029 100.063 309.186 98.6245 309.186ZM92.5566 304.005H96.024V300.551H92.5566V304.005Z" fill="#0D317C" fill-opacity="0.1"/>
<path d="M121.741 309.186H113.072C111.633 309.186 110.472 308.029 110.472 306.596V297.96C110.472 296.526 111.633 295.369 113.072 295.369H121.741C123.18 295.369 124.341 296.526 124.341 297.96V306.596C124.341 308.029 123.18 309.186 121.741 309.186ZM115.673 304.005H119.14V300.551H115.673V304.005Z" fill="#0D317C" fill-opacity="0.1"/>
<path d="M144.856 309.186H136.187C134.748 309.186 133.587 308.029 133.587 306.596V297.96C133.587 296.526 134.748 295.369 136.187 295.369H144.856C146.295 295.369 147.457 296.526 147.457 297.96V306.596C147.457 308.029 146.295 309.186 144.856 309.186ZM138.788 304.005H142.255V300.551H138.788V304.005Z" fill="#0D317C" fill-opacity="0.1"/>
<path d="M167.972 231.466H159.304C157.865 231.466 156.703 230.308 156.703 228.875V220.239C156.703 218.806 157.865 217.648 159.304 217.648H167.972C169.411 217.648 170.573 218.806 170.573 220.239V228.875C170.573 230.308 169.411 231.466 167.972 231.466ZM161.904 226.284H165.372V222.83H161.904V226.284Z" fill="#0D317C" fill-opacity="0.1"/>
<path d="M167.972 257.372H159.304C157.865 257.372 156.703 256.215 156.703 254.781V246.145C156.703 244.712 157.865 243.555 159.304 243.555H167.972C169.411 243.555 170.573 244.712 170.573 246.145V254.781C170.573 256.215 169.411 257.372 167.972 257.372ZM161.904 252.19H165.372V248.736H161.904V252.19Z" fill="#0D317C" fill-opacity="0.1"/>
<path d="M167.972 283.28H159.304C157.865 283.28 156.703 282.123 156.703 280.689V272.054C156.703 270.62 157.865 269.463 159.304 269.463H167.972C169.411 269.463 170.573 270.62 170.573 272.054V280.689C170.573 282.123 169.411 283.28 167.972 283.28ZM161.904 278.099H165.372V274.644H161.904V278.099Z" fill="#0D317C" fill-opacity="0.1"/>
<path d="M172.307 199.802H85.622C84.1831 199.802 83.0215 198.644 83.0215 197.211V179.94C83.0215 177.067 85.5238 174.954 97.9717 173.302C106.27 172.202 117.274 171.592 128.964 171.592C140.655 171.592 151.659 172.196 159.957 173.302C172.405 174.954 174.908 177.067 174.908 179.94V185.697C174.908 187.13 173.746 188.287 172.307 188.287C170.868 188.287 169.706 187.13 169.706 185.697V180.751C166.54 179.001 151.479 176.773 128.964 176.773C106.45 176.773 91.3895 179.001 88.2226 180.751V194.62H172.307C173.746 194.62 174.908 195.777 174.908 197.211C174.908 198.644 173.746 199.802 172.307 199.802Z" fill="#0D317C" fill-opacity="0.1"/>
<path d="M261.881 202.679H206.98C205.541 202.679 204.38 201.522 204.38 200.089C204.38 198.655 205.541 197.498 206.98 197.498H261.881C263.32 197.498 264.481 198.655 264.481 200.089C264.481 201.522 263.32 202.679 261.881 202.679Z" fill="#0D317C" fill-opacity="0.1"/>
<path d="M261.881 211.314H206.98C205.541 211.314 204.38 210.157 204.38 208.724C204.38 207.29 205.541 206.133 206.98 206.133H261.881C263.32 206.133 264.481 207.29 264.481 208.724C264.481 210.157 263.32 211.314 261.881 211.314Z" fill="#0D317C" fill-opacity="0.1"/>
<path d="M261.881 228.586H206.98C205.541 228.586 204.38 227.429 204.38 225.995C204.38 224.561 205.541 223.404 206.98 223.404H261.881C263.32 223.404 264.481 224.561 264.481 225.995C264.481 227.429 263.32 228.586 261.881 228.586Z" fill="#0D317C" fill-opacity="0.1"/>
<path d="M261.881 237.22H206.98C205.541 237.22 204.38 236.063 204.38 234.63C204.38 233.196 205.541 232.039 206.98 232.039H261.881C263.32 232.039 264.481 233.196 264.481 234.63C264.481 236.063 263.32 237.22 261.881 237.22Z" fill="#0D317C" fill-opacity="0.1"/>
<path d="M261.881 254.494H206.98C205.541 254.494 204.38 253.337 204.38 251.903C204.38 250.47 205.541 249.312 206.98 249.312H261.881C263.32 249.312 264.481 250.47 264.481 251.903C264.481 253.337 263.32 254.494 261.881 254.494Z" fill="#0D317C" fill-opacity="0.1"/>
<path d="M261.881 263.129H206.98C205.541 263.129 204.38 261.971 204.38 260.538C204.38 259.104 205.541 257.947 206.98 257.947H261.881C263.32 257.947 264.481 259.104 264.481 260.538C264.481 261.971 263.32 263.129 261.881 263.129Z" fill="#0D317C" fill-opacity="0.1"/>
<path d="M261.881 280.4H206.98C205.541 280.4 204.38 279.243 204.38 277.809C204.38 276.376 205.541 275.219 206.98 275.219H261.881C263.32 275.219 264.481 276.376 264.481 277.809C264.481 279.243 263.32 280.4 261.881 280.4Z" fill="#0D317C" fill-opacity="0.1"/>
<path d="M261.881 289.035H206.98C205.541 289.035 204.38 287.878 204.38 286.444C204.38 285.011 205.541 283.854 206.98 283.854H261.881C263.32 283.854 264.481 285.011 264.481 286.444C264.481 287.878 263.32 289.035 261.881 289.035Z" fill="#0D317C" fill-opacity="0.1"/>
<path d="M261.881 306.306H218.538C217.099 306.306 215.938 305.149 215.938 303.716C215.938 302.282 217.099 301.125 218.538 301.125H261.881C263.319 301.125 264.481 302.282 264.481 303.716C264.481 305.149 263.319 306.306 261.881 306.306Z" fill="#0D317C" fill-opacity="0.1"/>
<path d="M261.88 314.941H230.096C228.657 314.941 227.495 313.784 227.495 312.35C227.495 310.917 228.657 309.76 230.096 309.76H261.88C263.319 309.76 264.481 310.917 264.481 312.35C264.481 313.784 263.319 314.941 261.88 314.941Z" fill="#0D317C" fill-opacity="0.1"/>
<path d="M25.7168 269.059C24.2778 269.059 23.1162 267.902 23.1162 266.468V246.145C23.1162 244.712 24.2778 243.555 25.7168 243.555H60.3907C61.8297 243.555 62.9913 244.712 62.9913 246.145C62.9913 247.579 61.8297 248.736 60.3907 248.736H28.3173V266.468C28.3173 267.902 27.1557 269.059 25.7168 269.059Z" fill="#0D317C" fill-opacity="0.1"/>
<path d="M472.808 337.972H339.892C338.453 337.972 337.291 336.815 337.291 335.382C337.291 333.948 338.453 332.791 339.892 332.791H472.808C474.247 332.791 475.409 333.948 475.409 335.382C475.409 336.815 474.247 337.972 472.808 337.972Z" fill="#0D317C" fill-opacity="0.1"/>
<path d="M472.808 326.458C471.369 326.458 470.208 325.3 470.208 323.867V139.351H342.492V266.296C342.492 267.729 341.331 268.886 339.892 268.886C338.453 268.886 337.291 267.729 337.291 266.296V136.761C337.291 135.327 338.453 134.17 339.892 134.17H472.808C474.247 134.17 475.409 135.327 475.409 136.761V323.867C475.409 325.3 474.247 326.458 472.808 326.458Z" fill="#0D317C" fill-opacity="0.1"/>
<path d="M420.798 326.458C419.359 326.458 418.197 325.301 418.197 323.867V154.032C418.197 152.599 419.359 151.441 420.798 151.441C422.237 151.441 423.398 152.599 423.398 154.032V323.867C423.398 325.301 422.237 326.458 420.798 326.458Z" fill="#0D317C" fill-opacity="0.1"/>
<path d="M387.129 162.379H339.892C338.453 162.379 337.291 161.221 337.291 159.788C337.291 158.354 338.453 157.197 339.892 157.197H387.129C388.568 157.197 389.73 158.354 389.73 159.788C389.73 161.221 388.568 162.379 387.129 162.379Z" fill="#0D317C" fill-opacity="0.1"/>
<path d="M398.687 179.65H339.892C338.453 179.65 337.291 178.493 337.291 177.059C337.291 175.626 338.453 174.469 339.892 174.469H398.687C400.126 174.469 401.288 175.626 401.288 177.059C401.288 178.493 400.126 179.65 398.687 179.65Z" fill="#0D317C" fill-opacity="0.1"/>
<path d="M398.687 196.922H339.892C338.453 196.922 337.291 195.764 337.291 194.331C337.291 192.897 338.453 191.74 339.892 191.74H398.687C400.126 191.74 401.288 192.897 401.288 194.331C401.288 195.764 400.126 196.922 398.687 196.922Z" fill="#0D317C" fill-opacity="0.1"/>
<path d="M398.687 214.193H339.892C338.453 214.193 337.291 213.036 337.291 211.602C337.291 210.169 338.453 209.012 339.892 209.012H398.687C400.126 209.012 401.288 210.169 401.288 211.602C401.288 213.036 400.126 214.193 398.687 214.193Z" fill="#0D317C" fill-opacity="0.1"/>
<path d="M398.687 231.465H339.892C338.453 231.465 337.291 230.307 337.291 228.874C337.291 227.44 338.453 226.283 339.892 226.283H398.687C400.126 226.283 401.288 227.44 401.288 228.874C401.288 230.307 400.126 231.465 398.687 231.465Z" fill="#0D317C" fill-opacity="0.1"/>
<path d="M398.687 248.736H339.892C338.453 248.736 337.291 247.579 337.291 246.145C337.291 244.712 338.453 243.555 339.892 243.555H398.687C400.126 243.555 401.288 244.712 401.288 246.145C401.288 247.579 400.126 248.736 398.687 248.736Z" fill="#0D317C" fill-opacity="0.1"/>
<path d="M398.687 266.008H339.892C338.453 266.008 337.291 264.85 337.291 263.417C337.291 261.983 338.453 260.826 339.892 260.826H398.687C400.126 260.826 401.288 261.983 401.288 263.417C401.288 264.85 400.126 266.008 398.687 266.008Z" fill="#0D317C" fill-opacity="0.1"/>
<path d="M398.687 283.279H365.897C364.458 283.279 363.297 282.122 363.297 280.688C363.297 279.255 364.458 278.098 365.897 278.098H398.687C400.126 278.098 401.288 279.255 401.288 280.688C401.288 282.122 400.126 283.279 398.687 283.279Z" fill="#0D317C" fill-opacity="0.1"/>
<path d="M398.687 300.549H365.897C364.458 300.549 363.297 299.391 363.297 297.958C363.297 296.524 364.458 295.367 365.897 295.367H398.687C400.126 295.367 401.288 296.524 401.288 297.958C401.288 299.391 400.126 300.549 398.687 300.549Z" fill="#0D317C" fill-opacity="0.1"/>
<path d="M398.687 317.82H365.897C364.458 317.82 363.297 316.663 363.297 315.229C363.297 313.796 364.458 312.639 365.897 312.639H398.687C400.126 312.639 401.288 313.796 401.288 315.229C401.288 316.663 400.126 317.82 398.687 317.82Z" fill="#0D317C" fill-opacity="0.1"/>
<path d="M455.472 337.972C454.033 337.972 452.871 336.815 452.871 335.382V266.711H435.245C433.806 266.711 432.645 265.554 432.645 264.12C432.645 262.686 433.806 261.529 435.245 261.529H455.472C456.911 261.529 458.072 262.686 458.072 264.12V335.382C458.072 336.815 456.911 337.972 455.472 337.972Z" fill="#0D317C" fill-opacity="0.1"/>
<path d="M441.024 272.474H438.135C435.106 272.474 432.645 270.021 432.645 267.004V264.126C432.645 262.692 433.806 261.535 435.245 261.535H443.914C445.353 261.535 446.514 262.692 446.514 264.126V267.004C446.514 270.021 444.052 272.474 441.024 272.474ZM437.846 266.717V267.004C437.846 267.166 437.973 267.292 438.135 267.292H441.024C441.186 267.292 441.313 267.166 441.313 267.004V266.717H437.846Z" fill="#0D317C" fill-opacity="0.1"/>
<path d="M599.947 88.2445H513.262C511.823 88.2445 510.661 87.0873 510.661 85.6538C510.661 84.2202 511.823 83.0631 513.262 83.0631H597.346V76.7302H513.262C511.823 76.7302 510.661 75.5731 510.661 74.1395C510.661 72.706 511.823 71.5488 513.262 71.5488H599.947C601.386 71.5488 602.547 72.706 602.547 74.1395V85.6538C602.547 87.0873 601.386 88.2445 599.947 88.2445Z" fill="#0D317C" fill-opacity="0.1"/>
<path d="M25.717 320.7C16.3146 320.7 8.66895 313.083 8.66895 303.716V292.202C8.66895 282.835 16.3146 275.219 25.717 275.219C35.1194 275.219 42.765 282.835 42.765 292.202V303.716C42.765 313.083 35.1194 320.7 25.717 320.7ZM25.717 280.4C19.1867 280.4 13.87 285.697 13.87 292.202V303.716C13.87 310.222 19.1867 315.519 25.717 315.519C32.2472 315.519 37.5639 310.222 37.5639 303.716V292.202C37.5639 285.697 32.2472 280.4 25.717 280.4Z" fill="#0D317C" fill-opacity="0.1"/>
<path d="M25.7168 337.971C24.2778 337.971 23.1162 336.814 23.1162 335.38V292.202C23.1162 290.769 24.2778 289.611 25.7168 289.611C27.1557 289.611 28.3173 290.769 28.3173 292.202V335.38C28.3173 336.814 27.1557 337.971 25.7168 337.971Z" fill="#0D317C" fill-opacity="0.1"/>
<path d="M25.717 310.319C24.9715 310.319 24.2318 310.003 23.7175 309.387C22.7986 308.287 22.9431 306.652 24.0469 305.737L29.4733 301.229C30.5771 300.313 32.2184 300.457 33.1372 301.557C34.0561 302.657 33.9116 304.292 32.8078 305.207L27.3813 309.715C26.8959 310.118 26.3064 310.314 25.717 310.314V310.319Z" fill="#0D317C" fill-opacity="0.1"/>
<path d="M339.892 320.7C330.489 320.7 322.844 313.083 322.844 303.716V292.202C322.844 282.835 330.489 275.219 339.892 275.219C349.294 275.219 356.94 282.835 356.94 292.202V303.716C356.94 313.083 349.294 320.7 339.892 320.7ZM339.892 280.4C333.362 280.4 328.045 285.697 328.045 292.202V303.716C328.045 310.222 333.362 315.519 339.892 315.519C346.422 315.519 351.739 310.222 351.739 303.716V292.202C351.739 285.697 346.422 280.4 339.892 280.4Z" fill="#0D317C" fill-opacity="0.1"/>
<path d="M339.892 337.971C338.453 337.971 337.291 336.814 337.291 335.38V292.202C337.291 290.769 338.453 289.611 339.892 289.611C341.331 289.611 342.492 290.769 342.492 292.202V335.38C342.492 336.814 341.331 337.971 339.892 337.971Z" fill="#0D317C" fill-opacity="0.1"/>
<path d="M339.892 310.319C339.146 310.319 338.407 310.003 337.892 309.387C336.973 308.287 337.118 306.652 338.222 305.737L343.648 301.229C344.752 300.313 346.393 300.457 347.312 301.557C348.231 302.657 348.086 304.292 346.983 305.207L341.556 309.715C341.071 310.118 340.481 310.314 339.892 310.314V310.319Z" fill="#0D317C" fill-opacity="0.1"/>
<path d="M663.515 320.7C654.112 320.7 646.467 313.083 646.467 303.716V292.202C646.467 282.835 654.112 275.219 663.515 275.219C672.917 275.219 680.563 282.835 680.563 292.202V303.716C680.563 313.083 672.917 320.7 663.515 320.7ZM663.515 280.4C656.985 280.4 651.668 285.697 651.668 292.202V303.716C651.668 310.222 656.985 315.519 663.515 315.519C670.045 315.519 675.362 310.222 675.362 303.716V292.202C675.362 285.697 670.045 280.4 663.515 280.4Z" fill="#0D317C" fill-opacity="0.1"/>
<path d="M663.515 337.971C662.076 337.971 660.914 336.814 660.914 335.38V292.202C660.914 290.769 662.076 289.611 663.515 289.611C664.954 289.611 666.115 290.769 666.115 292.202V335.38C666.115 336.814 664.954 337.971 663.515 337.971Z" fill="#0D317C" fill-opacity="0.1"/>
<path d="M663.515 310.319C662.769 310.319 662.03 310.003 661.515 309.387C660.596 308.287 660.741 306.652 661.845 305.737L667.271 301.229C668.375 300.313 670.016 300.457 670.935 301.557C671.854 302.657 671.71 304.292 670.606 305.207L665.179 309.715C664.694 310.118 664.104 310.314 663.515 310.314V310.319Z" fill="#0D317C" fill-opacity="0.1"/>
<path d="M159.177 326.462C158.142 326.462 157.16 325.841 156.755 324.821C155.969 322.835 155.756 320.671 156.125 318.558C157.114 312.985 161.945 308.943 167.62 308.943C168.302 308.943 168.984 309.001 169.66 309.122C171.786 309.496 173.757 310.446 175.364 311.862C175.947 312.375 176.693 312.662 177.473 312.662C178.253 312.662 178.999 312.38 179.582 311.862C181.715 309.98 184.466 308.943 187.326 308.943C188.008 308.943 188.69 309.001 189.366 309.122C191.493 309.496 193.469 310.446 195.076 311.868C195.659 312.386 196.411 312.668 197.185 312.668C197.959 312.668 198.711 312.386 199.294 311.868C201.427 309.98 204.172 308.943 207.027 308.943C208.206 308.943 209.385 309.122 210.535 309.473C215.609 311.039 218.972 315.817 218.712 321.108C218.654 322.294 218.417 323.451 218.013 324.557C217.521 325.904 216.03 326.595 214.678 326.105C213.326 325.616 212.632 324.131 213.124 322.783C213.349 322.167 213.482 321.517 213.511 320.855C213.655 317.936 211.8 315.293 208.992 314.424C206.79 313.745 204.415 314.263 202.744 315.743C201.207 317.101 199.231 317.85 197.179 317.85C195.128 317.85 193.151 317.101 191.614 315.743C190.724 314.954 189.632 314.43 188.459 314.223C186.506 313.877 184.494 314.447 183.032 315.743C181.501 317.095 179.525 317.844 177.473 317.844C175.421 317.844 173.445 317.095 171.914 315.743C171.024 314.96 169.937 314.436 168.758 314.228C168.383 314.165 168.001 314.131 167.62 314.131C164.476 314.131 161.795 316.376 161.251 319.467C161.043 320.636 161.165 321.834 161.598 322.927C162.124 324.257 161.471 325.766 160.13 326.29C159.818 326.41 159.495 326.468 159.177 326.468V326.462Z" fill="#0D317C" fill-opacity="0.1"/>
<path d="M219.123 337.971H155.554C154.115 337.971 152.953 336.814 152.953 335.38V323.866C152.953 322.433 154.115 321.275 155.554 321.275H219.123C220.562 321.275 221.723 322.433 221.723 323.866V335.38C221.723 336.814 220.562 337.971 219.123 337.971ZM158.154 332.79H216.522V326.457H158.154V332.79Z" fill="#0D317C" fill-opacity="0.1"/>
<path d="M739.376 326.462C738.341 326.462 737.359 325.841 736.954 324.821C736.169 322.835 735.955 320.671 736.325 318.558C737.313 312.985 742.144 308.943 747.819 308.943C748.501 308.943 749.183 309.001 749.859 309.122C751.986 309.496 753.956 310.446 755.563 311.862C756.147 312.375 756.892 312.662 757.672 312.662C758.452 312.662 759.198 312.38 759.782 311.862C761.914 309.98 764.665 308.943 767.525 308.943C768.207 308.943 768.889 309.001 769.565 309.122C771.692 309.496 773.668 310.446 775.275 311.868C775.859 312.386 776.61 312.668 777.384 312.668C778.159 312.668 778.91 312.386 779.494 311.868C781.626 309.98 784.371 308.943 787.226 308.943C788.405 308.943 789.584 309.122 790.734 309.473C795.808 311.039 799.171 315.817 798.911 321.108C798.853 322.294 798.616 323.451 798.212 324.557C797.721 325.904 796.23 326.595 794.877 326.105C793.525 325.616 792.832 324.131 793.323 322.783C793.548 322.167 793.681 321.517 793.71 320.855C793.854 317.936 791.999 315.293 789.191 314.424C786.989 313.745 784.614 314.263 782.944 315.743C781.407 317.101 779.43 317.85 777.379 317.85C775.327 317.85 773.351 317.101 771.813 315.743C770.923 314.954 769.831 314.43 768.658 314.223C766.705 313.877 764.694 314.447 763.232 315.743C761.7 317.095 759.724 317.844 757.672 317.844C755.621 317.844 753.644 317.095 752.113 315.743C751.223 314.96 750.136 314.436 748.957 314.228C748.582 314.165 748.2 314.131 747.819 314.131C744.675 314.131 741.994 316.376 741.451 319.467C741.243 320.636 741.364 321.834 741.797 322.927C742.323 324.257 741.67 325.766 740.329 326.29C740.017 326.41 739.694 326.468 739.376 326.468V326.462Z" fill="#0D317C" fill-opacity="0.1"/>
<path d="M799.322 337.971H735.753C734.314 337.971 733.152 336.814 733.152 335.38V323.866C733.152 322.433 734.314 321.275 735.753 321.275H799.322C800.761 321.275 801.922 322.433 801.922 323.866V335.38C801.922 336.814 800.761 337.971 799.322 337.971ZM738.353 332.79H796.721V326.457H738.353V332.79Z" fill="#0D317C" fill-opacity="0.1"/>
<path d="M1135.28 268.92C1133.84 268.92 1132.68 267.763 1132.68 266.329V228.592H1056.49C1055.05 228.592 1053.89 227.434 1053.89 226.001C1053.89 224.567 1055.05 223.41 1056.49 223.41H1135.28C1136.72 223.41 1137.88 224.567 1137.88 226.001V266.329C1137.88 267.763 1136.72 268.92 1135.28 268.92Z" fill="#0D317C" fill-opacity="0.1"/>
<path d="M1071.71 260.251H1063.05C1061.61 260.251 1060.45 259.093 1060.45 257.66V249.024C1060.45 247.591 1061.61 246.434 1063.05 246.434H1071.71C1073.15 246.434 1074.31 247.591 1074.31 249.024V257.66C1074.31 259.093 1073.15 260.251 1071.71 260.251ZM1065.65 255.069H1069.11V251.615H1065.65V255.069Z" fill="#0D317C" fill-opacity="0.1"/>
<path d="M1094.83 260.251H1086.16C1084.72 260.251 1083.56 259.093 1083.56 257.66V249.024C1083.56 247.591 1084.72 246.434 1086.16 246.434H1094.83C1096.27 246.434 1097.43 247.591 1097.43 249.024V257.66C1097.43 259.093 1096.27 260.251 1094.83 260.251ZM1088.76 255.069H1092.23V251.615H1088.76V255.069Z" fill="#0D317C" fill-opacity="0.1"/>
<path d="M1071.71 286.157H1063.05C1061.61 286.157 1060.45 285 1060.45 283.566V274.931C1060.45 273.497 1061.61 272.34 1063.05 272.34H1071.71C1073.15 272.34 1074.31 273.497 1074.31 274.931V283.566C1074.31 285 1073.15 286.157 1071.71 286.157ZM1065.65 280.976H1069.11V277.521H1065.65V280.976Z" fill="#0D317C" fill-opacity="0.1"/>
<path d="M1094.83 286.157H1086.16C1084.72 286.157 1083.56 285 1083.56 283.566V274.931C1083.56 273.497 1084.72 272.34 1086.16 272.34H1094.83C1096.27 272.34 1097.43 273.497 1097.43 274.931V283.566C1097.43 285 1096.27 286.157 1094.83 286.157ZM1088.76 280.976H1092.23V277.521H1088.76V280.976Z" fill="#0D317C" fill-opacity="0.1"/>
<path d="M1071.71 312.065H1063.05C1061.61 312.065 1060.45 310.908 1060.45 309.474V300.839C1060.45 299.405 1061.61 298.248 1063.05 298.248H1071.71C1073.15 298.248 1074.31 299.405 1074.31 300.839V309.474C1074.31 310.908 1073.15 312.065 1071.71 312.065ZM1065.65 306.884H1069.11V303.429H1065.65V306.884Z" fill="#0D317C" fill-opacity="0.1"/>
<path d="M1094.83 312.065H1086.16C1084.72 312.065 1083.56 310.908 1083.56 309.474V300.839C1083.56 299.405 1084.72 298.248 1086.16 298.248H1094.83C1096.27 298.248 1097.43 299.405 1097.43 300.839V309.474C1097.43 310.908 1096.27 312.065 1094.83 312.065ZM1088.76 306.884H1092.23V303.429H1088.76V306.884Z" fill="#0D317C" fill-opacity="0.1"/>
<path d="M1135.28 320.7C1125.88 320.7 1118.24 313.083 1118.24 303.716V292.202C1118.24 282.835 1125.88 275.219 1135.28 275.219C1144.69 275.219 1152.33 282.835 1152.33 292.202V303.716C1152.33 313.083 1144.69 320.7 1135.28 320.7ZM1135.28 280.4C1128.75 280.4 1123.44 285.697 1123.44 292.202V303.716C1123.44 310.222 1128.75 315.519 1135.28 315.519C1141.81 315.519 1147.13 310.222 1147.13 303.716V292.202C1147.13 285.697 1141.81 280.4 1135.28 280.4Z" fill="#0D317C" fill-opacity="0.1"/>
<path d="M1135.28 337.971C1133.84 337.971 1132.68 336.814 1132.68 335.38V292.202C1132.68 290.769 1133.84 289.611 1135.28 289.611C1136.72 289.611 1137.88 290.769 1137.88 292.202V335.38C1137.88 336.814 1136.72 337.971 1135.28 337.971Z" fill="#0D317C" fill-opacity="0.1"/>
<path d="M1135.28 310.319C1134.54 310.319 1133.8 310.003 1133.28 309.387C1132.37 308.287 1132.51 306.652 1133.61 305.737L1139.04 301.229C1140.14 300.313 1141.78 300.457 1142.7 301.557C1143.62 302.657 1143.48 304.292 1142.37 305.207L1136.95 309.715C1136.46 310.118 1135.87 310.314 1135.28 310.314V310.319Z" fill="#0D317C" fill-opacity="0.1"/>
<path d="M617.283 337.972H599.946C598.507 337.972 597.346 336.815 597.346 335.382V326.596C597.346 325.163 598.507 324.006 599.946 324.006C601.385 324.006 602.547 325.163 602.547 326.596V332.791H614.683V283.982H599.946C598.507 283.982 597.346 282.825 597.346 281.391C597.346 279.958 598.507 278.801 599.946 278.801H617.283C618.722 278.801 619.884 279.958 619.884 281.391V335.382C619.884 336.815 618.722 337.972 617.283 337.972Z" fill="#0D317C" fill-opacity="0.1"/>
<path d="M599.946 329.192C598.507 329.192 597.346 328.035 597.346 326.602V292.911C597.346 291.477 598.507 290.32 599.946 290.32C601.385 290.32 602.547 291.477 602.547 292.911V326.602C602.547 328.035 601.385 329.192 599.946 329.192Z" fill="#0D317C" fill-opacity="0.1"/>
<path d="M444.919 115.028H398.687C397.248 115.028 396.087 113.87 396.087 112.437V100.923C396.087 99.4892 397.248 98.332 398.687 98.332H444.919C446.358 98.332 447.52 99.4892 447.52 100.923V112.437C447.52 113.87 446.358 115.028 444.919 115.028ZM401.288 109.846H442.319V103.513H401.288V109.846Z" fill="#0D317C" fill-opacity="0.1"/>
<path d="M107.165 108.281C106.062 108.281 104.952 108.183 103.86 107.993C100.705 107.44 97.7226 106.087 95.2492 104.089C94.3361 103.353 93.0243 103.18 91.9494 103.663C89.9267 104.567 87.777 105.022 85.5694 105.022C84.6563 105.022 83.7374 104.942 82.8359 104.78C78.7155 104.055 75.121 101.775 72.7169 98.3611C70.3128 94.9472 69.394 90.802 70.1221 86.6915C71.4455 79.213 77.9295 73.784 85.5463 73.784C86.4593 73.784 87.3782 73.8646 88.2855 74.0258C89.5569 74.2503 90.7936 74.6303 91.9725 75.1542C93.2843 75.7357 93.868 77.2728 93.2843 78.5797C92.7007 79.8865 91.1577 80.468 89.8458 79.8865C89.0599 79.5354 88.2277 79.282 87.3782 79.1324C86.7714 79.023 86.1531 78.9712 85.5463 78.9712C80.4607 78.9712 76.1323 82.5981 75.2481 87.5953C74.7627 90.3415 75.381 93.1106 76.9818 95.3905C78.5884 97.676 80.9866 99.1959 83.7432 99.6795C85.8179 100.042 87.9214 99.7831 89.8343 98.9311C90.9207 98.4475 92.0707 98.1999 93.2612 98.1999C95.1741 98.1999 97.0465 98.862 98.5317 100.059C100.323 101.505 102.484 102.483 104.773 102.886C108.651 103.566 112.696 102.524 115.794 100.042C117.279 98.8562 119.14 98.1999 121.041 98.1999C122.226 98.1999 123.376 98.4417 124.456 98.9253C124.826 99.0865 125.207 99.2305 125.6 99.3514C126.641 99.6738 127.71 99.835 128.773 99.835C134.356 99.835 138.95 95.448 139.227 89.8463C139.458 85.1198 136.453 80.8422 131.917 79.4432C129.432 78.6775 126.814 78.833 124.491 79.8693C123.404 80.3529 122.254 80.6004 121.064 80.6004C119.151 80.6004 117.279 79.9384 115.794 78.7409C114.002 77.2958 111.841 76.3171 109.552 75.9141C106.264 75.3384 102.866 75.9832 99.988 77.7334C98.7628 78.4818 97.162 78.0961 96.4108 76.8756C95.6595 75.6551 96.0467 74.0603 97.2718 73.3119C101.225 70.8997 105.923 70.0073 110.454 70.8076C113.609 71.3602 116.591 72.7132 119.064 74.7109C119.978 75.4478 121.289 75.6205 122.364 75.1369C124.387 74.233 126.537 73.7782 128.75 73.7782C130.333 73.7782 131.917 74.02 133.46 74.4921C140.268 76.5877 144.781 83.0069 144.428 90.0997C144.018 98.4648 137.141 105.016 128.779 105.016C127.195 105.016 125.606 104.775 124.069 104.302C123.48 104.118 122.896 103.899 122.341 103.658C121.272 103.186 119.966 103.353 119.059 104.084C115.678 106.79 111.465 108.281 107.183 108.281H107.165Z" fill="#0D317C" fill-opacity="0.1"/>
<path d="M630.303 37.7435C629.199 37.7435 628.09 37.6457 626.998 37.4557C623.842 36.903 620.86 35.5501 618.387 33.5523C617.474 32.8154 616.162 32.6427 615.087 33.1263C613.064 34.0302 610.915 34.485 608.707 34.485C607.794 34.485 606.875 34.4044 605.974 34.2432C601.847 33.5178 598.259 31.238 595.855 27.824C593.451 24.41 592.532 20.2649 593.26 16.1543C594.583 8.67585 601.067 3.24689 608.684 3.24689C609.597 3.24689 610.516 3.32749 611.423 3.48869C612.695 3.71321 613.931 4.09318 615.11 4.61708C616.422 5.19855 617.006 6.7357 616.422 8.04257C615.838 9.34943 614.295 9.93666 612.984 9.34943C612.198 8.99825 611.365 8.74493 610.516 8.59525C609.909 8.48586 609.291 8.43405 608.684 8.43405C603.598 8.43405 599.27 12.061 598.386 17.0582C597.9 19.8044 598.519 22.5735 600.119 24.8533C601.726 27.1389 604.124 28.6588 606.881 29.1424C608.956 29.5051 611.059 29.246 612.972 28.394C614.058 27.9104 615.208 27.6628 616.399 27.6628C618.312 27.6628 620.184 28.3249 621.669 29.5224C623.461 30.9674 625.622 31.9461 627.911 32.3491C631.788 33.0285 635.834 31.9864 638.931 29.5051C640.416 28.3191 642.277 27.6628 644.179 27.6628C645.363 27.6628 646.513 27.9046 647.594 28.3882C647.964 28.5494 648.345 28.6933 648.738 28.8142C649.778 29.1366 650.847 29.2978 651.911 29.2978C657.493 29.2978 662.088 24.9109 662.365 19.3092C662.596 14.5827 659.591 10.3051 655.055 8.90613C652.57 8.14044 649.952 8.29588 647.629 9.33216C646.542 9.81576 645.392 10.0633 644.202 10.0633C642.289 10.0633 640.416 9.40124 638.931 8.20376C637.14 6.75873 634.978 5.78002 632.69 5.37702C629.402 4.80131 626.004 5.44611 623.126 7.19627C621.901 7.94469 620.3 7.55897 619.548 6.33846C618.797 5.11795 619.184 3.52323 620.41 2.7748C624.362 0.362571 629.061 -0.529782 633.591 0.270457C636.747 0.82314 639.729 2.17606 642.202 4.17378C643.115 4.91069 644.427 5.08341 645.502 4.59981C647.525 3.69594 649.674 3.24113 651.888 3.24113C653.471 3.24113 655.055 3.48293 656.598 3.95501C663.405 6.0506 667.919 12.4698 667.566 19.5626C667.15 27.9276 660.279 34.4792 651.917 34.4792C650.333 34.4792 648.744 34.2374 647.207 33.7654C646.617 33.5811 646.034 33.3624 645.479 33.1206C644.41 32.6485 643.104 32.8154 642.196 33.5466C638.816 36.2524 634.603 37.7435 630.321 37.7435H630.303Z" fill="#0D317C" fill-opacity="0.1"/>
<path d="M1071.73 82.9369C1070.63 82.9369 1069.52 82.839 1068.43 82.649C1065.27 82.0963 1062.29 80.7434 1059.82 78.7457C1058.9 78.0088 1057.59 77.8361 1056.52 78.3197C1054.49 79.2235 1052.34 79.6784 1050.14 79.6784C1049.22 79.6784 1048.3 79.5978 1047.4 79.4366C1043.28 78.7112 1039.69 76.4313 1037.28 73.0174C1034.88 69.6034 1033.96 65.4583 1034.69 61.3477C1036.01 53.8692 1042.5 48.4402 1050.11 48.4402C1051.03 48.4402 1051.94 48.5208 1052.85 48.682C1054.12 48.9066 1055.36 49.2865 1056.54 49.8104C1057.85 50.3919 1058.43 51.9291 1057.85 53.2359C1057.27 54.5428 1055.72 55.1243 1054.41 54.5428C1053.63 54.1916 1052.79 53.9383 1051.94 53.7886C1051.34 53.6792 1050.72 53.6274 1050.11 53.6274C1045.03 53.6274 1040.7 57.2544 1039.81 62.2516C1039.33 64.9977 1039.95 67.7669 1041.55 70.0467C1043.15 72.3323 1045.55 73.8522 1048.31 74.3358C1050.38 74.6985 1052.49 74.4394 1054.4 73.5873C1055.49 73.1037 1056.64 72.8562 1057.83 72.8562C1059.74 72.8562 1061.61 73.5182 1063.1 74.7157C1064.89 76.1608 1067.05 77.1395 1069.34 77.5425C1073.22 78.2218 1077.26 77.1798 1080.36 74.6985C1081.85 73.5125 1083.71 72.8562 1085.61 72.8562C1086.79 72.8562 1087.94 73.098 1089.02 73.5816C1089.39 73.7428 1089.77 73.8867 1090.17 74.0076C1091.21 74.33 1092.28 74.4912 1093.34 74.4912C1098.92 74.4912 1103.52 70.1043 1103.79 64.5026C1104.02 59.776 1101.02 55.4985 1096.48 54.0995C1094 53.3338 1091.38 53.4892 1089.06 54.5255C1087.97 55.0091 1086.82 55.2567 1085.63 55.2567C1083.72 55.2567 1081.85 54.5946 1080.36 53.3971C1078.57 51.9521 1076.41 50.9734 1074.12 50.5704C1070.83 49.9947 1067.43 50.6395 1064.55 52.3896C1063.33 53.1381 1061.73 52.7523 1060.98 51.5318C1060.23 50.3113 1060.61 48.7166 1061.84 47.9682C1065.79 45.5559 1070.49 44.6636 1075.02 45.4638C1078.18 46.0165 1081.16 47.3694 1083.63 49.3671C1084.54 50.1041 1085.86 50.2768 1086.93 49.7932C1088.95 48.8893 1091.1 48.4345 1093.32 48.4345C1094.9 48.4345 1096.48 48.6763 1098.03 49.1484C1104.83 51.244 1109.35 57.6631 1108.99 64.7559C1108.58 73.121 1101.71 79.6726 1093.35 79.6726C1091.76 79.6726 1090.17 79.4308 1088.64 78.9587C1088.05 78.7745 1087.46 78.5557 1086.91 78.3139C1085.84 77.8418 1084.53 78.0088 1083.63 78.74C1080.24 81.4458 1076.03 82.9369 1071.75 82.9369H1071.73Z" fill="#0D317C" fill-opacity="0.1"/>
<path d="M300.89 234.343C299.451 234.343 298.289 233.186 298.289 231.752V228.874C298.289 227.44 299.451 226.283 300.89 226.283C302.329 226.283 303.49 227.44 303.49 228.874V231.752C303.49 233.186 302.329 234.343 300.89 234.343Z" fill="#0D317C" fill-opacity="0.1"/>
<path d="M321.115 234.343C319.676 234.343 318.515 233.186 318.515 231.752V228.874C318.515 227.44 319.676 226.283 321.115 226.283C322.554 226.283 323.716 227.44 323.716 228.874V231.752C323.716 233.186 322.554 234.343 321.115 234.343Z" fill="#0D317C" fill-opacity="0.1"/>
<path d="M300.89 208.437C299.451 208.437 298.289 207.28 298.289 205.846V202.968C298.289 201.534 299.451 200.377 300.89 200.377C302.329 200.377 303.49 201.534 303.49 202.968V205.846C303.49 207.28 302.329 208.437 300.89 208.437Z" fill="#0D317C" fill-opacity="0.1"/>
<path d="M321.115 208.437C319.676 208.437 318.515 207.28 318.515 205.846V202.968C318.515 201.534 319.676 200.377 321.115 200.377C322.554 200.377 323.716 201.534 323.716 202.968V205.846C323.716 207.28 322.554 208.437 321.115 208.437Z" fill="#0D317C" fill-opacity="0.1"/>
<path d="M300.89 260.251C299.451 260.251 298.289 259.094 298.289 257.661V254.782C298.289 253.349 299.451 252.191 300.89 252.191C302.329 252.191 303.49 253.349 303.49 254.782V257.661C303.49 259.094 302.329 260.251 300.89 260.251Z" fill="#0D317C" fill-opacity="0.1"/>
<path d="M321.115 260.251C319.676 260.251 318.515 259.094 318.515 257.661V254.782C318.515 253.349 319.676 252.191 321.115 252.191C322.554 252.191 323.716 253.349 323.716 254.782V257.661C323.716 259.094 322.554 260.251 321.115 260.251Z" fill="#0D317C" fill-opacity="0.1"/>
<path d="M300.89 286.158C299.451 286.158 298.289 285 298.289 283.567V280.688C298.289 279.255 299.451 278.098 300.89 278.098C302.329 278.098 303.49 279.255 303.49 280.688V283.567C303.49 285 302.329 286.158 300.89 286.158Z" fill="#0D317C" fill-opacity="0.1"/>
<path d="M300.89 312.064C299.451 312.064 298.289 310.907 298.289 309.473V306.595C298.289 305.161 299.451 304.004 300.89 304.004C302.329 304.004 303.49 305.161 303.49 306.595V309.473C303.49 310.907 302.329 312.064 300.89 312.064Z" fill="#0D317C" fill-opacity="0.1"/>
<path d="M770.427 117.031C768.988 117.031 767.826 115.873 767.826 114.44V111.561C767.826 110.128 768.988 108.971 770.427 108.971C771.866 108.971 773.027 110.128 773.027 111.561V114.44C773.027 115.873 771.866 117.031 770.427 117.031Z" fill="#0D317C" fill-opacity="0.1"/>
<path d="M793.543 142.937C792.104 142.937 790.942 141.78 790.942 140.346V137.468C790.942 136.034 792.104 134.877 793.543 134.877C794.982 134.877 796.143 136.034 796.143 137.468V140.346C796.143 141.78 794.982 142.937 793.543 142.937Z" fill="#0D317C" fill-opacity="0.1"/>
<path d="M816.659 142.937C815.22 142.937 814.059 141.78 814.059 140.346V137.468C814.059 136.034 815.22 134.877 816.659 134.877C818.098 134.877 819.26 136.034 819.26 137.468V140.346C819.26 141.78 818.098 142.937 816.659 142.937Z" fill="#0D317C" fill-opacity="0.1"/>
<path d="M839.774 142.937C838.335 142.937 837.174 141.78 837.174 140.346V137.468C837.174 136.034 838.335 134.877 839.774 134.877C841.213 134.877 842.375 136.034 842.375 137.468V140.346C842.375 141.78 841.213 142.937 839.774 142.937Z" fill="#0D317C" fill-opacity="0.1"/>
<path d="M793.543 117.031C792.104 117.031 790.942 115.873 790.942 114.44V111.561C790.942 110.128 792.104 108.971 793.543 108.971C794.982 108.971 796.143 110.128 796.143 111.561V114.44C796.143 115.873 794.982 117.031 793.543 117.031Z" fill="#0D317C" fill-opacity="0.1"/>
<path d="M816.659 117.031C815.22 117.031 814.059 115.873 814.059 114.44V111.561C814.059 110.128 815.22 108.971 816.659 108.971C818.098 108.971 819.26 110.128 819.26 111.561V114.44C819.26 115.873 818.098 117.031 816.659 117.031Z" fill="#0D317C" fill-opacity="0.1"/>
<path d="M839.774 117.031C838.335 117.031 837.174 115.873 837.174 114.44V111.561C837.174 110.128 838.335 108.971 839.774 108.971C841.213 108.971 842.375 110.128 842.375 111.561V114.44C842.375 115.873 841.213 117.031 839.774 117.031Z" fill="#0D317C" fill-opacity="0.1"/>
<path d="M793.543 168.845C792.104 168.845 790.942 167.688 790.942 166.254V163.376C790.942 161.942 792.104 160.785 793.543 160.785C794.982 160.785 796.143 161.942 796.143 163.376V166.254C796.143 167.688 794.982 168.845 793.543 168.845Z" fill="#0D317C" fill-opacity="0.1"/>
<path d="M816.659 168.845C815.22 168.845 814.059 167.688 814.059 166.254V163.376C814.059 161.942 815.22 160.785 816.659 160.785C818.098 160.785 819.26 161.942 819.26 163.376V166.254C819.26 167.688 818.098 168.845 816.659 168.845Z" fill="#0D317C" fill-opacity="0.1"/>
<path d="M839.774 168.845C838.335 168.845 837.174 167.688 837.174 166.254V163.376C837.174 161.942 838.335 160.785 839.774 160.785C841.213 160.785 842.375 161.942 842.375 163.376V166.254C842.375 167.688 841.213 168.845 839.774 168.845Z" fill="#0D317C" fill-opacity="0.1"/>
<path d="M793.543 194.751C792.104 194.751 790.942 193.594 790.942 192.161V189.282C790.942 187.849 792.104 186.691 793.543 186.691C794.982 186.691 796.143 187.849 796.143 189.282V192.161C796.143 193.594 794.982 194.751 793.543 194.751Z" fill="#0D317C" fill-opacity="0.1"/>
<path d="M816.659 194.751C815.22 194.751 814.059 193.594 814.059 192.161V189.282C814.059 187.849 815.22 186.691 816.659 186.691C818.098 186.691 819.26 187.849 819.26 189.282V192.161C819.26 193.594 818.098 194.751 816.659 194.751Z" fill="#0D317C" fill-opacity="0.1"/>
<path d="M839.774 194.751C838.335 194.751 837.174 193.594 837.174 192.161V189.282C837.174 187.849 838.335 186.691 839.774 186.691C841.213 186.691 842.375 187.849 842.375 189.282V192.161C842.375 193.594 841.213 194.751 839.774 194.751Z" fill="#0D317C" fill-opacity="0.1"/>
<path d="M793.543 220.66C792.104 220.66 790.942 219.502 790.942 218.069V215.19C790.942 213.757 792.104 212.6 793.543 212.6C794.982 212.6 796.143 213.757 796.143 215.19V218.069C796.143 219.502 794.982 220.66 793.543 220.66Z" fill="#0D317C" fill-opacity="0.1"/>
<path d="M816.659 220.66C815.22 220.66 814.059 219.502 814.059 218.069V215.19C814.059 213.757 815.22 212.6 816.659 212.6C818.098 212.6 819.26 213.757 819.26 215.19V218.069C819.26 219.502 818.098 220.66 816.659 220.66Z" fill="#0D317C" fill-opacity="0.1"/>
<path d="M839.774 220.66C838.335 220.66 837.174 219.502 837.174 218.069V215.19C837.174 213.757 838.335 212.6 839.774 212.6C841.213 212.6 842.375 213.757 842.375 215.19V218.069C842.375 219.502 841.213 220.66 839.774 220.66Z" fill="#0D317C" fill-opacity="0.1"/>
<path d="M793.543 246.566C792.104 246.566 790.942 245.409 790.942 243.975V241.097C790.942 239.663 792.104 238.506 793.543 238.506C794.982 238.506 796.143 239.663 796.143 241.097V243.975C796.143 245.409 794.982 246.566 793.543 246.566Z" fill="#0D317C" fill-opacity="0.1"/>
<path d="M816.659 246.566C815.22 246.566 814.059 245.409 814.059 243.975V241.097C814.059 239.663 815.22 238.506 816.659 238.506C818.098 238.506 819.26 239.663 819.26 241.097V243.975C819.26 245.409 818.098 246.566 816.659 246.566Z" fill="#0D317C" fill-opacity="0.1"/>
<path d="M839.774 246.566C838.335 246.566 837.174 245.409 837.174 243.975V241.097C837.174 239.663 838.335 238.506 839.774 238.506C841.213 238.506 842.375 239.663 842.375 241.097V243.975C842.375 245.409 841.213 246.566 839.774 246.566Z" fill="#0D317C" fill-opacity="0.1"/>
<path d="M637.51 337.972H625.952C624.513 337.972 623.352 336.815 623.352 335.382C623.352 333.948 624.513 332.791 625.952 332.791H637.51C638.949 332.791 640.111 333.948 640.111 335.382C640.111 336.815 638.949 337.972 637.51 337.972Z" fill="#0D317C" fill-opacity="0.1"/>
</g>
<defs>
<clipPath id="clip0_2029_9966">
<rect width="1161" height="361" fill="white"/>
</clipPath>
</defs>
</svg>
