<svg width="648" height="119" viewBox="0 0 648 119" fill="none" xmlns="http://www.w3.org/2000/svg">
<path opacity="0.3" d="M26.5137 39.0273L25.2832 46H6.24023L7.44141 39.0273H26.5137ZM16.3184 3.34375L8.93555 46H0.46875L7.85156 3.34375H16.3184ZM48.5938 46.5859C46.4453 46.5469 44.5605 46.1367 42.9395 45.3555C41.3184 44.5742 39.9902 43.5 38.9551 42.1328C37.9395 40.7461 37.207 39.1641 36.7578 37.3867C36.3281 35.5898 36.2012 33.6758 36.377 31.6445L36.582 29.7402C36.8164 27.6113 37.3145 25.5801 38.0762 23.6465C38.8379 21.7129 39.8633 19.9844 41.1523 18.4609C42.4414 16.9375 43.9844 15.7559 45.7812 14.916C47.5977 14.0566 49.6777 13.6562 52.0215 13.7148C54.209 13.7539 56.0352 14.2129 57.5 15.0918C58.9648 15.9707 60.1074 17.1523 60.9277 18.6367C61.748 20.1016 62.2852 21.7422 62.5391 23.5586C62.8125 25.375 62.832 27.25 62.5977 29.1836L62.0703 32.8164H39.5117L40.4785 27.1035L54.834 27.1328L54.9805 26.3711C55.1172 25.4141 55.1074 24.4863 54.9512 23.5879C54.8145 22.6895 54.4629 21.9473 53.8965 21.3613C53.3301 20.7559 52.4902 20.4238 51.377 20.3652C50.127 20.3262 49.0918 20.6094 48.2715 21.2148C47.4512 21.8008 46.7969 22.5723 46.3086 23.5293C45.8398 24.4863 45.4785 25.5215 45.2246 26.6348C44.9902 27.7285 44.8145 28.7637 44.6973 29.7402L44.4922 31.6445C44.375 32.6016 44.3555 33.5586 44.4336 34.5156C44.5312 35.4727 44.7559 36.3516 45.1074 37.1523C45.459 37.9336 45.9863 38.5781 46.6895 39.0859C47.3926 39.5742 48.3203 39.8281 49.4727 39.8477C50.9375 39.8867 52.2852 39.6133 53.5156 39.0273C54.7656 38.4219 55.9082 37.6309 56.9434 36.6543L60.166 41.4004C59.3262 42.6113 58.2715 43.6074 57.002 44.3887C55.7324 45.1504 54.3652 45.707 52.9004 46.0586C51.4551 46.4297 50.0195 46.6055 48.5938 46.5859ZM89.1602 14.3008L88.0762 20.3945H71.2305L72.3145 14.3008H89.1602ZM77.6758 6.47852H85.791L80.6934 36.4492C80.6152 37.0547 80.5957 37.6016 80.6348 38.0898C80.6934 38.5586 80.8594 38.9395 81.1328 39.2324C81.4258 39.5059 81.9141 39.6523 82.5977 39.6719C82.9688 39.6719 83.3398 39.6523 83.7109 39.6133C84.082 39.5742 84.4531 39.5254 84.8242 39.4668L84.209 45.8535C83.4668 46.0879 82.7246 46.2637 81.9824 46.3809C81.2402 46.498 80.4785 46.5469 79.6973 46.5273C77.8418 46.5078 76.3574 46.0879 75.2441 45.2676C74.1504 44.4277 73.3789 43.3145 72.9297 41.9277C72.4805 40.5215 72.3438 38.959 72.5195 37.2402L77.6758 6.47852ZM105.293 1L104.561 5.6582L101.953 17.0254H96.709L98.5254 5.57031L99.2578 1H105.293ZM121.777 37.1816C121.914 36.3418 121.699 35.6582 121.133 35.1309C120.566 34.6035 119.873 34.1836 119.053 33.8711C118.252 33.5391 117.549 33.2656 116.943 33.0508C115.85 32.6406 114.775 32.1719 113.721 31.6445C112.666 31.1172 111.719 30.4922 110.879 29.7695C110.059 29.0273 109.414 28.1484 108.945 27.1328C108.477 26.1172 108.281 24.9355 108.359 23.5879C108.438 21.9668 108.838 20.541 109.561 19.3105C110.303 18.0801 111.26 17.0449 112.432 16.2051C113.623 15.3457 114.932 14.7109 116.357 14.3008C117.803 13.8711 119.277 13.6758 120.781 13.7148C122.832 13.7344 124.688 14.1348 126.348 14.916C128.027 15.6973 129.355 16.8398 130.332 18.3438C131.328 19.8281 131.826 21.6445 131.826 23.793L123.711 23.7637C123.75 23.0215 123.662 22.3379 123.447 21.7129C123.252 21.0879 122.91 20.5996 122.422 20.248C121.934 19.877 121.26 19.7012 120.4 19.7207C119.717 19.7012 119.062 19.8379 118.438 20.1309C117.832 20.4238 117.314 20.834 116.885 21.3613C116.455 21.8691 116.182 22.4746 116.064 23.1777C115.947 23.7832 116.035 24.3008 116.328 24.7305C116.621 25.1602 117.012 25.5215 117.5 25.8145C118.008 26.0879 118.535 26.332 119.082 26.5469C119.629 26.7422 120.117 26.9082 120.547 27.0449C122.148 27.6113 123.652 28.2852 125.059 29.0664C126.484 29.8281 127.617 30.8242 128.457 32.0547C129.316 33.2852 129.697 34.877 129.6 36.8301C129.541 38.5098 129.111 39.9746 128.311 41.2246C127.51 42.4551 126.475 43.4707 125.205 44.2715C123.955 45.0723 122.568 45.6582 121.045 46.0293C119.541 46.4199 118.037 46.6055 116.533 46.5859C114.463 46.5469 112.568 46.0977 110.85 45.2383C109.131 44.3789 107.764 43.1777 106.748 41.6348C105.732 40.0723 105.225 38.207 105.225 36.0391L112.9 36.0684C112.881 36.9863 113.008 37.7871 113.281 38.4707C113.574 39.1348 114.023 39.6523 114.629 40.0234C115.254 40.3945 116.045 40.5801 117.002 40.5801C117.744 40.5996 118.447 40.4922 119.111 40.2578C119.795 40.0039 120.371 39.623 120.84 39.1152C121.328 38.6074 121.641 37.9629 121.777 37.1816ZM167.344 46H159.199L164.824 12.9531C165.195 10.2969 166.006 8.02148 167.256 6.12695C168.506 4.23242 170.156 2.78711 172.207 1.79102C174.258 0.775391 176.621 0.287109 179.297 0.326172C180.82 0.365234 182.314 0.560547 183.779 0.912109C185.244 1.26367 186.699 1.6543 188.145 2.08398L186.27 8.96875C185.156 8.53906 184.023 8.19727 182.871 7.94336C181.719 7.66992 180.547 7.5332 179.355 7.5332C177.617 7.51367 176.201 7.98242 175.107 8.93945C174.014 9.87695 173.32 11.2051 173.027 12.9238L167.344 46ZM178.301 14.3008L177.217 20.3945H159.492L160.547 14.3008H178.301ZM189.961 14.3008L184.453 46H176.309L181.816 14.3008H189.961ZM208.232 21.5078L203.984 46H195.811L201.318 14.3008H208.936L208.232 21.5078ZM205.771 29.0371L203.838 29.125C204.014 27.3477 204.375 25.541 204.922 23.7051C205.488 21.8691 206.279 20.1895 207.295 18.666C208.33 17.123 209.609 15.8926 211.133 14.9746C212.676 14.0566 214.502 13.627 216.611 13.6855C218.33 13.7441 219.707 14.1348 220.742 14.8574C221.797 15.5801 222.578 16.5273 223.086 17.6992C223.613 18.8711 223.936 20.1602 224.053 21.5664C224.189 22.9727 224.18 24.3887 224.023 25.8145L220.654 46H212.51L215.908 25.7266C216.006 24.8086 215.996 23.9492 215.879 23.1484C215.781 22.3477 215.488 21.7031 215 21.2148C214.512 20.707 213.73 20.4434 212.656 20.4238C211.504 20.3848 210.527 20.6387 209.727 21.1855C208.926 21.7129 208.252 22.416 207.705 23.2949C207.178 24.1738 206.758 25.1211 206.445 26.1367C206.152 27.1523 205.928 28.1191 205.771 29.0371ZM249.473 38.6172L255.977 1H264.15L256.357 46H249.033L249.473 38.6172ZM233.125 31L233.271 29.6523C233.506 27.8164 233.906 25.9512 234.473 24.0566C235.059 22.1621 235.859 20.4238 236.875 18.8418C237.91 17.2402 239.209 15.9707 240.771 15.0332C242.354 14.0762 244.248 13.627 246.455 13.6855C248.33 13.7637 249.844 14.3301 250.996 15.3848C252.168 16.4199 253.057 17.7383 253.662 19.3398C254.287 20.9219 254.697 22.5918 254.893 24.3496C255.088 26.0879 255.156 27.6992 255.098 29.1836L254.805 31.4102C254.512 32.9922 254.043 34.6816 253.398 36.4785C252.773 38.2559 251.934 39.9258 250.879 41.4883C249.844 43.0312 248.594 44.291 247.129 45.2676C245.664 46.2246 243.975 46.6738 242.061 46.6152C239.99 46.5566 238.32 46.0391 237.051 45.0625C235.801 44.0664 234.863 42.7871 234.238 41.2246C233.613 39.6426 233.232 37.9629 233.096 36.1855C232.959 34.3887 232.969 32.6602 233.125 31ZM241.475 29.623L241.328 31C241.25 31.7617 241.191 32.6406 241.152 33.6367C241.113 34.6133 241.172 35.5703 241.328 36.5078C241.484 37.4453 241.826 38.2363 242.354 38.8809C242.9 39.5059 243.721 39.8379 244.814 39.877C246.162 39.916 247.295 39.584 248.213 38.8809C249.15 38.1582 249.883 37.2402 250.41 36.127C250.957 35.0137 251.328 33.8711 251.523 32.6992L252.197 27.9824C252.275 27.2012 252.275 26.3809 252.197 25.5215C252.139 24.6621 251.973 23.8613 251.699 23.1191C251.426 22.3574 250.996 21.7324 250.41 21.2441C249.844 20.7363 249.072 20.4727 248.096 20.4531C246.885 20.375 245.869 20.6289 245.049 21.2148C244.248 21.8008 243.604 22.5723 243.115 23.5293C242.627 24.4668 242.256 25.4824 242.002 26.5762C241.748 27.6504 241.572 28.666 241.475 29.623ZM303.125 38.793L305.41 24.3203C305.488 23.5977 305.469 22.9043 305.352 22.2402C305.254 21.5762 305 21.0293 304.59 20.5996C304.18 20.1699 303.545 19.9453 302.686 19.9258C301.865 19.9062 301.162 20.0625 300.576 20.3945C300.01 20.7266 299.541 21.1855 299.17 21.7715C298.818 22.3379 298.574 22.9922 298.438 23.7344L290.322 23.793C290.42 22.1133 290.859 20.6387 291.641 19.3691C292.441 18.0996 293.467 17.0449 294.717 16.2051C295.967 15.3457 297.344 14.7109 298.848 14.3008C300.371 13.8711 301.904 13.666 303.447 13.6855C305.596 13.7246 307.471 14.1836 309.072 15.0625C310.674 15.9414 311.875 17.1816 312.676 18.7832C313.477 20.3652 313.77 22.2695 313.555 24.4961L311.328 38.3535C311.152 39.5059 311.006 40.707 310.889 41.957C310.791 43.1875 310.947 44.3594 311.357 45.4727L311.299 46L303.33 46.0293C302.998 44.8574 302.832 43.6562 302.832 42.4258C302.852 41.1953 302.949 39.9844 303.125 38.793ZM306.23 26.6641L305.439 31.5273L302.041 31.498C301.24 31.5176 300.469 31.6445 299.727 31.8789C299.004 32.0938 298.34 32.4258 297.734 32.875C297.148 33.3242 296.66 33.8711 296.27 34.5156C295.898 35.1602 295.654 35.9121 295.537 36.7715C295.459 37.377 295.488 37.9434 295.625 38.4707C295.781 38.998 296.055 39.4277 296.445 39.7598C296.855 40.0723 297.393 40.2383 298.057 40.2578C298.916 40.2773 299.746 40.1211 300.547 39.7891C301.348 39.4375 302.041 38.9492 302.627 38.3242C303.213 37.6797 303.594 36.9375 303.77 36.0977L305.352 39.5547C304.961 40.5508 304.463 41.4883 303.857 42.3672C303.252 43.2266 302.549 43.9785 301.748 44.623C300.947 45.2676 300.059 45.7656 299.082 46.1172C298.125 46.4883 297.07 46.6641 295.918 46.6445C294.18 46.625 292.637 46.2051 291.289 45.3848C289.961 44.5449 288.926 43.4316 288.184 42.0449C287.461 40.6387 287.139 39.0762 287.217 37.3574C287.314 35.3652 287.793 33.6855 288.652 32.3184C289.512 30.9512 290.635 29.8574 292.021 29.0371C293.408 28.1973 294.941 27.5918 296.621 27.2207C298.32 26.8301 300.049 26.6348 301.807 26.6348L306.23 26.6641ZM352.471 21.5078L348.223 46H340.049L345.557 14.3008H353.174L352.471 21.5078ZM350.01 29.0371L348.076 29.125C348.252 27.3477 348.613 25.541 349.16 23.7051C349.727 21.8691 350.518 20.1895 351.533 18.666C352.568 17.123 353.848 15.8926 355.371 14.9746C356.914 14.0566 358.74 13.627 360.85 13.6855C362.568 13.7441 363.945 14.1348 364.98 14.8574C366.035 15.5801 366.816 16.5273 367.324 17.6992C367.852 18.8711 368.174 20.1602 368.291 21.5664C368.428 22.9727 368.418 24.3887 368.262 25.8145L364.893 46H356.748L360.146 25.7266C360.244 24.8086 360.234 23.9492 360.117 23.1484C360.02 22.3477 359.727 21.7031 359.238 21.2148C358.75 20.707 357.969 20.4434 356.895 20.4238C355.742 20.3848 354.766 20.6387 353.965 21.1855C353.164 21.7129 352.49 22.416 351.943 23.2949C351.416 24.1738 350.996 25.1211 350.684 26.1367C350.391 27.1523 350.166 28.1191 350.01 29.0371ZM389.785 46.5859C387.637 46.5469 385.752 46.1367 384.131 45.3555C382.51 44.5742 381.182 43.5 380.146 42.1328C379.131 40.7461 378.398 39.1641 377.949 37.3867C377.52 35.5898 377.393 33.6758 377.568 31.6445L377.773 29.7402C378.008 27.6113 378.506 25.5801 379.268 23.6465C380.029 21.7129 381.055 19.9844 382.344 18.4609C383.633 16.9375 385.176 15.7559 386.973 14.916C388.789 14.0566 390.869 13.6562 393.213 13.7148C395.4 13.7539 397.227 14.2129 398.691 15.0918C400.156 15.9707 401.299 17.1523 402.119 18.6367C402.939 20.1016 403.477 21.7422 403.73 23.5586C404.004 25.375 404.023 27.25 403.789 29.1836L403.262 32.8164H380.703L381.67 27.1035L396.025 27.1328L396.172 26.3711C396.309 25.4141 396.299 24.4863 396.143 23.5879C396.006 22.6895 395.654 21.9473 395.088 21.3613C394.521 20.7559 393.682 20.4238 392.568 20.3652C391.318 20.3262 390.283 20.6094 389.463 21.2148C388.643 21.8008 387.988 22.5723 387.5 23.5293C387.031 24.4863 386.67 25.5215 386.416 26.6348C386.182 27.7285 386.006 28.7637 385.889 29.7402L385.684 31.6445C385.566 32.6016 385.547 33.5586 385.625 34.5156C385.723 35.4727 385.947 36.3516 386.299 37.1523C386.65 37.9336 387.178 38.5781 387.881 39.0859C388.584 39.5742 389.512 39.8281 390.664 39.8477C392.129 39.8867 393.477 39.6133 394.707 39.0273C395.957 38.4219 397.1 37.6309 398.135 36.6543L401.357 41.4004C400.518 42.6113 399.463 43.6074 398.193 44.3887C396.924 45.1504 395.557 45.707 394.092 46.0586C392.646 46.4297 391.211 46.6055 389.785 46.5859ZM420.039 37.3281L429.824 14.3008H435.127L431.934 24.0566L422.383 46H417.93L420.039 37.3281ZM421.65 14.3008L421.709 38.1191L420.508 46H415.615L413.975 14.3008H421.65ZM436.064 36.8594L443.916 14.3008H451.943L439.346 46H434.189L436.064 36.8594ZM435.684 14.3008L437.559 37.9727L436.738 46H432.549L430.557 23.3242L430.762 14.3008H435.684ZM484.736 46H476.592L482.48 11.5176C482.754 9.29102 483.398 7.32812 484.414 5.62891C485.449 3.92969 486.816 2.61133 488.516 1.67383C490.215 0.716797 492.227 0.257813 494.551 0.296875C495.273 0.316406 495.977 0.384766 496.66 0.501953C497.363 0.599609 498.057 0.736328 498.74 0.912109L498.037 7.38672C497.686 7.30859 497.324 7.24023 496.953 7.18164C496.582 7.12305 496.211 7.08398 495.84 7.06445C494.902 7.06445 494.072 7.25 493.35 7.62109C492.646 7.99219 492.07 8.50977 491.621 9.17383C491.172 9.83789 490.859 10.6191 490.684 11.5176L484.736 46ZM495.723 14.3008L494.668 20.3945H476.885L477.969 14.3008H495.723ZM517.451 37.9727L521.553 14.3008H529.727L524.219 46H516.602L517.451 37.9727ZM519.268 31.791L521.465 31.7324C521.27 33.4512 520.918 35.1992 520.41 36.9766C519.902 38.7539 519.18 40.375 518.242 41.8398C517.305 43.3047 516.104 44.4863 514.639 45.3848C513.193 46.2637 511.445 46.6738 509.395 46.6152C507.695 46.5762 506.299 46.2246 505.205 45.5605C504.111 44.877 503.262 43.9785 502.656 42.8652C502.051 41.7324 501.66 40.4727 501.484 39.0859C501.309 37.6992 501.289 36.2734 501.426 34.8086L504.854 14.3008H512.969L509.541 34.8965C509.482 35.4434 509.463 36.0098 509.482 36.5957C509.521 37.1621 509.629 37.6895 509.805 38.1777C509.98 38.6465 510.264 39.0371 510.654 39.3496C511.045 39.6621 511.592 39.8281 512.295 39.8477C513.877 39.9258 515.146 39.5645 516.104 38.7637C517.061 37.9629 517.783 36.9375 518.271 35.6875C518.76 34.418 519.092 33.1191 519.268 31.791ZM555 14.3008L553.916 20.3945H537.07L538.154 14.3008H555ZM543.516 6.47852H551.631L546.533 36.4492C546.455 37.0547 546.436 37.6016 546.475 38.0898C546.533 38.5586 546.699 38.9395 546.973 39.2324C547.266 39.5059 547.754 39.6523 548.438 39.6719C548.809 39.6719 549.18 39.6523 549.551 39.6133C549.922 39.5742 550.293 39.5254 550.664 39.4668L550.049 45.8535C549.307 46.0879 548.564 46.2637 547.822 46.3809C547.08 46.498 546.318 46.5469 545.537 46.5273C543.682 46.5078 542.197 46.0879 541.084 45.2676C539.99 44.4277 539.219 43.3145 538.77 41.9277C538.32 40.5215 538.184 38.959 538.359 37.2402L543.516 6.47852ZM576.904 37.9727L581.006 14.3008H589.18L583.672 46H576.055L576.904 37.9727ZM578.721 31.791L580.918 31.7324C580.723 33.4512 580.371 35.1992 579.863 36.9766C579.355 38.7539 578.633 40.375 577.695 41.8398C576.758 43.3047 575.557 44.4863 574.092 45.3848C572.646 46.2637 570.898 46.6738 568.848 46.6152C567.148 46.5762 565.752 46.2246 564.658 45.5605C563.564 44.877 562.715 43.9785 562.109 42.8652C561.504 41.7324 561.113 40.4727 560.938 39.0859C560.762 37.6992 560.742 36.2734 560.879 34.8086L564.307 14.3008H572.422L568.994 34.8965C568.936 35.4434 568.916 36.0098 568.936 36.5957C568.975 37.1621 569.082 37.6895 569.258 38.1777C569.434 38.6465 569.717 39.0371 570.107 39.3496C570.498 39.6621 571.045 39.8281 571.748 39.8477C573.33 39.9258 574.6 39.5645 575.557 38.7637C576.514 37.9629 577.236 36.9375 577.725 35.6875C578.213 34.418 578.545 33.1191 578.721 31.791ZM606.982 21.7422L602.764 46H594.648L600.156 14.3008H607.803L606.982 21.7422ZM616.357 14.0371L615.303 22.0645C614.854 21.9863 614.395 21.918 613.926 21.8594C613.457 21.8008 612.998 21.7715 612.549 21.7715C611.475 21.752 610.527 21.9082 609.707 22.2402C608.887 22.5527 608.184 23.0215 607.598 23.6465C607.012 24.252 606.523 24.9746 606.133 25.8145C605.742 26.6348 605.449 27.5332 605.254 28.5098L603.73 27.9531C603.906 26.5859 604.189 25.082 604.58 23.4414C604.99 21.7812 605.566 20.209 606.309 18.7246C607.051 17.2207 608.018 16 609.209 15.0625C610.4 14.1055 611.885 13.627 613.662 13.627C614.131 13.627 614.58 13.6758 615.01 13.7734C615.439 13.8516 615.889 13.9395 616.357 14.0371ZM633.223 46.5859C631.074 46.5469 629.189 46.1367 627.568 45.3555C625.947 44.5742 624.619 43.5 623.584 42.1328C622.568 40.7461 621.836 39.1641 621.387 37.3867C620.957 35.5898 620.83 33.6758 621.006 31.6445L621.211 29.7402C621.445 27.6113 621.943 25.5801 622.705 23.6465C623.467 21.7129 624.492 19.9844 625.781 18.4609C627.07 16.9375 628.613 15.7559 630.41 14.916C632.227 14.0566 634.307 13.6562 636.65 13.7148C638.838 13.7539 640.664 14.2129 642.129 15.0918C643.594 15.9707 644.736 17.1523 645.557 18.6367C646.377 20.1016 646.914 21.7422 647.168 23.5586C647.441 25.375 647.461 27.25 647.227 29.1836L646.699 32.8164H624.141L625.107 27.1035L639.463 27.1328L639.609 26.3711C639.746 25.4141 639.736 24.4863 639.58 23.5879C639.443 22.6895 639.092 21.9473 638.525 21.3613C637.959 20.7559 637.119 20.4238 636.006 20.3652C634.756 20.3262 633.721 20.6094 632.9 21.2148C632.08 21.8008 631.426 22.5723 630.938 23.5293C630.469 24.4863 630.107 25.5215 629.854 26.6348C629.619 27.7285 629.443 28.7637 629.326 29.7402L629.121 31.6445C629.004 32.6016 628.984 33.5586 629.062 34.5156C629.16 35.4727 629.385 36.3516 629.736 37.1523C630.088 37.9336 630.615 38.5781 631.318 39.0859C632.021 39.5742 632.949 39.8281 634.102 39.8477C635.566 39.8867 636.914 39.6133 638.145 39.0273C639.395 38.4219 640.537 37.6309 641.572 36.6543L644.795 41.4004C643.955 42.6113 642.9 43.6074 641.631 44.3887C640.361 45.1504 638.994 45.707 637.529 46.0586C636.084 46.4297 634.648 46.6055 633.223 46.5859ZM19.8047 74.3008L18.7207 80.3945H1.875L2.95898 74.3008H19.8047ZM8.32031 66.4785H16.4355L11.3379 96.4492C11.2598 97.0547 11.2402 97.6016 11.2793 98.0898C11.3379 98.5586 11.5039 98.9395 11.7773 99.2324C12.0703 99.5059 12.5586 99.6523 13.2422 99.6719C13.6133 99.6719 13.9844 99.6523 14.3555 99.6133C14.7266 99.5742 15.0977 99.5254 15.4688 99.4668L14.8535 105.854C14.1113 106.088 13.3691 106.264 12.627 106.381C11.8848 106.498 11.123 106.547 10.3418 106.527C8.48633 106.508 7.00195 106.088 5.88867 105.268C4.79492 104.428 4.02344 103.314 3.57422 101.928C3.125 100.521 2.98828 98.959 3.16406 97.2402L8.32031 66.4785ZM24.5703 90.9414L24.7168 89.5938C24.9512 87.4648 25.459 85.4434 26.2402 83.5293C27.0215 81.5957 28.0664 79.8867 29.375 78.4023C30.6836 76.8984 32.2461 75.7266 34.0625 74.8867C35.8789 74.0469 37.9492 73.6562 40.2734 73.7148C42.4805 73.7539 44.3555 74.2227 45.8984 75.1211C47.4609 76 48.7012 77.1816 49.6191 78.666C50.5566 80.1504 51.1914 81.8203 51.5234 83.6758C51.875 85.5312 51.9531 87.4551 51.7578 89.4473L51.6113 90.8242C51.3574 92.9336 50.8301 94.9551 50.0293 96.8887C49.248 98.8027 48.2031 100.502 46.8945 101.986C45.5859 103.451 44.0234 104.604 42.207 105.443C40.4102 106.264 38.3594 106.645 36.0547 106.586C33.8477 106.547 31.9629 106.088 30.4004 105.209C28.8574 104.33 27.6172 103.158 26.6797 101.693C25.7617 100.209 25.127 98.5488 24.7754 96.7129C24.4434 94.8574 24.375 92.9336 24.5703 90.9414ZM32.8613 89.5645L32.7148 90.9707C32.6562 91.752 32.6172 92.6504 32.5977 93.666C32.5977 94.6621 32.7051 95.6289 32.9199 96.5664C33.1348 97.5039 33.5352 98.2852 34.1211 98.9102C34.707 99.5352 35.5469 99.8672 36.6406 99.9062C37.8516 99.9648 38.8672 99.7109 39.6875 99.1445C40.5273 98.5586 41.2012 97.7969 41.709 96.8594C42.2363 95.9219 42.6367 94.916 42.9102 93.8418C43.1836 92.7676 43.3789 91.752 43.4961 90.7949L43.6133 89.418C43.6914 88.6367 43.7305 87.7383 43.7305 86.7227C43.7305 85.707 43.6133 84.7305 43.3789 83.793C43.1641 82.8555 42.7637 82.0645 42.1777 81.4199C41.6113 80.7754 40.7715 80.4336 39.6582 80.3945C38.4668 80.3359 37.4609 80.5996 36.6406 81.1855C35.8203 81.7715 35.1465 82.543 34.6191 83.5C34.1113 84.457 33.7109 85.4727 33.418 86.5469C33.1445 87.6211 32.959 88.627 32.8613 89.5645ZM82.1875 74.3008H89.6289L84.2969 105.443C83.9453 108.236 83.0664 110.619 81.6602 112.592C80.2539 114.564 78.4473 116.059 76.2402 117.074C74.0332 118.109 71.5234 118.588 68.7109 118.51C67.4609 118.471 66.2109 118.275 64.9609 117.924C63.7109 117.592 62.5293 117.104 61.416 116.459C60.3223 115.814 59.3555 115.004 58.5156 114.027L62.207 108.783C63.0273 109.779 63.9941 110.561 65.1074 111.127C66.2207 111.713 67.4316 112.016 68.7402 112.035C70.1465 112.074 71.3574 111.83 72.373 111.303C73.4082 110.775 74.2383 110.014 74.8633 109.018C75.4883 108.041 75.918 106.879 76.1523 105.531L80.2539 81.2148L82.1875 74.3008ZM60.5078 91.1172L60.6543 89.7402C60.8691 87.8652 61.2793 85.9707 61.8848 84.0566C62.5098 82.1426 63.3594 80.3945 64.4336 78.8125C65.5078 77.2109 66.8457 75.9414 68.4473 75.0039C70.0684 74.0664 71.9922 73.6367 74.2188 73.7148C76.2109 73.7734 77.793 74.3105 78.9648 75.3262C80.1562 76.3223 81.0449 77.6016 81.6309 79.1641C82.2168 80.7266 82.5879 82.3965 82.7441 84.1738C82.9004 85.9316 82.9395 87.6016 82.8613 89.1836L82.5684 91.4102C82.2949 93.0312 81.8359 94.7402 81.1914 96.5371C80.5469 98.3145 79.707 99.9746 78.6719 101.518C77.6367 103.061 76.3867 104.311 74.9219 105.268C73.457 106.225 71.7383 106.674 69.7656 106.615C67.7148 106.576 66.0449 106.068 64.7559 105.092C63.4668 104.115 62.4805 102.855 61.7969 101.312C61.1328 99.75 60.7031 98.0801 60.5078 96.3027C60.332 94.5254 60.332 92.7969 60.5078 91.1172ZM68.7988 89.6523L68.6523 91.0293C68.5742 91.8301 68.5254 92.7285 68.5059 93.7246C68.4863 94.7207 68.584 95.6777 68.7988 96.5957C69.0137 97.5137 69.4043 98.2754 69.9707 98.8809C70.5566 99.4863 71.4062 99.8086 72.5195 99.8477C73.9258 99.9258 75.1074 99.623 76.0645 98.9395C77.041 98.2363 77.8027 97.3281 78.3496 96.2148C78.916 95.1016 79.2969 93.9297 79.4922 92.6992L80.166 87.9824C80.2441 87.1426 80.2441 86.293 80.166 85.4336C80.1074 84.5547 79.9316 83.7441 79.6387 83.002C79.3457 82.2598 78.8965 81.6543 78.291 81.1855C77.6855 80.7168 76.875 80.4727 75.8594 80.4531C74.6289 80.3945 73.584 80.6582 72.7246 81.2441C71.8848 81.8105 71.1914 82.5625 70.6445 83.5C70.1172 84.4375 69.707 85.4531 69.4141 86.5469C69.1211 87.6211 68.916 88.6562 68.7988 89.6523ZM109.102 106.586C106.953 106.547 105.068 106.137 103.447 105.355C101.826 104.574 100.498 103.5 99.4629 102.133C98.4473 100.746 97.7148 99.1641 97.2656 97.3867C96.8359 95.5898 96.709 93.6758 96.8848 91.6445L97.0898 89.7402C97.3242 87.6113 97.8223 85.5801 98.584 83.6465C99.3457 81.7129 100.371 79.9844 101.66 78.4609C102.949 76.9375 104.492 75.7559 106.289 74.916C108.105 74.0566 110.186 73.6562 112.529 73.7148C114.717 73.7539 116.543 74.2129 118.008 75.0918C119.473 75.9707 120.615 77.1523 121.436 78.6367C122.256 80.1016 122.793 81.7422 123.047 83.5586C123.32 85.375 123.34 87.25 123.105 89.1836L122.578 92.8164H100.02L100.986 87.1035L115.342 87.1328L115.488 86.3711C115.625 85.4141 115.615 84.4863 115.459 83.5879C115.322 82.6895 114.971 81.9473 114.404 81.3613C113.838 80.7559 112.998 80.4238 111.885 80.3652C110.635 80.3262 109.6 80.6094 108.779 81.2148C107.959 81.8008 107.305 82.5723 106.816 83.5293C106.348 84.4863 105.986 85.5215 105.732 86.6348C105.498 87.7285 105.322 88.7637 105.205 89.7402L105 91.6445C104.883 92.6016 104.863 93.5586 104.941 94.5156C105.039 95.4727 105.264 96.3516 105.615 97.1523C105.967 97.9336 106.494 98.5781 107.197 99.0859C107.9 99.5742 108.828 99.8281 109.98 99.8477C111.445 99.8867 112.793 99.6133 114.023 99.0273C115.273 98.4219 116.416 97.6309 117.451 96.6543L120.674 101.4C119.834 102.611 118.779 103.607 117.51 104.389C116.24 105.15 114.873 105.707 113.408 106.059C111.963 106.43 110.527 106.605 109.102 106.586ZM149.668 74.3008L148.584 80.3945H131.738L132.822 74.3008H149.668ZM138.184 66.4785H146.299L141.201 96.4492C141.123 97.0547 141.104 97.6016 141.143 98.0898C141.201 98.5586 141.367 98.9395 141.641 99.2324C141.934 99.5059 142.422 99.6523 143.105 99.6719C143.477 99.6719 143.848 99.6523 144.219 99.6133C144.59 99.5742 144.961 99.5254 145.332 99.4668L144.717 105.854C143.975 106.088 143.232 106.264 142.49 106.381C141.748 106.498 140.986 106.547 140.205 106.527C138.35 106.508 136.865 106.088 135.752 105.268C134.658 104.428 133.887 103.314 133.438 101.928C132.988 100.521 132.852 98.959 133.027 97.2402L138.184 66.4785ZM169.404 61L161.611 106H153.467L161.289 61H169.404ZM163.428 89.0371L161.348 89.125C161.543 87.4258 161.914 85.668 162.461 83.8516C163.027 82.0352 163.809 80.3457 164.805 78.7832C165.82 77.2207 167.07 75.9707 168.555 75.0332C170.039 74.0762 171.807 73.627 173.857 73.6855C175.576 73.7246 176.982 74.1055 178.076 74.8281C179.17 75.5508 180 76.5078 180.566 77.6992C181.152 78.8711 181.523 80.1797 181.68 81.625C181.836 83.0508 181.826 84.5059 181.65 85.9902L178.311 106H170.166L173.535 85.9023C173.633 85.0039 173.633 84.1445 173.535 83.3242C173.438 82.4844 173.145 81.8008 172.656 81.2734C172.168 80.7266 171.387 80.4434 170.312 80.4238C169.121 80.3848 168.115 80.6289 167.295 81.1562C166.494 81.6836 165.83 82.3867 165.303 83.2656C164.775 84.125 164.365 85.0625 164.072 86.0781C163.779 87.0938 163.564 88.0801 163.428 89.0371ZM203.203 106.586C201.055 106.547 199.17 106.137 197.549 105.355C195.928 104.574 194.6 103.5 193.564 102.133C192.549 100.746 191.816 99.1641 191.367 97.3867C190.938 95.5898 190.811 93.6758 190.986 91.6445L191.191 89.7402C191.426 87.6113 191.924 85.5801 192.686 83.6465C193.447 81.7129 194.473 79.9844 195.762 78.4609C197.051 76.9375 198.594 75.7559 200.391 74.916C202.207 74.0566 204.287 73.6562 206.631 73.7148C208.818 73.7539 210.645 74.2129 212.109 75.0918C213.574 75.9707 214.717 77.1523 215.537 78.6367C216.357 80.1016 216.895 81.7422 217.148 83.5586C217.422 85.375 217.441 87.25 217.207 89.1836L216.68 92.8164H194.121L195.088 87.1035L209.443 87.1328L209.59 86.3711C209.727 85.4141 209.717 84.4863 209.561 83.5879C209.424 82.6895 209.072 81.9473 208.506 81.3613C207.939 80.7559 207.1 80.4238 205.986 80.3652C204.736 80.3262 203.701 80.6094 202.881 81.2148C202.061 81.8008 201.406 82.5723 200.918 83.5293C200.449 84.4863 200.088 85.5215 199.834 86.6348C199.6 87.7285 199.424 88.7637 199.307 89.7402L199.102 91.6445C198.984 92.6016 198.965 93.5586 199.043 94.5156C199.141 95.4727 199.365 96.3516 199.717 97.1523C200.068 97.9336 200.596 98.5781 201.299 99.0859C202.002 99.5742 202.93 99.8281 204.082 99.8477C205.547 99.8867 206.895 99.6133 208.125 99.0273C209.375 98.4219 210.518 97.6309 211.553 96.6543L214.775 101.4C213.936 102.611 212.881 103.607 211.611 104.389C210.342 105.15 208.975 105.707 207.51 106.059C206.064 106.43 204.629 106.605 203.203 106.586ZM236.299 81.7422L232.08 106H223.965L229.473 74.3008H237.119L236.299 81.7422ZM245.674 74.0371L244.619 82.0645C244.17 81.9863 243.711 81.918 243.242 81.8594C242.773 81.8008 242.314 81.7715 241.865 81.7715C240.791 81.752 239.844 81.9082 239.023 82.2402C238.203 82.5527 237.5 83.0215 236.914 83.6465C236.328 84.252 235.84 84.9746 235.449 85.8145C235.059 86.6348 234.766 87.5332 234.57 88.5098L233.047 87.9531C233.223 86.5859 233.506 85.082 233.896 83.4414C234.307 81.7812 234.883 80.209 235.625 78.7246C236.367 77.2207 237.334 76 238.525 75.0625C239.717 74.1055 241.201 73.627 242.979 73.627C243.447 73.627 243.896 73.6758 244.326 73.7734C244.756 73.8516 245.205 73.9395 245.674 74.0371ZM245.693 102.045C245.654 100.697 246.084 99.584 246.982 98.7051C247.9 97.8262 249.023 97.377 250.352 97.3574C251.621 97.3379 252.705 97.7383 253.604 98.5586C254.502 99.3594 254.961 100.414 254.98 101.723C255 103.051 254.551 104.154 253.633 105.033C252.734 105.912 251.621 106.352 250.293 106.352C249.043 106.371 247.969 105.98 247.07 105.18C246.172 104.379 245.713 103.334 245.693 102.045Z" fill="url(#paint0_linear_2022_9905)"/>
<defs>
<linearGradient id="paint0_linear_2022_9905" x1="0" y1="55" x2="649" y2="55" gradientUnits="userSpaceOnUse">
<stop stop-color="white"/>
<stop offset="0.355" stop-color="white"/>
<stop offset="1" stop-color="white"/>
</linearGradient>
</defs>
</svg>
