<svg width="761" height="74" viewBox="0 0 761 74" fill="none" xmlns="http://www.w3.org/2000/svg">
<path opacity="0.3" d="M715.081 42.8984V31.2984H729.981C733.114 31.2984 735.514 30.4984 737.181 28.8984C738.914 27.2984 739.781 25.1318 739.781 22.3984C739.781 19.8651 738.948 17.7651 737.281 16.0984C735.614 14.4318 733.214 13.5984 730.081 13.5984H715.081V1.39844H731.881C736.548 1.39844 740.648 2.29844 744.181 4.09844C747.714 5.83177 750.481 8.2651 752.481 11.3984C754.481 14.5318 755.481 18.1318 755.481 22.1984C755.481 26.3318 754.481 29.9651 752.481 33.0984C750.481 36.1651 747.681 38.5651 744.081 40.2984C740.481 42.0318 736.248 42.8984 731.381 42.8984H715.081ZM703.081 71.9984V1.39844H718.781V71.9984H703.081ZM741.481 71.9984L719.481 41.5984L733.881 37.6984L760.081 71.9984H741.481Z" fill="white"/>
<path opacity="0.3" d="M670.784 71.9984V1.39844H686.484V71.9984H670.784Z" fill="white"/>
<path opacity="0.3" d="M590.414 71.9984L618.414 1.39844H632.614L660.314 71.9984H643.714L622.514 13.3984H628.214L606.714 71.9984H590.414ZM606.314 59.1984V46.3984H644.814V59.1984H606.314Z" fill="white"/>
<path opacity="0.3" d="M547.487 46.2984V34.0984H562.687C564.621 34.0984 566.387 33.6984 567.987 32.8984C569.587 32.0984 570.854 30.9318 571.787 29.3984C572.721 27.8651 573.187 25.9984 573.187 23.7984C573.187 21.6651 572.721 19.8318 571.787 18.2984C570.854 16.7651 569.587 15.5984 567.987 14.7984C566.387 13.9984 564.621 13.5984 562.687 13.5984H547.487V1.39844H564.987C569.454 1.39844 573.487 2.29844 577.087 4.09844C580.687 5.89844 583.521 8.49844 585.587 11.8984C587.721 15.2318 588.787 19.1984 588.787 23.7984C588.787 28.3984 587.721 32.3984 585.587 35.7984C583.521 39.1318 580.687 41.7318 577.087 43.5984C573.487 45.3984 569.454 46.2984 564.987 46.2984H547.487ZM535.487 71.9984V1.39844H551.187V71.9984H535.487Z" fill="white"/>
<path opacity="0.3" d="M470.964 71.9984V1.39844H486.664V71.9984H470.964ZM482.964 71.9984V58.3984H521.664V71.9984H482.964ZM482.964 42.4984V29.3984H518.164V42.4984H482.964ZM482.964 14.8984V1.39844H521.164V14.8984H482.964Z" fill="white"/>
<path opacity="0.3" d="M416.097 42.8984V31.2984H430.997C434.13 31.2984 436.53 30.4984 438.197 28.8984C439.93 27.2984 440.797 25.1318 440.797 22.3984C440.797 19.8651 439.963 17.7651 438.297 16.0984C436.63 14.4318 434.23 13.5984 431.097 13.5984H416.097V1.39844H432.897C437.563 1.39844 441.663 2.29844 445.197 4.09844C448.73 5.83177 451.497 8.2651 453.497 11.3984C455.497 14.5318 456.497 18.1318 456.497 22.1984C456.497 26.3318 455.497 29.9651 453.497 33.0984C451.497 36.1651 448.697 38.5651 445.097 40.2984C441.497 42.0318 437.263 42.8984 432.397 42.8984H416.097ZM404.097 71.9984V1.39844H419.797V71.9984H404.097ZM442.497 71.9984L420.497 41.5984L434.897 37.6984L461.097 71.9984H442.497Z" fill="white"/>
<path opacity="0.3" d="M334.933 45.6984L307.733 1.39844H325.933L346.833 37.1984H335.133L356.033 1.39844H373.833L346.433 45.6984H334.933ZM333.033 71.9984V38.4984H348.733V71.9984H333.033Z" fill="white"/>
<path opacity="0.3" d="M250.077 71.9984V1.39844H265.777V71.9984H250.077ZM262.077 71.9984V58.3984H300.777V71.9984H262.077ZM262.077 42.4984V29.3984H297.277V42.4984H262.077ZM262.077 14.8984V1.39844H300.277V14.8984H262.077Z" fill="white"/>
<path opacity="0.3" d="M173.249 71.9984V1.39844H184.249L188.949 15.4984V71.9984H173.249ZM221.949 71.9984L180.349 18.6984L184.249 1.39844L225.849 54.6984L221.949 71.9984ZM221.949 71.9984L217.749 57.8984V1.39844H233.449V71.9984H221.949Z" fill="white"/>
<path opacity="0.3" d="M123.383 73.1992C118.05 73.1992 113.116 72.2659 108.583 70.3992C104.116 68.5326 100.183 65.9326 96.783 62.5992C93.383 59.2659 90.7497 55.3992 88.883 50.9992C87.0163 46.5326 86.083 41.7326 86.083 36.5992C86.083 31.3992 87.0163 26.5992 88.883 22.1992C90.7497 17.7992 93.3497 13.9659 96.683 10.6992C100.016 7.36589 103.916 4.79922 108.383 2.99922C112.916 1.13255 117.85 0.199219 123.183 0.199219C128.45 0.199219 133.316 1.13255 137.783 2.99922C142.316 4.79922 146.25 7.36589 149.583 10.6992C152.983 13.9659 155.616 17.8326 157.483 22.2992C159.35 26.6992 160.283 31.4992 160.283 36.6992C160.283 41.8326 159.35 46.6326 157.483 51.0992C155.616 55.4992 153.016 59.3659 149.683 62.6992C146.35 65.9659 142.416 68.5326 137.883 70.3992C133.416 72.2659 128.583 73.1992 123.383 73.1992ZM123.183 58.8992C127.383 58.8992 131.05 57.9659 134.183 56.0992C137.383 54.2326 139.85 51.6326 141.583 48.2992C143.316 44.8992 144.183 40.9992 144.183 36.5992C144.183 33.2659 143.683 30.2659 142.683 27.5992C141.683 24.8659 140.25 22.5326 138.383 20.5992C136.516 18.5992 134.283 17.0992 131.683 16.0992C129.15 15.0326 126.316 14.4992 123.183 14.4992C118.983 14.4992 115.283 15.4326 112.083 17.2992C108.95 19.0992 106.516 21.6659 104.783 24.9992C103.05 28.2659 102.183 32.1326 102.183 36.5992C102.183 39.9326 102.683 42.9659 103.683 45.6992C104.683 48.4326 106.083 50.7992 107.883 52.7992C109.75 54.7326 111.983 56.2326 114.583 57.2992C117.183 58.3659 120.05 58.8992 123.183 58.8992Z" fill="white"/>
<path opacity="0.3" d="M0.842773 71.9984V1.39844H12.0428L39.8428 44.6984H34.1428L61.8428 1.39844H73.1428V71.9984H57.4428V27.8984L60.2428 28.5984L42.1428 56.7984H31.7428L13.7428 28.5984L16.4428 27.8984V71.9984H0.842773Z" fill="white"/>
</svg>
